<mxfile host="65bd71144e">
    <diagram id="yZkabsPmcRGXbQAkC50R" name="externes Modul">
        <mxGraphModel dx="638" dy="1181" grid="1" gridSize="10" guides="1" tooltips="1" connect="1" arrows="1" fold="1" page="1" pageScale="1" pageWidth="827" pageHeight="1169" math="0" shadow="0">
            <root>
                <mxCell id="0"/>
                <mxCell id="1" parent="0"/>
                <mxCell id="iZJZRVdZm_KSPT-HkGH1-1" value="" style="shape=image;verticalLabelPosition=bottom;labelBackgroundColor=default;verticalAlign=top;aspect=fixed;imageAspect=0;image=data:image/png,iVBORw0KGgoAAAANSUhEUgAABnAAAARdCAYAAABhKAzzAAAAAXNSR0IArs4c6QAAAERlWElmTU0AKgAAAAgAAYdpAAQAAAABAAAAGgAAAAAAA6ABAAMAAAABAAEAAKACAAQAAAABAAAGcKADAAQAAAABAAAEXQAAAAByPkSXAABAAElEQVR4AezdB5ykRZ0w/urJm0DQBXbJIOgigiRFkKwoehhAPMFwnvHkNZ163Hl3Yjr1bzo9w93/PUGBUzjxRNRTlCgSBHQJK0GiLCBhCcum2Uk9/VY19GyHZ2ZnZ2Znn57+1ufT9vPUU089Vd96dtX+bVUV+vv7S11dXUEiQIAAAQIECBAgQIAAAQIECBAgQIAAAQIECBDY9AIxdhMKw8PDpUKhsOlbowUECBAgQIAAAQIECBAgQIAAAQIECBAgQIAAAQKhVCqFQvyPEgsCBAgQIECAAAECBAgQIECAAAECBAgQIECAAIH8CLTlpylaQoAAAQIECBAgQIAAAQIECBAgQIAAAQIECBAgkAQEcLwHBAgQIECAAAECBAgQIECAAAECBAgQIECAAIGcCQjg5GxANIcAAQIECBAgQIAAAQIECBAgQIAAAQIECBAgIIDjHSBAgAABAgQIECBAgAABAgQIECBAgAABAgQI5ExAACdnA6I5BAgQIECAAAECBAgQIECAAAECBAgQIECAAAEBHO8AAQIECBAgQIAAAQIECBAgQIAAAQIECBAgQCBnAgI4ORsQzSFAgAABAgQIECBAgAABAgQIECBAgAABAgQICOB4BwgQIECAAAECBAgQIECAAAECBAgQIECAAAECORMQwMnZgGgOAQIECBAgQIAAAQIECBAgQIAAAQIECBAgQEAAxztAgAABAgQIECBAgAABAgQIECBAgAABAgQIEMiZgABOzgZEcwgQIECAAAECBAgQIECAAAECBAgQIECAAAECAjjeAQIECBAgQIAAAQIECBAgQIAAAQIECBAgQIBAzgQEcHI2IJpDgAABAgQIECBAgAABAgQIECBAgAABAgQIEBDA8Q4QIECAAAECBAgQIECAAAECBAgQIECAAAECBHImIICTswHRHAIECBAgQIAAAQIECBAgQIAAAQIECBAgQICAAI53gAABAgQIECBAgAABAgQIECBAgAABAgQIECCQMwEBnJwNiOYQIECAAAECBAgQIECAAAECBAgQIECAAAECBARwvAMECBAgQIAAAQIECBAgQIAAAQIECBAgQIAAgZwJCODkbEA0hwABAgQIECBAgAABAgQIECBAgAABAgQIECAggOMdIECAAAECBAgQIECAAAECBAgQIECAAAECBAjkTEAAJ2cDojkECBAgQIAAAQIECBAgQIAAAQIECBAgQIAAAQEc7wABAgQIECBAgAABAgQIECBAgAABAgQIECBAIGcCAjg5GxDNIUCAAAECBAgQIECAAAECBAgQIECAAAECBAgI4HgHCBAgQIAAAQIECBAgQIAAAQIECBAgQIAAAQI5ExDAydmAaA4BAgQIECBAgAABAgQIECBAgAABAgQIECBAQADHO0CAAAECBAgQIECAAAECBAgQIECAAAECBAgQyJmAAE7OBkRzCBAgQIAAAQIECBAgQIAAAQIECBAgQIAAAQICON4BAgQIECBAgAABAgQIECBAgAABAgQIECBAgEDOBARwcjYgmkOAAAECBAgQIECAAAECBAgQIECAAAECBAgQEMDxDhAgQIAAAQIECBAgQIAAAQIECBAgQIAAAQIEciYggJOzAdEcAgQIECBAgAABAgQIECBAgAABAgQIECBAgIAAjneAAAECBAgQIECAAAECBAgQIECAAAECBAgQIJAzAQGcnA2I5hAgQIAAAQIECBAgQIAAAQIECBAgQIAAAQIEBHC8AwQIECBAgAABAgQIECBAgAABAgQIECBAgACBnAkI4ORsQDSHAAECBAgQIECAAAECBAgQIECAAAECBAgQICCA4x0gQIAAAQIECBAgQIAAAQIECBAgQIAAAQIECORMQAAnZwOiOQQIECBAgAABAgQIECBAgAABAgQIECBAgAABARzvAAECBAgQIECAAAECBAgQIECAAAECBAgQIEAgZwICODkbEM0hQIAAAQIECBAgQIAAAQIECBAgQIAAAQIECAjgeAcIECBAgAABAgQIECBAgAABAgQIECBAgAABAjkTEMDJ2YBoDgECBAgQIECAAAECBAgQIECAAAECBAgQIEBAAMc7QIAAAQIECBAgQIAAAQIECBAgQIAAAQIECBDImYAATs4GRHMIECBAgAABAgQIECBAgAABAgQIECBAgAABAgI43gECBAgQIECAAAECBAgQIECAAAECBAgQIECAQM4EBHByNiCaQ4AAAQIECBAgQIAAAQIECBAgQIAAAQIECBAQwPEOECBAgAABAgQIECBAgAABAgQIECBAgAABAgRyJiCAk7MB0RwCBAgQIECAAAECBAgQIECAAAECBAgQIECAgACOd4AAAQIECBAgQIAAAQIECBAgQIAAAQIECBAgkDMBAZycDYjmECBAgAABAgQIECBAgAABAgQIECBAgAABAgQEcLwDBAgQIECAAAECBAgQIECAAAECBAgQIECAAIGcCQjg5GxANIcAAQIECBAgQIAAAQIECBAgQIAAAQIECBAgIIDjHSBAgAABAgQIECBAgAABAgQIECBAgAABAgQI5ExAACdnA6I5BAgQIECAAAECBAgQIECAAAECBAgQIECAAAEBHO8AAQIECBAgQIAAAQIECBAgQIAAAQIECBAgQCBnAgI4ORsQzSFAgAABAgQIECBAgAABAgQIECBAgAABAgQICOB4BwgQIECAAAECBAgQIECAAAECBAgQIECAAAECORMQwMnZgGgOAQIECBAgQIAAAQIECBAgQIAAAQIECBAgQEAAxztAgAABAgQIECBAgAABAgQIECBAgAABAgQIEMiZgABOzgZEcwgQIECAAAECBAgQIECAAAECBAgQIECAAAECAjjeAQIECBAgQIAAAQIECBAgQIAAAQIECBAgQIBAzgQEcHI2IJpDgAABAgQIECBAgAABAgQIECBAgAABAgQIEBDA8Q4QIECAAAECBAgQIECAAAECBAgQIECAAAECBHImIICTswHRHAIECBAgQIAAAQIECBAgQIAAAQIECBAgQICAAI53gAABAgQIECBAgAABAgQIECBAgAABAgQIECCQMwEBnJwNiOYQIECAAAECBAgQIECAAAECBAgQIECAAAECBARwvAMECBAgQIAAAQIECBAgQIAAAQIECBAgQIAAgZwJCODkbEA0hwABAgQIECBAgAABAgQIECBAgAABAgQIECAggOMdIECAAAECBAgQIECAAAECBAgQIECAAAECBAjkTEAAJ2cDojkECBAgQIAAAQIECBAgQIAAAQIECBAgQIAAAQEc7wABAgQIECBAgAABAgQIECBAgAABAgQIECBAIGcCAjg5GxDNIUCAAAECBAgQIECAAAECBAgQIECAAAECBAgI4HgHCBAgQIAAAQIECBAgQIAAAQIECBAgQIAAAQI5ExDAydmAaA4BAgQIECBAgAABAgQIECBAgAABAgQIECBAQADHO0CAAAECBAgQIECAAAECBAgQIECAAAECBAgQyJmAAE7OBkRzCBAgQIAAAQIECBAgQIAAAQIECBAgQIAAAQICON4BAgQIECBAgAABAgQIECBAgAABAgQIECBAgEDOBARwcjYgmkOAAAECBAgQIECAAAECBAgQIECAAAECBAgQEMDxDhAgQIAAAQIECBAgQIAAAQIECBAgQIAAAQIEciYggJOzAdEcAgQIECBAgAABAgQIECBAgAABAgQIECBAgIAAjneAAAECBAgQIECAAAECBAgQIECAAAECBAgQIJAzAQGcnA2I5hAgQIAAAQIECBAgQIAAAQIECBAgQIAAAQIEBHC8AwQIECBAgAABAgQIECBAgAABAgQIECBAgACBnAkI4ORsQDSHAAECBAgQIECAAAECBAgQIECAAAECBAgQICCA4x0gQIAAAQIECBAgQIAAAQIECBAgQIAAAQIECORMQAAnZwOiOQQIECBAgAABAgQIECBAgAABAgQIECBAgAABARzvAAECBAgQIECAAAECBAgQIECAAAECBAgQIEAgZwICODkbEM0hQIAAAQIECBAgQIAAAQIECBAgQIAAAQIECAjgeAcIECBAgAABAgQIECBAgAABAgQIECBAgAABAjkTEMDJ2YBoDgECBAgQIECAAAECBAgQIECAAAECBAgQIECgAwEBAgQIECBAgACBjSFwww03hFtuuSX09vZujOrVSYAAAQIECBAgQCC3AltttVU4+OCDw/z583PbRg0jQCD/Ambg5H+MtJAAAQIECBAg0HQC999/f/jd734neNN0I6fBBAgQIECAAAECUyGwbNmy8Ktf/WoqqlIHAQItLCCA08KDr+sECBAgQIAAgY0l8Nhjj22sqtVLgAABAgQIECBAoCkE0kx0s9GbYqg0kkBuBQRwcjs0GkaAAAECBAgQaF6B4eHh5m28lhMgQIAAAQIECBCYIgH/u3iKIFVDoEUFBHBadOB1mwABAgQIECBAgAABAgQIECBAgAABAgQIEMivQEd+m6ZlBAgQIECAAAECM0lg4cKFYcGCBTOpS/pCgAABAgQIECBAYERgyZIlYXBwcOTcAQECBCYrYAbOZAXdT4AAAQIECBAgQIAAAQIECBAgQIAAAQIECBCYYgEBnCkGVR0BAgQIECBAgAABAgQIECBAgAABAgQIECBAYLICAjiTFXQ/AQIECBAgQIAAAQIECBAgQIAAAQIECBAgQGCKBQRwphhUdQQIECBAgAABAgQIECBAgAABAgQIECBAgACByQoI4ExW0P0ECBAgQIAAAQIECBAgQIAAAQIECBAgQIAAgSkWEMCZYlDVESBAgAABAgQIECBAgAABAgQIECBAgAABAgQmKyCAM1lB9xMgQIAAAQIECBAgQIAAAQIECBAgQIAAAQIEplhAAGeKQVVHgAABAgQIECBAgAABAgQIECBAgAABAgQIEJisgADOZAXdT4AAAQIECBAgQIAAAQIECBAgQIAAAQIECBCYYgEBnCkGVR0BAgQIECBAgAABAgQIECBAgAABAgQIECBAYLICAjiTFXQ/AQIECBAgQIAAAQIECBAgQIAAAQIECBAgQGCKBQRwphhUdQQIECBAgAABAgQIECBAgAABAgQIECBAgACByQoI4ExW0P0ECBAgQIAAAQIECBAgQIAAAQIECBAgQIAAgSkWEMCZYlDVESBAgAABAgQIECBAgAABAgQIECBAgAABAgQmKyCAM1lB9xMgQIAAAQIECBAgQIAAAQIECBAgQIAAAQIEplhAAGeKQVVHgAABAgQIECBAgAABAgQIECBAgAABAgQIEJisgADOZAXdT4AAAQIECBAgQIAAAQIECBAgQIAAAQIECBCYYgEBnCkGVR0BAgQIECBAgAABAgQIECBAgAABAgQIECBAYLICAjiTFXQ/AQIECBAgQIAAAQIECBAgQIAAAQIECBAgQGCKBQRwphhUdQQIECBAgAABAgQIECBAgAABAgQIECBAgACByQoI4ExW0P0ECBAgQIAAAQIECBAgQIAAAQIECBAgQIAAgSkWEMCZYlDVESBAgAABAgQIECBAgAABAgQIECBAgAABAgQmKyCAM1lB9xMgQIAAAQIECBAgQIAAAQIECBAgQIAAAQIEplhAAGeKQVVHgAABAgQIECBAgAABAgQIECBAgAABAgQIEJisgADOZAXdT4AAAQIECBAgQIAAAQIECBAgQIAAAQIECBCYYoGOKa5PdQQIECBAgAABAgQIECBAgEAUGBoaCh/96EenzOKkk04KL3zhC6esvple0VlnnRV++ctfZnbzPe95TzjssMMyr8kkQIAAAQIECORFQAAnLyOhHQQIECBAgAABAgQIECAwowSKxWK48sorp6xPRx111JTVNdMrKpVK4dxzzw0PP/xwZld/8pOfCOBkysgkQIAAAQIE8iQggJOn0dAWAgQIECBAgAABAgQIECAwgwROO+20cMEFF4z06Ec/+tHI8cY8uPHGG0cN3qTnXn311WHFihVh880335jNUDcBAgQIECBAYFIC9sCZFJ+bCRAgQIAAAQIECBAgQIAAgSyBtITcD3/4w7B06dKRT1a5jZE32tJplWeltl188cWVU98ECBAgQIAAgVwKmIGTy2HRKAIECBAgQIAAAQIECBBodoG2traw6667ZnZjeHg4/OlPf2q4Nn/+/LDZZps15KeM0fIzC+cg85prrgmPP/74tLckBWcuueSSmudut9124dFHHw39/f0j+b/61a/C8ccfP3LugAABAgQIECCQNwEBnLyNiPYQIECAAAECBAgQIECAwIwQ6OzsDD/4wQ8y+9Lb2xsOPfTQhmvvfOc7cxlUSHvKFAqFhvaOlfGzn/1srMsb7VoKHD355JM19Sfru+++O1x77bUj+TfccEN5mbVtttlmJM8BAQIECBAgQCBPAgI4eRoNbSFAgAABAgQIECBAgAABAhMQeOyxx8LPf/7zkIIX9957b1i+fHlIM4DSHi+77757ePGLXxyOPfbYMGfOnPXW3tfXV57Bcvnll4c777wzpLrXrl0buru7y/XttNNOYY899ijXuc8++5SfU19passVV1xRnx3+8R//sSHvqKOOCukzVSlr+bSDDz44bLvttjUBnBSUSrNw/uqv/mq9j/70pz8dkkslHXHEEeFlL3tZ+fSBBx4I5557brjqqqvCI488ElK9KSj0kpe8JPzlX/5lWLhwYeW2hu+HHnoofOMb36jJf/vb3x6e/exnl/Ouv/76cN5554W0p08ah56enrDjjjuGI488MrzhDW8Is2bNqrnXCQECBAgQIDCzBARwZtZ46g0BAgQIECBAgAABAgQItJBAChZ85zvfCd/97ndrAgwVgrRsWPqk4MK3v/3t8OEPfzi86lWvqlxu+F68eHE49dRTy4GI+otp+bFly5aVP9ddd10444wzyoGKf/qnfyoHc1L5e+65J3zhC18IqZ6sdOGFFzZkp4DQVAVwUpAlBZ6q0+zZs8O+++4bdthhh/ClL32p+tK4AziXXnppWL169ci9yTQFcFKw6LOf/Ww5wDVyMR5U9v358Y9/HJLPy1/+8urLI8crV64M9SapnWnpva9+9avh7LPPHimbDlIbbrnllvInBXa+/OUvh912262mjBMCBAgQIEBg5ggI4MycsdQTAgQIECBAgAABAgQIEGghgWKxGD7+8Y83BABGI1ixYkX4xCc+UQ7ovO1tb2soduutt4b3ve99YXBwsOHaaBkPP/xwOYhTuf43f/M34YknnqicTvt3Ct6k2ULV6UUvelFIy9ktWLCgPBvpjjvuGLmcjlPQaZdddhnJG8/BkiVLwi9+8YvwqU99KqRxGC2lpfJSQGzu3LkhzQIaT0ozl9IeSfXBm/p7//znP5fH68wzz6wZg/pyzgkQIECAAIHmFWhr3qZrOQECBAgQIECAAAECBAgQaF2B008/PTN4097eHnbeeefyjJOsfWu+9a1v1SwlVhH8+te/PmrwJgVAstIBBxxQflbl2ljBjEqZjfmdtXzaIYccMvLIww47bOS4cpB1T+XaaN+pnykwM57+pjKf+9znGgJLo9V9++23l2dVjXa9Ov/xxx8PX/nKV6qzHBMgQIAAAQIzSMAMnBk0mLpCgAABAgQIECBAgAABAq0hcP/994cUwKlPaW+Wj33sY2HLLbcsX0ozZNL+LWnJs0pKy66lYM33v//9SlYYGBgIab+V+nTCCSeENKsm7aWTZubcdddd4be//W15v520TFi6Xp1OOeWUcl1/+MMfynu3VF9Lx2kGUH1Ke/RMRUozjFLbqlPaByjtRVNJKYCTlpKrTmkfnJNPPrk6a9zHqf5jjjkmHHTQQSEt1ZZm9CTXtDRadUp745x//vnhxBNPrM4e8zjtV5R8n//855dn5Fx77bUhLclWHzS67LLLys+dKscxG+UiAQIECBAgMK0CAjjTyu1hBAgQIECAAAECBAgQIEBg8gI/+MEPGn7IT0uEfeYznylvdF95wjbbbFPek+a4444Ly5cvr2SHNMvj5ptvDnvuuWc5LwU/0rJd9enQQw8tB29SfpqFs2jRovLn7W9/e0hBmnRenSp7vaRZQGmPlvp07LHH1mdN2fnFF18choaGaupL/asEs9KF5z73uWHrrbeu2eMnLUWWlkTba6+9au4dz8k//MM/hGRbSWm2TwqiveUtbwlpz6DqlGb6jDeA09XVFU477bSa/W1Svc973vPKy7ZV15uOU90COPUqzgkQIECAQPMLWEKt+cdQDwgQIECAAAECBAgQIECgxQTSrIv69PrXv74meFO5Pm/evJAVOFm8eHGlSEhlstIXv/jFkPbGyUppZkhHR37+XWiaSVOfUgCqPk3VMmrbbrtteN3rXldffXk/nSzv5Jj2xBlPesUrXlETvKnck+rN2q+neiwrZX0TIECAAAECzS8ggNP8Y6gHBAgQIECAAAECBAgQINBCAmk5rvSpTzvttFNYtWpV5mfhwoX1xcN99903ktfT05MZMEhLtb31rW8NH/jAB8LVV18d0vJreUzJ44Ybbmho2ngDOBdddFHD7J2Gyuoy0v4/WXsMpWLVy7ZVbkt2aQm68aRU92jp4IMPbriU6s2aQdVQUAYBAgQIECDQVAL5+acyTcWmsQQIECBAgAABAgQIECBAYNMIVAdeqlvwkY98pPp0vcdp2bTqlJb9OvXUU6uzRo5T8CZ9tttuu/DGN74xvPa1r82c7TNywwQOUr/+9m//dr13pn106pc7S7Nv6oNL22+/feZslf3226884ygFuyopLS+X9glKe9mMN2UFxSr3pmBaVnr00UezshvyNrTutFxb2nfnGc94RkNdMggQIECAAIHmFRDAad6x03ICBAgQIECAAAECBAgQaEGB9EP9VKT6PVpe+cpXhnvvvTd85zvfGbX6Bx54IHz5y18OZ511Vvj7v//7kLUc2ag3r+fCwMBAWLp06XpKhbB27dqGMlnLp6X+jRbUamtrXJAk7SOzIQGcOXPmNLSjkjHaknSrV6+uFBnze6J1C+CMyeoiAQIECBBoOgEBnKYbMg0mQIAAAQIECBAgQIAAgVYWSIGOjZVOPvnksPfee4evfvWr5WDOaM9ZtmxZ+OhHPxpOOeWUcMIJJ4xWbFryU9Dp9ttvb3hWamP6jDf9+te/Dn19feOeWVQsFketerSl1epnCY1Wwcase7RnyidAgAABAgTyJyCAk78x0SICBAgQIECAAAECBAgQIDCqwGabbZZ57c1vfnPo6urKvJaVueOOO2Zlh7THyotf/OJw6aWXhnPOOSfcdNNNmeVSMOIrX/lKSEuS7bLLLpllpiPzggsumJLH9Pb2ht/85jfh6KOPHld9WTOBKjeuWbOmcljzPd4ZMhuz7poGOSFAgAABAgRyLSCAk+vh0TgCBAgQIECAAAECBAgQIFArsOWWW9ZmPH326le/esoCKWmJsZe+9KXlzy233BJOP/30cnCj/sFDQ0PhZz/7WfjgBz9Yf2mDz1NwIwWh1pcWLFhQUyRr+bSaAhtwkpZRG28A58EHHxy15rTUXFYabwAn1f2CF7wgq4qQVXdHR0d5X5/MG2QSIECAAAECTSsggNO0Q6fhBAgQIECAAAECBAgQINCKArvttluYNWtWw14w11xzzZQFcKpdn/e854V//dd/Dan+tO9N/eySu+++u7p4+Xi0JcQaClZlPOtZzwof+tCHqnLWf3jzzTdnBjRSXZ2dnWNWkGa5PPnkkzVlrr766rBixYqw+eab1+Rnndxwww1Z2eW83//+9w3XUlBsp512asjPykh1pz2JslJW3TvvvHNWUXkECBAgQIBAkwsI4DT5AGo+AQIECBAgQIAAAQIECLSWQJptsf/++4crrriipuPf+973wqte9apxBR/q93pJM2nSp6enp6bO6pMDDzywXP+5555bnR2y9uTp7u6uKVM5eeSRR8LWW29dOZ30d5oxU5/a29vDD3/4w/XOSLn11lvDW9/61prbk8Ell1wSjjvuuJr8rJP77rsvXH755eGwww6rubxq1apw/vnn1+Slk0WLFoXxzsBJs4re9a53ha222qqmniVLloQbb7yxJi+dpCXvJAIECBAgQGDmCbTNvC7pEQECBAgQIECAAAECBAgQmNkCJ510UkMHly1bFk4++eRw1113NVxLGStXrgwp4PH+97+/vHdNdaE0E+WYY44JX/ziF8N1111XDuZUX0/Hg4OD4bbbbqvPbggypAKjLfOW9sypzHpJQaQUkPj1r3/dUOd4MorFYrjooosaiu67777rDd6km1JApT5AkvKzgkIpPyudeuqp4Uc/+lG5T6k9yecDH/hAePzxxxuKp72FxpvSfjzvfe97w1VXXRWSU39/fzlY9Hd/93eZVWxI3ZkVyCRAgAABAgRyKWAGTi6HRaMIECBAgAABAgQIECBAgMDoAgcccEB55keaAVKdbr/99nDiiSeGtMzadtttF9KyXatXrw73339/eOihh8Lw8HC5+Gte85rq28rHaeZIml2TPmkGTapj++23LwdD0rXrr78+pBk09emggw6qzwrPec5zQpoplGa0VKdLL700pM/s2bNDClKklGaPHH744eXjDfmPtJRYVqDk0EMPHVc1aZm3l7zkJeG8886rKZ+WLxvvTKG0nNznP//58qemkrqT5DmeWT3Vty1dunRcewsl6/3226/6VscECBAgQIDADBEQwJkhA6kbBAgQIECAAAECBAgQINBaAp/61KfCO9/5zoYZN6VSKdxxxx3lz0RF0oyPtL9M+oyVUpDnpS99aUORtEfPkUceGS688MKGaymjErzJvDjOzNFmyhxyyCHjrCGEFOypD+Akv7SEWf3yavWVzpkzp2E/oPoylfM0MyrtyzOelJaAS8GvNAbrS6ncxz72sfUVc50AAQIECBBoUgFLqDXpwGk2AQIECBAgQIAAAQIECLS2wNy5c8Ppp58ejjrqqA2GSLNPJpt23nnn8LWvfa0cbMiqKy0lNt49X7LuHysv7btz2WWXNRTZddddyzOPGi6MkpFmMqVgU30aLThUXe7Tn/502GmnnaqzMo/f8IY3hDe96U2Z17IyOzs7w7e+9a3yLKWs65W8FLz5xCc+Efbcc89Klm8CBAgQIEBghgkI4MywAdUdAgQIECBAgAABAgQIEGgdgTQL5Atf+EI47bTTwhFHHBHS+WgpzezYe++9w0c+8pHwoQ99qKZYCrSccsop5aW4urq6aq7Vn+y+++7hwx/+cDj77LPD1ltvXX955HybbbYJZ5xxRkj7s4wWMEoBl4ksn3bFFVeUl4YbedjTB+NdPq1yX1ra7EUvelHldOQ7zWC65557Rs6zDtJydGeeeWZI+xFluafl5z7zmc+UXbPuHy0v7Xmzyy67lH0PO+ywkMatPqV9flLwLu1bJBEgQIAAAQIzV6AQpwaXZm739IwAAQIECBAgQGBTCCxevDikT3VauHBhWLBgQXWWYwIECBCYYoFisVgOPKS9YdK+NWkPnJ6ennKgJe2Jk47Xl9LslrRnTtoHZu3ateV9bNJ9KciTAgvz5s1bXxUN11esWBHS/jzpOwVNtthii5ACPPPnz28om8eMFGRKewlVp7R02fHHH1/OGhwcDLfddlt49NFHy+Y77LBD2Wq0wFWlnmSSNTvnf/7nf0Zm96xcubK8HN7y5cvLs4XSsnVjBc4qdfsmQGD6BZYsWRLS3wfVKQV504xJiQABAhMRsAfORNTcQ4AAAQIECBAgQIAAAQIEciiQZmukH/jTZ6IpzcBJM2PSZ6rS5ptvHl74whdOVXW5qGdoaGikHWnZs7322mvkfLIH1XVvttlmYf/9959sle4nQIAAAQIEmlDAEmpNOGiaTIAAAQIECBAgQIAAAQIECBAgQIAAAQIECMxsAQGcmT2+ekeAAAECBAgQIECAAAECBAgQIECAAAECBAg0oYAAThMOmiYTIECAAAECBAgQIECAAAECBAgQIECAAAECM1tAAGdmj6/eESBAgAABAgQIECBAgAABAgQIECBAgAABAk0oIIDThIOmyQQIECBAgAABAgQIECBAgAABAgQIECBAgMDMFhDAmdnjq3cECBAgQIAAAQIECBAgQIAAAQIECBAgQIBAEwp0NGGbNZkAAQIECBAgQIAAAQIECBAgMG0CRx55ZOjr66t53o477lhzPpGTzTbbLBx99NENt86bN68hTwYBAgQIECDQegICOK035npMgAABAgQIECBAgAABAgQIbIDAqaeeugGlx190wYIF4XOf+9z4b1CSAAECBAgQaCkBS6i11HDrLAECBAgQIECAAAECBAgQIECAAAECBAgQINAMAgI4zTBK2kiAAAECBAgQIECAAAECBAgQIECAAAECBAi0lIAATksNt84SIECAAAECBAgQIECAAAECBAgQIECAAAECzSAggNMMo6SNBAgQIECAAAECBAgQIECAAAECBAgQIECAQEsJCOC01HDrLAECBAgQIECAAAECBAgQIECAAAECBAgQINAMAgI4zTBK2kiAAAECBAgQIECAAAECBAgQIECAAAECBAi0lIAATksNt84SIECAAAECBAgQIECAAAECBAgQIECAAAECzSAggNMMo6SNBAgQIECAAAECBAgQIECAAAECBAgQIECAQEsJCOC01HDrLAECBAgQIECAAAECBAgQIECAAAECBAgQINAMAgI4zTBK2kiAAAECBAgQIECAAAECBAgQIECAAAECBAi0lIAATksNt84SIECAAAECBAgQIECAAAECBAgQIECAAAECzSAggNMMo6SNBAgQIECAAAECBAgQIECAAAECBAgQIECAQEsJCOC01HDrLAECBAgQIECAAAECBAgQIECAAAECBAgQINAMAgI4zTBK2kiAAAECBAgQIECAAAECBAgQIECAAAECBAi0lIAATksNt84SIECAAAECBAgQIECAAAECBAgQIECAAAECzSAggNMMo6SNBAgQIECAAAECBAgQIECAAAECBAgQIECAQEsJCOC01HDrLAECBAgQIECAAAECBAgQIECAAAECBAgQINAMAgI4zTBK2kiAAAECBAgQIECAAAECBAgQIECAAAECBAi0lIAATksNt84SIECAAAECBAgQIECAAAECBAgQIECAAAECzSAggNMMo6SNBAgQIECAAAECBAgQIECAAAECBAgQIECAQEsJCOC01HDrLAECBAgQIECAAAECBAgQIECAAAECBAgQINAMAgI4zTBK2kiAAAECBAgQIECAAAECBAgQIECAAAECBAi0lIAATksNt84SIECAAAECBAgQIECAAAECBAgQIECAAAECzSAggNMMo6SNBAgQIECAAAECBAgQIECAAAECBAgQIECAQEsJCOC01HDrLAECBAgQIECAAAECBAgQIECAAAECBAgQINAMAgI4zTBK2kiAAAECBAgQIECAAAECBAgQIECAAAECBAi0lIAATksNt84SIECAAAECBAgQIECAAAECBAgQIECAAAECzSAggNMMo6SNBAgQIECAAAECBAgQIECAAAECBAgQIECAQEsJCOC01HDrLAECBAgQIECAAAECBAgQIECAAAECBAgQINAMAgI4zTBK2kiAAAECBAgQIECAAAECBAgQIECAAAECBAi0lIAATksNt84SIECAAAECBAgQIECAAAECBAgQIECAAAECzSAggNMMo6SNBAgQIECAAAECBAgQIECAAAECBAgQIECAQEsJCOC01HDrLAECBAgQIECAAAECBAgQIECAAAECBAgQINAMAgI4zTBK2kiAAAECBAgQIECAAAECBAgQIECAAAECBAi0lIAATksNt84SIECAAAECBAgQIECAAAECBAgQIECAAAECzSAggNMMo6SNBAgQIECAAAECBAgQIECAAAECBAgQIECAQEsJCOC01HDrLAECBAgQIECAAAECBAgQIECAAAECBAgQINAMAgI4zTBK2kiAAAECBAgQIECAAAECBAgQIECAAAECBAi0lIAATksNt84SIECAAAECBAgQIECAAAECBAgQIECAAAECzSAggNMMo6SNBAgQIECAAAECBAgQIECAAAECBAgQIECAQEsJdLRUb3WWAAECBAgQIECAAIERgcf6QvjaTcWw+LFSGBwujOQ7IECAAAECBJpb4AXPDOGDe7WH7ec2dz+0ngABAq0uYAZOq78B+k+AAAECBAgQINCyAt+6eThcsywI3rTsG6DjBAgQIDBTBW58PIQv3jg8U7unXwQIEGgZAQGclhlqHSVAgAABAgQIECBQK3DnilJthjMCBAgQIEBgxgjcttx/z8+YwdQRAgRaVkAAp2WHXscJECBAgAABAgRaXaDoH+a2+iug/wQIECBAgAABAgQI5FhAACfHg6NpBAgQIECAAAECBAgQIECAAAECBAgQIECAQGsKCOC05rjrNQECBAgQIECAAIFMAYutZLLIJECAAAECBAgQIECAwLQLCOBMO7kHEiBAgAABAgQIECBAgAABAgQIECBAgAABAgTGFhDAGdvHVQIECBAgQIAAAQIECBAgQIAAAQIECBAgQIDAtAsI4Ew7uQcSIECAAAECBAgQIECAAAECBAgQIECAAAECBMYWEMAZ28dVAgQIECBAgAABAgQIECBAgAABAgQIECBAgMC0CwjgTDu5BxIgQIAAAQIECBAgQIAAAQIECBAgQIAAAQIExhYQwBnbx1UCBAgQIECAAAECBAgQIECAAAECBAgQIECAwLQLCOBMO7kHEiBAgAABAgQIECBAgAABAgQIECBAgAABAgTGFhDAGdvHVQIECBAgQIAAAQIECBAgQIAAAQIECBAgQIDAtAsI4Ew7uQcSIECAAAECBAgQIECAAAECBAgQIECAAAECBMYWEMAZ28dVAgQIECBAgAABAgQIECBAgAABAgQIECBAgMC0CwjgTDu5BxIgQIAAAQIECBAgQIAAAQIECBAgQIAAAQIExhYQwBnbx1UCBAgQIECAAAECBAgQIECAAAECBAgQIECAwLQLCOBMO7kHEiBAgAABAgQIECBAgAABAgQIECBAgAABAgTGFhDAGdvHVQIECBAgQIAAAQIECBAgQIAAAQIECBAgQIDAtAsI4Ew7uQcSIECAAAECBAgQIECAAAECBAgQIECAAAECBMYWEMAZ28dVAgQIECBAgAABAgQIECBAgAABAgQIECBAgMC0CwjgTDu5BxIgQIAAAQIECBAgQIAAAQIECBAgQIAAAQIExhYQwBnbx1UCBAgQIECAAAECBAgQIECAAAECBAgQIECAwLQLCOBMO7kHEiBAgAABAgQIECBAgAABAgQIECBAgAABAgTGFhDAGdvHVQIECBAgQIAAAQIECBAgQIAAAQIECBAgQIDAtAsI4Ew7uQcSIECAAAECBAgQIECAAAECBAgQIECAAAECBMYWEMAZ28dVAgQIECBAgAABAgQIECBAgAABAgQIECBAgMC0CwjgTDu5BxIgQIAAAQIECBAgQIAAAQIECBAgQIAAAQIExhboGPuyqwQIECBAgAABAgQIECBAgAABAq0iMLx2ZRi686qG7nbufkgo9MxtyC+VSqH451vC8MploW2zrUL7ts8LhUKhoZwMAgQIECBAYMMFBHA23MwdBAgQIECAAAECBAgQIECAAIGmECgNF0MYGgihs2dcgZXSiodD748/2dC3ee89O7TXBXBKxaGw+r/eF4pLbxgp377jPmHuW78ZCm1+chpBcUCAAAECBCYo4L9NJwjnNgIECBAgQIAAAQIECORJIP2QuuYHp0xZk7oPPDF07nLASH0DSy4IAzdfNHKeDgpds8Oc1/9LTd5ETkql4bDmnI+OemvXni8LXXsdM+r1+gul/jVhzXmnhhBnBmSlrn1eHboWHZ51SR6BphcoLrsnDNx6cRi69/owvOzuUIozasqp0BYKc7YI7VvtGtq3f37o3O0loX3honEFdUZDGbr7mprgTSqXgjlDd10bOnc/eLTb5BMgQIAAAQLjFBDAGSeUYgQIECBAgAABAgQIEMi1QKmYuezRRNvctceRNbcWH1vaUH+hu3E5pZqbxnsSAzhZSzZVbk8/QG9IAGfwjivDUPyMljp22ne0S/IJNK1A8fH7wtoL/230dz/+OSutfjwMpc8914X+y08Pbc/cIaRgbff+x02o36XeJzPvK61dkZkvkwABAgQIENgwAQGcDfNSmgABAgQIECBAgAABAgSmWaD4wM1hOP7o3Db3meN68uCtl46rnEIEZorAwE2/CL0//0IIg30b1KXhGPRJ+9eECQZw0n43odAeZ7vFZdoqKS6d1r7dnpWzGfO9+pyPhOHH7y/3p33bPcKc131yxvRNRwgQIEAgvwICOPkdGy0jQIAAAQIECBAgQIAAgbJAKQzefkXo3u+16/UoDawNg3f9dr3lFCAwUwT6r/9JWPuzz8fuZC8ZuL5+du27/j9Xo9XRPn/nMPuEz4b+354TSquWhcJmW4Weg94S2uPMnpmUinEpuupZfeMNJs8kA30hQIAAgU0jIICzadw9lQABAgQIECBAgAABAlMrEPe3aJu/S3adcemk4cfubbhWmDc/FHrmNeSnjNHyMwtPQ+bg7b8ZVwBn8M6r4obt/dPQIo8gsOkFhuLstLU//2JsSFbwphD3utkrdGwb97np2SwMx+XO0myb4oN/HJkxk/7O6Ij74UwmdS06Iu4pdcRkqsj9vQM3/Tz3bdRAAgQIEJiZAgI4M3Nc9YoAAQIECBAgQIAAgRYTKLR3hs1OPiez16WB3rDi840/sPYc+vYJ732R+aCpzGzviruhD4zUOPSn34c0u6bQNWskL+ugYfm0uJxTGB7KKrrJ80ql0qQ2kN/kHchBA1rZsBQDs2v/9//LfL/btn52mPPaT4b2bXZrGKXhVY+FgThrJ83c6d73NQ3XZdQKlIaLYWDJr2oznREgQIAAgWkSEMCZJmiPIUCAAAECBAgQIECAAIHxC3TufnAYvO2ydTfEWTWDd18z5r/0L8X9PwbvvHrdPfGo87mHhcFbL6nJG+9J8eE7wsDNF8YN338Xhlc8Esobs3f2hLY5W8Q9Pp4fOp9zSOjc48gYhGlbb5VpD5+BJReUN48vLrsn1rXyqZlCnbPKe/u0bZVmQuwdOnc7KLTH49FS8ZG7wsAffhmG7lsS9+NYGkp9q+NsiuEY2JodCs/YJt67a+jYaf9yPW3znjVaNSP5U9HH4ScfCmsv/tZInaGtPcx+7amhEL9TGrzjqrJj8f7Y5uhQbm807Ij7pHTt/arQuftL1t07xlEK4A3cfFEYirOsig/fHobXLH9qz5fY97a4dFfbFtuWHbKqSM/qPvCNWZfKbRq48edxbK4Nxceiaao3jmlh9ublAEjnrgeGrhf8RSh0z8m8v5LZ+9N/iUHGdXvQ9Bz13tAe25RSKb6//b/7URj8w69CWo4rFIfiOO0b5v7Vv1du3+DvwVsuCcVH7my4r+1ZO8V6/yO0zdqs4VrKSO9Fz2HvCN2HvC0Gf6r2rsksPXZmw9g/XXzW0R8oj8lYd5f/TGwM99i3tLRbSsWH7wwDN/1v/Lvj2jC8clkIcXwKs+bFcd29/HdD1z7HhkJH96jNTH+n9F32f0Np9WM1ZYqP/ims+Z9/rslLJ8m18uyGizIIECBAgMAEBARwJoDmFgIECBAgQIAAAQIECBDYuAKFWZuHtq2eHYaX3TXyoLSM2lhLNZX3vhlcO1K+EH/ATpusb2gAJwVFen/xxfhj+4WxrrqlqeJspuH0Wf7neP2Xoe2ZO4bZx30qdCxcNPLc+oP+a38Q1l7yHzHYsK5tI2Vi3vDyB8qfodi/vou/EdoXxg3S3/D50Lb5NiPFSkMDYe0vvhQGbvhZzKtrU8rpXx1KMbgzHD8pSLA2bizfueiwMPv1n8uc5TOVfSz1rQqDt1w00tZ0UNz/deUl/Xp//IkYcKkNqqXrpfhjepotlT4dux8S5hz/6VGDL6l8Gtven8QASd0P6elaSOMRlwjMWiawfD39R5yFVR/ASbN3+q/4bui78synAkEjhZ86KK16NAylT2x/3+WnhVkv/9sYcHplXal1p4O3XlYeh0pOx877hfb9XheGn3wwrD77I2H40Xsql576fjrAVZs5/rOBxT/OKFwIs1/9T6MGb6pvKAfYJtmGrLFPz+g59K9DiEG1rLSx3VMANAWx+i75Vui/+uz4stUGqUpxKbmhe64rf9KfzTknfiVzz57BO64May/4Snn86vtR6l3e8M6nMt3xvQ9PB4/q73FOgAABAgQmIrD+fyY0kVrdQ4AAAQIECBAgQIAAAQIEJiFQGlgT/4X8oTU1pE3E03JGo6X65dM6nxPv38Dl09KsgFXffXc5CJIVKKl/dpoFs/q77wmDcYm3rNR/7blh7S//NTt4k3VDzBuOQYNC3eyZ3vNOjcGbn8arjcGbzGrSj9YxiFMoFBouT3UfGx4QMwZuuTj0nvsPmcGb+vJDd1xRDs7U51fO075Ga875SHbwplJoA7/Te9T7o4+XZ1eEOMtifSnNmOo9/1NPBXvWV/jp60NLb4yzhJ4Iq05/V2PwJpYpzH7GOGtqLJYCcKn++pRm9XTEfW/ymqbDPQVeysGbq/6rIXhT7zL8+H1hzff/Ngbe1tRcKs+wie9cCr5JBAgQIEBgUwoI4GxKfc8mQIAAAQIECBAgQIAAgUyBUn9vXFrrkJpr6Uf04n2NP1qnQmmGSvrhtjql5c3SEkjjTWlPkRQoGU5LXNWntNRZnBFUyJpVEJfH6o3LKZWXB6u6Lz177aVx5s1oKe5blJW646yNQtq75+k0tPSG2uXkKhfSd1q+bZRZFN0HvL66ZPl4qvvY8ICnMwau+2EYunfxaJcb8tMsqaH7bmrIT4a9P/t8jGrVBu7attw+zDr2H8OcN/1b6HnZ+0OhZ17DvWkGVmecMTP7NR8Ps17x4Zrr/b/5TuYMihT0SrM3Uv0Rt+aedNIXZ1Kl5bjGk1L/e8/7xKiBp0JcRm6iqWxVN7Mk1dX5vJdOtMppuW863It/viX0p+DNOFOaAZcCrTUp/l0gESBAgACBPAis+1+EeWiNNhAgQIAAAQIECBAgQIAAgSQQ9ztpj8uSFebND2kpq0pKy6h17LRf5XTkeyjuj5OW0qqkQvfc0LHLC8PQKDNjKuWqvwdv+kVm+Z7D3x26D35L3Cujq1x86IGb4+yNGLCJe79UUlpSqf+qs8rLbFXyyj+yV7Wpkp8CCp17Hl2uL/3L/6EHbwuDf7w8DMb9dtLMiq79XlspWv5Oe//UpzR7Y84bvxT34tkzXirEfVueCENxj5nBuEfM4O1XxKXddggdO76g/rYw1X1seEBGRueiI+J+QYeWZ5wMP3F/6Lv6e+Ul1OqLpj2COnbYuyY79aV6/NPFNLZz33l6XCZs83LZzmcfWN5PJ82Eqk6p3OxX//PIXjyVa8XUht98t3I68t353MPDrL/4+7jH0ZblvLTvUdrXJi23tS6V4jJ33wqdu75oXdYoR5Ul2Ea5PNL+0a6PlZ9miGSl9m33yMrORd50uVd3Ni1H2PWCV4W2ZyyIf0aeDP2LzwvF+Oe3PqV3r7zs29MX0p5K6c9pSv03/m8oxiBqdUpLJ/a85K3VWeXjFPyTCBAgQIDAVAoI4EylproIECBAgAABAgQIECBAYEoE0syLtPxX2uC+eq+PwT/+piZIUnnYQNxLpTp1xOXXCnGGS5qZM97Uf81/NxTt3OOo8sbk1Rc6YtBk9us+FZdOe3d1dui//qdPzQZ5evZM2mujIaW9aWKdlWBQoXtO6Nx5//KndPQH46brt4e2uc+suS398Fyf2rbcrmaprEK8J+0PlD7DcaZSaVXtpuuV+6e6j5V6R/uedcxHQ/cLT6i53BHHdNW/nxhCnLlUndLMifpUfOAP9VnR74iG4EfHDi8oB63SkliVlJa/KsZZPWlZserUH2cH1e+L0rb5gvJeRoXOnpGibZtvHeac8Lmw8hsnhBSgq6Q0RkOxrR1xf6Xxprb5u4Seg94cOuJYl5fHi/vv1Pd/vHWlcsMrH84s3h4Dd3lN0+2eZiPNPv4z8e+RdYvPdO75srDqtL8u7xVV7ZSWQkz7+VRmcqXvrhf8RblICsQ2BHDSn7enr1fX45gAAQIECEy1wLr/FpvqmtVHgAABAgQIECBAgAABAgQmKFB6+sf98j42VXWUf5R/5K6qnPRb/GBI++NUp65FRz51Gq+NJxWfeCAUH7mzoWj3QW9qyEsZaaZIe/0P+HG2TfGh20fKV34MHslIB3HZqzU//MfyPjc1+fGk0N6RGRQozGpcHizNIlh7yb9nLhHXFpcOSxu516eN0cf6Z1Sft2+9W0PwJl1v32Lb8oyc6rLpuH4JunJeRhAsBVuyUtvm2zRkpz7Xp8HbLqvPCl0HHB+qgzeVAuUf8vd56of8Sl76Hrr3+urTMY/TOzzv3Wc+NRMkBoUKccm7NNYpeDfhFJcYbEgxUFHomt2QnZeMaXWPwdu0bF518CY5pMBp9/7HZ5IMr34iM18mAQIECBDYlAICOJtS37MJECBAgAABAgQIECBAIFvg6cBLmrEQ6n6UTsuoVae0xFX61/MjKf4w3lFZ4qpu75SRMnUHWTM9yvuhxKBAqjvrk2bB1KfqGSDl5ayq/vV/pezQXVeHlV8/vry3S1bQqFKu8t2+bVomrTH1X3lmWPlvrwt9vz4tBoSyZ9xU37Ux+lhdf/1xWpJstNS+9bMbLpXisnn1KSsIVhpYU1+sfF7KWK4uBUuq0/DKZZnLt6WZK1ljnPKyAkbV41xdf/1x2odn9ms/MTLjqv76RM/TXkYNaZQ9lRrKbYKM6Xbv2H6vhplslW6nwGJWynp/ssrJI0CAAAEC0ylgCbXp1PYsAgQIECBAgAABAgQIzHCBVae/I5TWVgVTMvrbvf9xofvAN2ZcqcpKS0zFlP7FfNpvpPpf76cATs+hbx8pPFi3fFpadq2yRFl4up6RwqMcFKuW3hopEmfLrPzKK0dOx3NQ6l0xUqwt7lOTllkauOGnI3kjB3GG0cD155c/7XE2T8+L3xQ60j4xcdm4+tS5+8Ghbf7OYThj35O0903f5d8OfVd8Jy4tdmToPugtoWPBc+qrKJ9vjD5mPujpzLaMIE2lfFZgJmusspYEG1p6Y6Wake+0d1Bx2T0j55WDtBdQdco0iAXW/OCU6mLrPS6tXTfOYxXufO5hcVmuuWMVCQNLfhn35PnOmGXSxXknnzOyn0/m7J34TpWGh2KZ/P3UM93uY797Y4/HegdCAQIECBAgMI0C+ftv9WnsvEcRIECAAAECBAgQIECAwNQKDD9+fwzgjP3j9nDGslgNragKvKQlqKoDOMUH/xj3AFkW0kbj6Qfr+hk5XXGPmQ1NaabFVKTK0m+VumYd85EwvOLhkGYJjZbSPi1r4ictyTb71f/csPxZ2stnzhu/FNac9f5Y10PZ1cSZRoM3X1T+dO51THn5qLSUWnXaWH2sfkb1cdu8Z1Wf1h5nBKpqCzx1lvYsWXvRN0KoWgov7ZXTd/X3ynvKpFJpn6PeX3wphLoZOIV580P7drX71JTi/kBTkUqDtfv3jFZn2ux+fSmNS9qDZf3pqaBmKpcZAIv5ab+k8h47669sWktMu3vdPlI1nR3nu1dzjxMCBAgQILCJBCyhtongPZYAAQIECBAgQIAAAQIExifQEWegpOXM1qXSSNBm6E+LY8Co6kf5uNxax7MPXFd0vEcxCLAxUtpXZc6bvhZ6jv5QSMtpjZVSYGL1d94VhuL+NvWpfcvtw9z3nBW60v4d65lhMbjkgrD6u+8JDYGyjdTH+rZWzgud3ZXDCX+3zdkydB/8lob7+2JQZ8WXjwmrvv22+P2K4cE4fQAAQABJREFUMPiHXzaUmfWyDzTsgRKm3aCnoV1TkdG22daZ1RSX3Z2Zv8kzZ4j7JnfUAAIECBBoOQEzcFpuyHWYAAECBAgQIECAAAECzSXQNmvz0BGXGRtaum7j+DTrpvuA14eG5dN2Ozgun7bhgYOsGQ2FGDzo2vc1G4TVsf3eDeXTPiw9Lz4xdO/76tB//U/DwHXnhuEnH2wolzJK/atD748+Hua979wYs+qsKZNm1Mx+1SmhJwY0+mMdA7GuVD4rDT96T1j7y6+GOcd9auTyxuzjyEOqDzL2/6m+PN7jnsPfHfu5Jgxce268Zd0slLR8XDF+GlJ8bs9R/yd0Pf/oxkuz5jXkpYzuuIRdiMv1jTdlLe023nunolz7tosyqxn60+/LSw5mXtyEmYXpdp+id28Tknk0AQIECBAoCwjgeBEIECBAgAABAgQIECBAYMoEul74+riUVd+Y9aVgzIamjuccUhPASTNvhuNSbYN/vLymqrQPzERSCtY0pLiM26wj/6Yhe6IZad+SciDnwL+MS8L9OvTHfU+Kj9zZUF0K7gzdfV1Ie99kpbZnLAizjv5g6Dn8XaF/8fmh/6r/iktnNQYyBm+5OJRe+dGR5bamo49Z7Z1sXtoXaNZL3xeGl/85DN1x5ejVxR/tO3Y5ILq8O3Rst2dmuUyDWLJrn2NDe9xnaFOk9m12fyqAtL6HVwUl2tP+QnF2Vxis/bM28IdfhZ4j3t0Q/Ftf1Rv7eh7dN3af1U+AAAECBKZCQABnKhTVQYAAAQIECBAgQIAAAQJlgVnxx/ONkdI+OH0X/tu6quPeN30X/3so9S5flxd/0O7c7aB15xtw1LH98xtKp7qLD98R0g/sU5kK8Yf4rhho6lx0eOi/+vuxH99sqD4thTVaAKdSuBCXi+t58UlxZs9rQu9PPxtnI11SufTUdzQqPrZ0JJgxnX2sbcjkzobjEnlrvvfBUHzw1qcqau+KQYr3hBD7F+LePykw1rbldnEPoT1CWnJtrNS+9W4x8DErBj7W1hQbuvvaTRbASQHNDQ1qFuIyeilYOXjTL2r6UVr5SOi/8qzQc9g7avI39Uke3cdtYs+ccVMpSIAAAQJTL2APnKk3VSMBAgQIECBAgAABAgQITLFAe/yBvm3+LjW1Dlx/fs15Ct6kPWcmktoX7hFnqjTuUbP20v8IpTgTZzypVDcbojTQO+a9KZCTlkOr71f5WcXBkUem5cPGSimAMSsurZaZqurZGH3MfOYUZ/b9+j/XBW9i3V17vSK6vTn0HPK2cqCi+8A3xmDXS9YbvEnNKrR3hI6d92toYd/V3yvP6Gq4kJFRP84ZRaYlqzvth5SR+n797bjE3g/HfPfSbWmPpIG4X9J0pKZ2z1iScXjlsulg8wwCBAgQIBAEcLwEBAgQIECAAAECBAgQINAUAp1xGbWxUueiiS2flupMPzCXl3+re8DQnVeH3h9/IgyvqZrpU1WmuPzB0H/Nf4eV/3FSXBbtsqorcZJHXO5r1TeOD32Xnx5n8jQulZYKpx+Ch+OsifpU2Gyrkay1cYbOqu+8O/T/7n/C8IrGsqlg8f4lI+WrD6rr2Rh9rH7Wxjou3v+HmqrTPi9pD6RkkWbnlPpWPf1ZHUrFOCtnPan7wBMbSpRWPRrWnPX+kGY+ZaX0nLQ82eo4EyjtLZSHlJaJSzPTGlMprL3gy2H1aX8d+n57Thi857ow9OBtYejexWHgxv8Na+NMtlXf/uuw8suvDL3/+4XG2zdSTrO6Z83qGl7+QOi74oz4vj0VaE3vx2D8u2LogZs3kp5qCRAgQKBVBSyh1qojr98ECBAgQIAAAQIECBBoMoH0Y3X/lWdmtzr+K/n1LTmWfeO63LQc2eBNF8TAwEPrMuPRYPzhfvDWy+ISXYtC27z5MVoyFErxB9vi40tDafXjNWXrT9K+LWkGSfqkGT7tC54T2jbfurx/SWnVY+Uf10OcqVOT4syczl1ftC4rzgAq3n9TWJs+v/hSKGy2dXlZt7a5z4yRp0IYfuKB+OP89evKP33UtuX2oX2LbWvyN0Yfax6wEU7S8mjFh/44UnPaI2jNf//dyHn9Qdl54XND555Hh669jwlpubHq1Lnz/uXARwoCVafiw7eHVf/xppD2l0nPjDeGUv/qsu/wk/GdKA2Xi3ft8+rq2zbp8axjP1YOGmTtgVSMQZv0yUtqVve0NF9W6ouz8/ou+88QYvA3DPWXi/QcdfLIkoVZ98gjQIAAAQIbKlD7v2I29G7lCRAgQIAAAQIECBAgQIDANAm0b/u8UIhBi6ygSeezXxzSnjCTSYWeeWHOG78UVp0R91epX7asOBCK990UipN4QKlvZRj60+/WW0PX/seFtqoZOPU3pH1OhjJm7dSX6znyvfVZMYi0cfvY8MApyOiJ+yoNxVkkKWg2nlR2TrNO4mfg9+eFOW/+WmibtXnNrbNf98nyrKbhZXfV5McoTSg+cmf5U3chl6dpdsjcN389rP7+h+Kfi8dy2cbqRjWje1pyrxADt2mWVkMqxb8Rhibzt0JDjTIIECBAgECNgCXUajicECBAgAABAgQIECBAgEBeBQpxtknn7odkNi9t6D4VqX2b3cK8d50R2rZ69gSqK0zgntpbOhcdEWa9/EO1mRt6VmgPPS99f+h63lGZd27qPmY2aozMtmduH/vzvhDqZtKMccvIpeKDt4be8z8zcl45SPsGzXv7f4YJvTc529S+PJ7v+Hbc2+eASvdy+92M7mkG1+xX/X1aZzG3rhpGgAABAjNXwAycmTu2ekaAAAECBAgQIECAAIEZJ5CWURu4/vzafrV3lTexr82c+Fn7M3cI895zVhi8+aLQv/i8UHzglrhZzSh7q8RZPx077Re69jomdC46rOahKb/70Lc/tV/LI3fHa6Wa6yMnbe3lOroPeH3ofG5tHanMU5vVl8LgXdeE0oqHR25rOIhtST49B705LrG2W8Pl6oyp6mN1nRvjeGjpDaH3Z58Lw4/fN+Hqh+64IhSfuD+0xyXlqlMKJsw54fNh6L4bQ3/aKybNjqqfeVW5IY5R+7Z7hq4YKOx6wV9UcnPz3faMhWHuW78ZBu++Nv75+EmcffS7uC/QKDOW4tJw7VvtGjp2fWFcZu7l096HZnRP+2/NedNX4/5BXw+Ns7YiYfozvP3ecfm050+7pwcSIECAwMwWKJRimtld1DsCBAgQIECAAIHpFli8eHFIn+q0cOHCsGDBguosx5tY4MSLiuHRvtpGpP9zMPk5BLV1OiPQ7AKlwb7y5val3ifjnihr4p4XnSH9CN32jAXlT/0eK1n9TfcVYxAiLf+W6gvx/4qnJd8K854V2ufvFApxD5/xpOF4f9rzptyWtO9GnB2Q6mnbYmF535ZC/HF+Imkq+jiR5451T9rXZ/X3PhD3HHpqo/hUthCXDOuOS8y1b7N7XA5u7sjtpbQvUbQZundxGLjx5zG/9qeO2cd9OnQ9f+xgRWm4GIYfvScMr34iBj9WxYe1hUJnT3k5u7QnTjpullSK+/UMPxb3aFrzRBjuXfH0+zYr9mV+fFdiX7pm5aYrzeZeXP5gtP1T/Lugt/wOFuZsUd5rKi1PmMd08bFmDk3nuCxZsiQMDq77Oys9+6STTgpz5677+2o62+NZBAg0v4AZOM0/hnpAgAABAgQIECBAgAABAhtRIP1w3xH335lMSgGfjoWLJlNF+d62uAdQ+kx1moo+TnWb1v7qq7XBm7gPybx3fTe0xe/RUtferyzvk9R/5Zk1RcqBt5qcxpNCmmWz9W7x03it2XJSIK99/s4hpE/OU7O5t8dgafpIBAgQIEBgOgQm9k9zpqNlnkGAAAECBAgQIECAAAECBAi0pECaNVJ8+I6avncuOnzM4E2lcPszd6wcjnynmTsSAQIECBAgQKDZBARwmm3EtJcAAQIECBAgQIAAAQIECMx0geJAQw9Lqx5ryKvPKA30hv7rzq3NjpvPd2y3Z22eMwIECBAgQIBAEwgI4DTBIGkiAQIECBAgQIAAAQIECBBoJYHyjJm47Fx1GrztsriJ/L+F4ScfrM4uHxeX/zn0X3tuWPXvJ4XiQ3+sud65x5Fx5s6zavKcECBAgAABAgSaQcAeOM0wStpIgAABAgQIECBAgAABAgRaSCDti9K972tC/2/Prul1Ok+fQvfckDaPD8WhMLzmiRCG+mvKVU4Km28TZr3yo5VT3wQIECBAgACBphIQwGmq4dJYAgQIECBAgAABAgQIECDQGgI9R7wnDD14WyguvaGhw6X+1SF9xkrtO+wd5pzw+dA2+xljFXONAAECBAgQIJBbAQGc3A6NhhEgQIAAAQIECBAgQIAAgdYVKHT2hLlv+Wbov+ac8qybUppps74UZ+507LhP6DrghNC16PD1lXadAAECBAgQIJBrAQGcXA+PxhEgQIAAAQIECBAgQIAAgdYVKLR3hJ6D3xK6Xxz3tnng5ri/ze1hePkDcfbNmlCKy6elIE+ha1Zoi0ultc3fOXRsu0co9MxrXTA9J0CAAAECBGaUgADOjBpOnSFAgAABAgQIECBAgAABAjNPIO2J0xGXREsfiQABAgQIECDQKgJtrdJR/SRAgAABAgQIECBAgAABAgQIECBAgAABAgQINIuAAE6zjJR2EiBAgAABAgQIECBAgAABAgQIECBAgAABAi0jIIDTMkOtowQIECBAgAABAgQIECBAgAABAgQIECBAgECzCAjgNMtIaScBAgQIECBAgAABAgQIECBAgAABAgQIECDQMgICOC0z1DpKgAABAgQIECBAgAABAgQIECBAgAABAgQINIuAAE6zjJR2EiBAgAABAgQIECBAgAABAgQIECBAgAABAi0jIIDTMkOtowQIECBAgAABAgQIECBAgAABAgQIECBAgECzCAjgNMtIaScBAgQIECBAgAABAgQIECBAgAABAgQIECDQMgICOC0z1DpKgAABAgQIECBAgAABAgQIECBAgAABAgQINIuAAE6zjJR2EiBAgAABAgQIECBAgAABAgQIECBAgAABAi0jIIDTMkOtowQIECBAgAABAgQIECBAgAABAgQIECBAgECzCAjgNMtIaScBAgQIECBAgAABAgQIECBAgAABAgQIECDQMgICOC0z1DpKgAABAgQIECBAgAABAgQIECBAgAABAgQINIuAAE6zjJR2EiBAgAABAgQIECBAgAABAgQIECBAgAABAi0jIIDTMkOtowQIECBAgAABAgQIECBAgAABAgQIECBAgECzCAjgNMtIaScBAgQIECBAgAABAgQIECBAgAABAgQIECDQMgICOC0z1DpKgAABAgQIECBAgAABAgQIECBAgAABAgQINIuAAE6zjJR2EiBAgAABAgQIECBAgAABAgQIECBAgAABAi0jIIDTMkOtowQIECBAgAABAgQIECBAgAABAgQIECBAgECzCAjgNMtIaScBAgQIECBAgAABAgQIECBAgAABAgQIECDQMgICOC0z1DpKgAABAgQIECBAgAABAgQIECBAgAABAgQINIuAAE6zjJR2EiBAgAABAgQIECBAgAABAgQIECBAgAABAi0jIIDTMkOtowQIECBAgAABAgQIECBAgAABAgQIECBAgECzCAjgNMtIaScBAgQIECBAgAABAgQIECBAgAABAgQIECDQMgICOC0z1DpKgAABAgQIECBAgAABAgQIECBAgAABAgQINIuAAE6zjJR2EiBAgAABAgQIECBAgAABAgQIECBAgAABAi0jIIDTMkOtowQIECBAgAABAgQIECBAgAABAgQIECBAgECzCAjgNMtIaScBAgQIECBAgAABAgQIECBAgAABAgQIECDQMgICOC0z1DpKgAABAgQIECBAgAABAgQIECBAgAABAgQINIuAAE6zjJR2EiBAgAABAgQIECBAgAABAgQIECBAgAABAi0jIIDTMkOtowQIECBAgAABAgQIECBAgAABAgQIECBAgECzCAjgNMtIaScBAgQIECBAgAABAgQIECBAgAABAgQIECDQMgICOC0z1DpKgAABAgQIECBAgAABAgQIECBAgAABAgQINIuAAE6zjJR2EiBAgAABAgQIECBAgAABAgQIECBAgAABAi0jIIDTMkOtowQIECBAgAABAgQIECBAgAABAgQIECBAgECzCAjgNMtIaScBAgQIECBAgAABAgQIECBAgAABAgQIECDQMgICOC0z1DpKgAABAgQIECBAgAABAgQIECBAgAABAgQINItAR7M0VDsJECBAgAABAgQIEJgZAkP33RSGlt4QQnFwZnRILwgQIECAQHtn6Nhxn9Cxw94sCBAgQIDAlAkI4EwZpYoIECBAgAABAgQIEFifQN+vvx36Lj9tfcVcJ0CAAAECTSnQc/i7Q89h72jKtms0AQIECORPwBJq+RsTLSJAgAABAgQIECAwYwX6r/vhjO2bjhEgQIAAgf7rzoVAgAABAgSmTEAAZ8ooVUSAAAECBAgQIECAwPoESmtXrK+I6wQIECBAoGkFSr1PNm3bNZwAAQIE8icggJO/MdEiAgQIECBAgAABAgQIECBAgAABAgQIECBAoMUF7IHT4i+A7hMgQIAAAQIECBDY1AI9h71zUzfB8wkQIECAwIQE7Os2ITY3ESBAgMA4BQRwxgmlGAECBAgQIECAAAECG0eg5/B3bZyK1UqAAAECBDaygADORgZWPQECBFpcwBJqLf4C6D4BAgQIECBAgAABAgQIECBAgAABAgQIECCQPwEBnPyNiRYRIECAAAECBAgQIECAAAECBAgQIECAAAECLS4ggNPiL4DuEyBAgAABAgQIECBAgAABAgQIECBAgAABAvkTEMDJ35hoEQECBAgQIECAAAECBAgQIECAAAECBAgQINDiAgI4Lf4C6D4BAgQIECBAgAABAgQIECBAgAABAgQIECCQPwEBnPyNiRYRIECAAAECBAgQIECAAAECBAgQIECAAAECLS4ggNPiL4DuEyBAgAABAgQIECBAgAABAgQIECBAgAABAvkTEMDJ35hoEQECBAgQIECAAAECBAgQIECAAAECBAgQINDiAgI4Lf4C6D4BAgQIECBAgAABAgQIECBAgAABAgQIECCQPwEBnPyNiRYRIECAAAECBAgQIECAAAECBAgQIECAAAECLS4ggNPiL4DuEyBAgAABAgQIECBAgAABAgQIECBAgAABAvkTEMDJ35hoEQECBAgQIECAAAECBAgQIECAAAECBAgQINDiAgI4Lf4C6D4BAgQIECBAgAABAgQIECBAgAABAgQIECCQPwEBnPyNiRYRIECAAAECBAgQIECAAAECBAgQIECAAAECLS4ggNPiL4DuEyBAgAABAgQIECBAgAABAgQIECBAgAABAvkTEMDJ35hoEQECBAgQIECAAAECBAgQIECAAAECBAgQINDiAgI4Lf4C6D4BAgQIECBAgAABAgQIECBAgAABAgQIECCQPwEBnPyNiRYRIECAAAECBAgQIECAAAECBAgQIECAAAECLS4ggNPiL4DuEyBAgAABAgQIECBAgAABAgQIECBAgAABAvkTEMDJ35hoEQECBAgQIECAAAECBAgQIECAAAECBAgQINDiAgI4Lf4C6D4BAgQIECBAgAABAgQIECBAgAABAgQIECCQPwEBnPyNiRYRIECAAAECBAgQIECAAAECBAgQIECAAAECLS4ggNPiL4DuEyBAgAABAgQIECBAgAABAgQIECBAgAABAvkT6Mhfk7SIAAECBAgQIECAAAECBAjMLIHhtSvD0J1XNXSqc/dDQqFnbkN+qVQKxT/fEoZXLgttm20V2rd9XigUCg3lZBAgQIAAAQIECMxcAQGcmTu2ekaAAAECBAgQIECAAAECG0mgVBwMYbgYCp0943pCacXDoffHn2woO++9Z4f2ugBOqTgUVv/X+0Jx6Q0j5dt33CfMfes3Q6HN/40fQZnCg1IcyzA0EEIcT4GyKYRVFQECBAgQIDApAf/Lb1J8biZAgAABAgQIECBAgACBmS6QZsMM3bs4DN52WSg+cHMoPnZvCIN9T3U7BlTaNt86tG/97NCx036hI86oad9i4aRIhu6+piZ4kypLwZyhu64NnbsfPKm63RzjbjGYNnjXb8NQNC0+eFsorXkylPpWRZpS/BRCYfYzQtszdwjtC3YPnTsfEDp2OSAUumZn0hWXPxjWXvDlhmuzXvb+0D5/54b8+oyBG38eBm69pCa7MGuzMOd1n6zJq5ysvfibobjsnspp+btju+eHnkP/uibPCQECBAgQIDAzBARwZsY46gUBAgQIECBAgAABAgQIbASBwbuuCWsv/kYYfuSu7NqHh8Lw8j+XP4N/vDyEX/5r6Nhx39B92Dvij//7Z9+zntxS75OZJUprV2TmyxyfQAp89F15Zhi8+aIYq4kzbjJTKZR6l4di+tx/Uxi47odxVs6s0H3A8SEFZRpS/+rMpfFKL3lrQ9GsjBQMrF9arzBny6yi5byh+5aU21VdoNDWXn3qmAABAgQIEJhBAgI4M2gwdYUAAQIECBAgQIAAAQIEpkagVBoOfb/6Wui/9gcbXOHQ0utD18pjN/i+yg1pv5tQiD/KVwcZ4kyf9u32rBSZEd/DvSvC6jPeE6fEDJf70/3CE0L6bIyUxnHthV+Pzxra8OoH18al8mZt+H3uIECAAAECBAhMUkAAZ5KAbidAgAABAgQIECBAgACBmSfQe/6nw+CSCybUsUL33NC5x5ETujfdlJbemn3CZ0P/b88JpVXLQmGzrULPQW8J7XFZr5mUBm++MAw/+qeRLo0282ikwAQPen/6L2Hghp9N8O54W5zh0rXfayd+vzsJECBAgAABAhMUEMCZIJzbCBAgQIAAAQIECBAgQGBmCvT99uzRgzcd3aFj1xeF9mftGArxeHjVo+W9VIYfv28Eo3OvV8QZGz0j5xM56Fp0REifmZwGbvr5Ru9e3xVnjBm8SfvdpD1u2jbfpjzLptS/JhSfuD8U/3xLKK1+vNy+zuceHtrmPWujt9UDCBAgQIAAAQL1AgI49SLOCRAgQIAAAQIECBAgQKBlBYZXPBL6Lv3/M/ufZtXMeuUpoW3OFg3Xi4/cGfp/f14YWPLL0L2v2RoNQHUZaT+a4oO31eVO7enQ/UtC32X/N7PSwtxnhllH/Z/QufcxoVBoayhTKpXKQZyBxT8OXS+Y+HJ4DRXLIECAAAECBAhsgIAAzgZgKUqAAAECBAgQIECAAAECM1ug78ozQhjqb+hk555Hh9nHffr/sXcfcJJVZeKwT0/3JBiySM5BFBBQERSBURRdFQEzIh/qrrouBpC/uLqriO6qKCrooruCghnRRTBgABREXUCyJBEJgkQlDGFy91fvhVt9K3ROVfc+5/cr6ta56ZznrZlp7tvnnNrD/p6WfVHRu942aZWXvT/N3/c9Ex590//gXWnxuSe23Gf+vu9Os2rTqQ1X+mujRpZd+ZO04uaL08q/3ZYGHn2gtp7OrNSzyhqpd/1t0uytdq8lJF6eeuauOtxlUkw7NrBsSf2YeXv/Yza1W1SsvPtPadlVP07L/3xx6l90b0q143rmr1a7/rZp9nZ7pzm77JeNTqqf3LQR5yz++eeaamuXue6XWZubd6z66v9orhrV5yW/+nJtHaHH19cpnjBrnc3SgkM+n426KdYXtyPOfbU1h+KlECBAgAABAgRmSkACZ6bk3ZcAAQIECBAgQIAAAQIEOkpgYNnibARNc6N6Vl07S84MlbwpHj/RqdPiWgNLHk7Lrz2neNlse95eb05piAROjBhZeuEpaclvvpbS8sHES36RgZjqLV5/+l1acsHJaf6Lj0hzdnppvrvlffl1v0oDSx+p1/c+ecs060mbpyXnnZiW/u7btUaurO+LjVi/ZsXNl2SvpRd/N6160Gda1uwZ6F+Rll703ez+adljDefHh/77bs5eLTvGkcBZURvds+KW37dcKs2eX2vbccMmb1pPUkOAAAECBAgQmBkBCZyZcXdXAgQIECBAgAABAgQIEOgwgRW3XlYbBtKaWJi766tTz7wFHdbaweYM9K9Mj51xdNukz+BRg1sDixelx848Jlu/Z97zDh3cMczW8ht/UxuR81ha+ttvDHPU47tiPaBHv3VEWu3tX28Y6bPssrPSknM+P+L5k3HA8hsvbHuZec/7/1oSS20PVElgigQiQRuJzJX33Jjm7va61Lf5M6foTi5LgAABAmUQkMApQxT1gQABAgQIECBAgAABAgQmLLDitsvbXmP29vu0re+UyqW//mr75E1Pb5q1zia1oS0rU//9d9SaO9DQ5CXnfSn1brBdbVq13Rrq231Y+ddrszVh2u1rV9f/wB1p6cWnp2zUUH5Am+nM8l2T/b7ilktbLzmrL8151qta69UQmCaBJeefVPtz8d1slF12y9rIOQmcacJ3GwIECHSpgAROlwZOswkQIECAAAECBAgQIEBgcgVW3ndL6wVra8XEmimdWlbef3ta8utTWpo3e7uFaf7L359m1aZ/i9L/0D3ZujYxzdlgGUhLamvtjCaBM3hObb2fDZ9WW0fnZWnWmhvU1th5MC297Iy08o5riodk28uu/mlDAqdvy13TKvt/KNsXa/wMPHp/wzmzn7JXtoZOQ+U4P6y8648tZ/ZuuF2aVVsLSCEw3QLLrvxxNnVgrG9VLANLBqcpLNbbJkCAAAECuYAETi7hnQABAgQIECBAgAABAgQqLRBJjubSu/YmaTRr3zSfN12fl17yvZb1aGatsUFa5ZXHpOJ6PLPWWC+t+pqPp0VfeE1tvZoH6s1befcf04ra6Jq+jbav1w23MXv7F6ZVXvWxmsms+mGzd3hRevjkN6f+e26q18VG/99vy0Ya9MxbLavvra2hE68okXRqTuD0rr9tLTH08mz/RP4zEGsAtVkHKEYbNZeI+fLrf9Vc3fq5d3aau6vRO60waoYTiGkZHzvrY6k5cTPcOfYRIECAAIGigAROUcM2AQIECBAgQIAAAQIECFRXYGnr+jedvPZNBKpd8mFOLdFQTN7kAY1EypxdXt6yjs2KWy8fXQKnlsSY/5L3NiRv4to9fXPS3NrUZIt/cmx+q/p7/yP3p94nEjj1yineiDV+2pVZq6zZUr2ylmRa/PPPtdQ3V/TMXSCB04zi85ACkbhZcsFXUrau1pBH2UGAAAECBEYWkMAZ2cgRBAgQIECAAAECBAgQIFABgYF2a7TUkhadWvoX3ZsGaq/m0rvOpoNrbDTtjNE5zaX/739prmr7uW+Tp6dZC9Zpu693vW3a1g8sa02KtT1wEisHVq5of7VaokkhMB0Cj3ztX0Z1m1h368FjRl6DauSL9dQyqbVRcbW37D89T3yufXresT3ZKMJZsx4fNRcjCrvllfWm1t5oez4SMt4n+jm/Rn79yfgc14jXfffdl/r7++PSWTvj/fbbb09z586ttzs/Nu/HUJ+jfqRjxrrfNR//LoWDQqBbBCRwuiVS2kmAAAECBAgQIECAAAECUyrQU1vvZqDpDjORgGhqwpAfVw6ReHn0u0cNeU67HQOLH2pX3VI3a72tW+ryik4aqdQzb9W8WQ3vnRzLhob6QGDMArW/uQZW1l6tJy4ZIp/ZeqSaqRL40Y9+NFWXdt1xCqy66qrpE5/4RHrXu941zis4jcD0CQxOWjt993QnAgQIECBAgAABAgQIECDQcQL5Wi3Fhg08OrheTLG+E7aHmipsrG0bWL50VKcMNfomO7mDfpv58Ti2/nb1wMN/G1U/HUSAAAEC5RZ49NFH0yc/+clyd1LvSiNgBE5pQqkjBAgQIECAAAECBAgQIDARgVlrPDmtvL3xCv33/zUNrFhaW+dlbuOOTvi0Ytm0tqLdujrT2oBR3qynNpVUz+pPrk0vd0/DGSvvuanhc3zo23TntPoRjb8dv+wPv0hLzv1Cy7HtK1oTRXHckNO4NV+k9t1qKR2UDGtpm4pRCSw49Itpyfknp5gibbjSt9kz0oI3fWm4Q8a9b2D5kuzcH//DrDQwMFCf1iu2x/M5P28q36PBMf1Yfo/xfM77Fu9RJuNzfo38esN9vuuuu9LKlSuz++bHb7/99qmvr6/er/z8eM9fxX4PVdd8zFg/j+a+Y73mSMdPxT1He80lSx7/MxBxaFd2220ypi9sd2V1BCZXQAJncj1djQABAgQIECBAgAABAgS6VKB3w6el5dec09j62rREK269PM3e+jmN9R3wqWf+am1bMfc5B9cyE6Nf7yXWzBlViTU2uqT0bbx9Wn5dUwLn7htTf20UzqzVnlTvRU/NKZI9xTKUa/GY+vac+fXN4sbAY6Oblq5/8aLiadl2RyYLW1qpYjiBvs2fWUvMPDMtv+GCtPhnn0v9D9013OFTsi9PuM6f3zsl13fR9gJXX311Wr58ecPON7zhDWnBggUNdT7MnEC+/s155503c41wZwJjEJDAGQOWQwkQIECAAAECBAgQIECgvAJ9G+/QtnPLrvxJZyZwVl27bXvn7LJf6l13i7b7qlLZu/HTawmcXzZ2d6A/LbvszDRv4T811k/g06xV12p79sq7/5jS9vu03VesXHlX7bim0jPENZsO87ELBGZvt3eK19KLTquNyDkpDSx9pAtarYkEqiGwaFFrAr0aPdfLbhPonl+f6TZZ7SVAgAABAgQIECBAgACBrhLorSVwZq25QUubl197bm0qpCta6me6one9bVKa3ToCZMWfL57ppo18/ymeJmzODi9MaVbryIMlv/16Wvm320Zu3yiP6Jm7au07s2HL0fGdGWkatRV3Xp/677u55dzeDZ7SUqeiuwXm7v76tPrhteTh3v+UeuYaidHd0dT6bhaI6dfyko/EyT97J9CpAhI4nRoZ7SJAgAABAgQIECBAgACBaRWItVPmPPPANvccSI+edlQtiXNlm32NVSv//pe0/MbfNlZO0aee3r7Ut8UzW66+5HffTP2LRzeFV75ORstFprqizZpC/YvunbS7zlpt3drIh4Wt16utOfPI1w9LkTyZrNK3zXNbLtX/wF/T4p9/rr4ORvMB/Y89mBb/8D+bq7PPs5+yV9t6ld0t0DNvtdror7em1f75G2nOTi9LkYCd/5IjurtTWk+gywQkcLosYJqbCZhCzReBAAECBAgQIECAAAECBAg8ITB311enpZeekQYeurvBZGDJovTIqf9cSwrsleIB+6y1NqqtMzM3DSx5OPXXkjYra+urxCid/vtvT33b7JFmb7tHw/lT9WHu7gelFTf+puHyAw/flx79+rvSKgcenXqfvFXDvvgQ666suOn/0rKrzk6z1lg/rbLfB1qOmeqKWQvWTv1N+Zplf/h5mv20F6S+rXbPbh/9iKRZ32Y7p1lN69SMpn3zXvDPafmfasm0JxZzz8+J6z5y8luyqa1mb7tnLZa1ETSz59Wmt3o0DdSSSCvinDGUuc9+bVp26Q9qq6WvbDhr2e+/n1befnWa/fR/qE1pt2XqmVO7R9jfcU1advlZaaCWxGkus2rH5f1v3udzOQRixNYqB3y4HJ3RCwJdJiCB02UB09xMQALHF4EAAQIECBAgQIAAAQIECDwhEFNirbL/h2oJkHfWaganWnl890C2KHksTN4pZfYWz8oSSsv/+OuGJsUaLA9/6eDab/lvnWatvXFKtdFFsf5G//13pP4Hawuq19aDiTJnl1c0nDddH3o3fGpacfMljberjY559FuHZ4mx1F9LhvSvyPYv+MevjCuB07vOpmn+voenxT/5ZON94lOt/8uv/1X2at05tpreJ22W5u722to6J99pOTESe/EaVenpTau8/F+TaX1GpeUgAgQIjFlAAmfMZE7oAAFTqHVAEDSBAAECBAgQIECAAAECBDpHIJIiqxz4kdoaKt3xO4/R1llP3roN4EBaec+fHk9UXHdeirVxYmqvPHnT5oRpq5pTG5VSyyq1v18tkZMnb9ofMPrauc86MM17YSTjhrjX6C817JHzXvSu1Lft84Y9ZtidtQTbKq/4YOrbdKdhD7OTAAECBMYvIIEzfjtnzpyABM7M2bszAQIECBAgQIAAAQIECHSowJynvySt+sYTaqNXNunQFg42K0YNrfaWL2fTjw3WjnKrZ2oTG0O1onfdLdLc5x481O5JrZ+3xyFpldd+sjZd3Abjv27v7GHP7ZnVm1Z93afS3D3fnI12Gvbgpp2z1tyg9l37fJqz88ub9vhIgAABApMpIIEzmZquNV0C3fHrRNOl4T4ECBAgQIAAAQIECBAgQOAJgRiJ03fYaWnZlT9Jy689N1uPJa1c1t6nth5O70ZPS7Nr69/M2fHF7Y+ZwtpI4qz6mk+kFX+5Mi39v++k5bf8PqXami5tSy3Z0LvRDmlObb2ZmUwazK+NWom1bZZceGoaePT+1qbOWSXN3mq3cU2f1nyxOU9dmK1LtOyKH9dGJP2y5nRVSjHSZ6gS8axNPxdTvUUb+rbYdagj6/WRxJlfW3dnzi77paUXfzetuOHXqf+h2nR17UptdFfvxrUY7PTSFKORevrmtDtKHQECBAhMooAEziRiutS0CfTUvrjNk/pO283diAABAgQIECBAoJwCl112WYpXsWy44YZpgw0m8NvPxYvZnhSBg85Zme5b0nip+J+Dqfx9/AeP2a3xhrVPax59cUudCgKdKDCwfEnq//tfUv+jD2SL0afaA/tInMQIiliYvKe3c35HcqC2hkz/fTen/kfuTwNLHs5GhfTMnpclQ2JNnNjulDJQW4+m/54/Z8mOgRXLU88qa6RZq66VjX6aqsTGQC1583gsH3w8lrX1jsKkZ/7qmVHPauvWlg3qnTBR/6J7s2nrBhYvSnHPntnzU08taRXr5nRSDCbc0QpfoNP/XTt3v4l/jysc3jF3/eqrr07Lly9vOO8Nb3hDWrBgQUOdDzMjsGTJkjR//vzs5vPmzUuLFy+emYa4K4ExCHTOT5djaLRDCRAgQIAAAQIECBAgQIDAdAvEA/fe9bdN3fA4NJIPvettU3tNt9LY79dTW/+ld/1aW2uv6So92Qib2j2n+IYxwiheCgECBAjMvEBxHEPPDE0hOvMKWtBtAtbA6baIaS8BAgQIECBAgAABAgQIECBAgAABAgQIjElAAmdMXA7uEAEJnA4JhGYQIECAAAECBAgQIECAAAECBAgQIECAwNQISOBMjaurTq2ABM7U+ro6AQIECBAgQIAAAQIECBAgQIAAAQIECMywgATODAfA7cclIIEzLjYnESBAgAABAgQIECBAgAABAgQIECBAgEC3CEjgdEuktLMoIIFT1LBNgAABAgQIECBAgAABAgQIECBAgAABAqUTkMApXUgr0SEJnEqEWScJECBAgAABAgQIECBAgAABAgQIECBQXQEJnOrGvpt7LoHTzdHTdgIECBAgQIAAAQIECBAgQIAAAQIECBAYUUACZ0QiB3SggAROBwZFkwgQIECAAAECBAgQIECAAAECBAgQIEBg8gQkcCbP0pWmT0ACZ/qs3YkAAQIECBAgQIAAAQIECBAgQIAAAQIEZkBAAmcG0N1ywgISOBMmdAECBAgQIECAAAECBAgQIECAAAECBAgQ6GQBCZxOjo62DSUggTOUjHoCBAgQIECAAAECBAgQIECAAAECBAgQKIWABE4pwli5TkjgVC7kOkyAAAECBAgQIECAAAECBAgQIECAAIFqCUjgVCveZemtBE5ZIqkfBAgQIECAAAECBAgQIECAAAECBAgQINBWQAKnLYvKDheQwOnwAGkeAQIECBAgQIAAAQIECBAgQIAAAQIECExMQAJnYn7OnhkBCZyZcXdXAgQIECBAgAABAgQIECBAgAABAgQIEJgmAQmcaYJ2m0kVkMCZVE4XI0CAAAECBAgQIECAAAECBAgQIECAAIFOE5DA6bSIaM9oBCRwRqPkGAIECBAgQIAAAQIECBAgQIAAAQIECBDoWgEJnK4NXaUbLoFT6fDrPAECBAgQIECAAAECBAgQIECAAAECBMovIIFT/hiXsYcSOGWMqj4RIECAAAECBAgQIECAAAECBAgQIECAQF1AAqdOYaOLBCRwuihYmkqAAAECBAgQIECAAAECBAgQIECAAAECYxeQwBm7mTNmXkACZ+ZjoAUECBAgQIAAAQIECBAgQIAAAQIECBAgMIUCEjhTiOvSUyYggTNltC5MgAABAgQIECBAgAABAgQIECBAgAABAp0gIIHTCVHQhrEKSOCMVczxBAgQIECAAAECBAgQIECAAAECBAgQINBVAhI4XRUujX1CQALHV4EAAQIECBAgQIAAAQIECBAgQIAAAQIESi0ggVPq8Ja2cxI4pQ2tjhEgQIAAAQIECBAgQIAAAQIECBAgQIBACEjg+B50o4AETjdGTZsJECBAgAABAgQIECBAgAABAgQIECBAYNQCEjijpnJgBwn0dVBbNIUAAQIECBAgQIAAgQoKLDn/pAr2WpcJTJ/A8ht/k1bed0vq22yX1LfxDtN3Y3ciQIAAAQIdJCCB00HB0JRRC0jgjJrKgQQIECBAgAABAgQITIXAkgtOnorLuiYBAk0CK/58UYqXQoAAAQIEqigggVPFqHd/n02h1v0x1AMCBAgQIECAAAECBAgQIECAAAECBAgQGEZAAmcYHLs6VkACp2NDo2EECBAgQIAAAQIEyifQM3+N8nVKjwgQIECAwBMC/p3zVSDQuQISOJ0bGy0bWkACZ2gbewgQIECAAAECBAgQmGSB2dvtPclXdDkCBAgQINA5Av6d65xYaAmBZgEJnGYRn7tBwBo43RAlbSRAgAABAgQIECBQEoFVXvFvafYO+6aVf702pZXLS9Ir3SDQuQID/f1p6YVffbyBPbPSvL3e0rmN1TIC3SzQOzv1brR9mr3lrt3cC20nUGoBCZxSh7e0nZPAKW1odYwAAQIECBAgQIBAZwrEwy0PuDozNlpVPoGBWqK0nsCZ1ZfmLXxr+TqpRwQIECBAYBQCEjijQHJIxwmYQq3jQqJBBAgQIECAAAECBAgQIEBgkgQG+gcv1NMzuG2LAAECBAhUTEACp2IBL0l3JXBKEkjdIECAAAECBAgQIECAAAECLQIDA4NVEjiDFrYIECBAoHICEjiVC3kpOiyBU4ow6gQBAgQIECBAgAABAgQIEBhJwAickYTsJ0CAAIHyCkjglDe2Ze6ZBE6Zo6tvBAgQIECAAAECBAgQIFBtAVOoVTv+ek+AAAECdQEJnDqFjS4SkMDpomBpKgECBAgQIECAAAECBAgQGJOAKdTGxOVgAgQIECivgAROeWNb5p5J4JQ5uvpGgAABAgQIECBAgAABAtUWKCRweno8Aqj2l0HvCRAgUG0BCZxqx79be++nt26NnHYTIECAAAECBAgQIECAAIERBQYKR1gDp4BhkwABAgQqJiCBU7GAl6S7EjglCaRuECBAgAABAgQIECBAgACBZoHiw6okf9PM4zMBAgQIVEig+G9iT49/FCsU+q7uqgROV4dP4wkQIECAAAECBAgQIECAwDAChSnUkinUhoGyiwABAgTKLiCBU/YIl7N/EjjljKteESBAgAABAgQIECBAgACBmoAp1HwNCBAgQIBACEjg+B50o4AETjdGTZsJECBAgAABAgQIECBAgMBoBBpG4JguZjRkjiFAgACBcgpI4JQzrmXvlQRO2SOsfwQIECBAgAABAgQIECBQXYGB/sG+m+9/0MIWAQIECFROQAKnciEvRYclcEoRRp0gQIAAAQIECBAgQIAAAQIjCRiBM5KQ/QQIECBQXgEJnPLGtsw9k8Apc3T1jQABAgQIECBAgAABAgSqLWAETrXjr/cECBAgUBeQwKlT2OgiAQmcLgqWphIgQIAAAQIECBAgQIAAgTEJWANnTFwOJkCAAIHyCkjglDe2Ze6ZBE6Zo6tvBAgQIECAAAECBAgQIECgLmAKtTqFDQIECBConIAETuVCXooOS+CUIow6QYAAAQIECBAgQIAAAQIE2ggUplDr6fEIoI2QKgIECBCoiIAETkUCXbJu+umtZAHVHQIECBAgQIAAAQIECBAgUBdomEKtXmuDAAECBAhUTkACp3IhL0WHJXBKEUadIECAAAECBAgQIECAAAEC7QQGCpWmUCtg2CRAgACBiglI4FQs4CXprgROSQKpGwQIECBAgAABAgQIECBAoFmg+LAqmUKtmcdnAgQIEKiQQPHfxJ4ev9RQodB3dVclcLo6fBpPgAABAgQIECBAgAABAgSGEWiYQs3DqmGk7CJAgACBkgtI4JQ8wCXtngROSQOrWwQIECBAgAABAgQIECBAIA30DyL4beNBC1sECBAgUDkBCZzKhbwUHZbAKUUYdYIAAQIECBAgQIAAAQIECIwkYATOSEL2EyBAgEB5BSRwyhvbMvdMAqfM0dU3AgQIECBAgAABAgQIEKi2gCnUqh1/vSdAgACBuoAETp3CRhcJSOB0UbA0lQABAgQIECBAgAABAgQIjEnAFGpj4nIwAQIECJRXQAKnvLEtc88kcMocXX0jQIAAAQIECBAgQIAAAQJ1AVOo1SlsECBAgEDlBCRwKhfyUnRYAqcUYdQJAgQIECBAgAABAgQIECDQRsAUam1QVBEgQIBAFQUkcKoY9e7vswRO98dQDwgQIECAAAECBAgQIECAQHsBU6i1d1FLgAABApUTkMCpXMhL0WEJnFKEUScIECBAgAABAgQIECBAgEA7gYF6ZU8yhVodwwYBAgQIVE5AAqdyIS9FhyVwShFGnSBAgAABAgQIECBAgAABAm0EBvM3KfVI4LQRUkWAAAECFRGQwKlIoEvWTQmckgVUdwgQIECAAAECBAgQIECAQC4w0DCFmkcAuYt3AgQIEKiegARO9WJehh776a0MUdQHAgQIECBAgAABAgQIECDQVqA4BKftASoJECBAgEAlBCRwKhHm0nVSAqd0IdUhAgQIECBAgAABAgQIECDwhMBAIYHT4xGA7wUBAgQIVFdAAqe6se/mnvvprZujp+0ECBAgQIAAAQIECBAgQGA4gYYEjjVwhqOyjwABAgTKLSCBU+74lrV3Ejhljax+ESBAgAABAgQIECBAgACBVBiBQ4MAAQIECFRYQAKnwsHv4q5L4HRx8DSdAAECBAgQIECAAAECBAgMK9AwAscjgGGt7CRAgACBUgtI4JQ6vKXtnJ/eShtaHSNAgAABAgQIECBAgACBygs0JHBMoVb57wMAAgQIVFhAAqfCwe/irkvgdHHwNJ0AAQIECBAgQIAAAQIECAwvUJxCTQJneCt7CRAgQKDMAhI4ZY5uefsmgVPe2OoZAQIECBAgQIAAAQIECFRdYKB/UKBHAmcQwxYBAgQIVE1AAqdqES9HfyVwyhFHvSBAgAABAgQIECBAgAABAq0CDQNwJHBagdQQIECAQFUEJHCqEuly9VMCp1zx1BsCBAgQIECAAAECBAgQIDAoUBiB09PjEcAgjC0CBAgQqJqABE7VIl6O/vrprRxx1AsCBAgQIECAAAECBAgQINBGoDgEp81uVQQIECBAoCICEjgVCXTJuimBU7KA6g4BAgQIECBAgAABAgQIEMgFig+rkjVwchbvBAgQIECAAIGuEJDA6YowaSQBAgQIECBAgAABAgQIEBiHwEBhBI4p1MYB6BQCBAgQKItA8ZcaevxSQ1nCWvp+SOCUPsQ6SIAAAQIECBAgQIAAAQLVFSgkcKqLoOcECBAgQCBJ4PgSdKOABE43Rk2bCRAgQIAAAQIECBAgQIDAaAQaRuD0jOYMxxAgQIAAgVIKSOCUMqyl75QETulDrIMECBAgQIAAAQIECBAgUFmBhgSORwCV/R7oOAECBAgYgeM70JUCfnrryrBpNAECBAgQIECAAAECBAgQGI1AcQo1I3BGI+YYAgQIECingBE45Yxr2XslgVP2COsfAQIECBAgQIAAAQIECFRXYKB/sO8WbB60sEWAAAEClROQwKlcyEvRYQmcUoRRJwgQIECAAAECBAgQIECAQBuBhgE4RuC0EVJFgAABAhURkMCpSKBL1k0JnJIFVHcIECBAgAABAgQIECBAgMCgQEMGZ7DaFgECBAgQqJiABE7FAl6S7krglCSQukGAAAECBAgQIECAAAECBFoEClOo9ZhCrYVHBQECBAhUR0ACpzqxLlNPJXDKFE19IUCAAAECBAgQIECAAAECRYGBwggcCZyijG0CBAgQqJiABE7FAl6S7krglCSQukGAAAECBAgQIECAAAECBIYXsAbO8D72EiBAgECZBSRwyhzd8vZNAqe8sdUzAgQIECBAgAABAgQIEKi4wEBhCrVkBE7Fvw26T4AAgWoLSOBUO/7d2nsJnG6NnHYTIECAAAECBAgQIECAAIGRBEyhNpKQ/QQIECBQEQEJnIoEumTdlMApWUB1hwABAgQIECBAgAABAgQI1AUaEjgeAdRdbBAgQIBA5QQkcCoX8lJ02E9vpQijThAgQIAAAQIECBAgQIAAgXYCA4VKa+AUMGwSIECAQMUEJHAqFvCSdFcCpySB1A0CBAgQIECAAAECBAgQINAi0DACp2WvCgIECBAgUBkBCZzKhLpUHZXAKVU4dYYAAQIECBAgQIAAAQIECBQEGhI4HgEUZGwSIECAQMUEJHAqFvCSdNdPbyUJpG4QIECAAAECBAgQIECAAIFWAVOotZqoIUCAAIEqCkjgVDHq3d9nCZzuj6EeECBAgAABAgQIECBAgACB9gINI3CsgdMeSS0BAgQIVEFAAqcKUS5fHyVwyhdTPSJAgAABAgQIECBAgAABAo8LDPQPSvRI4Axi2CJAgACBqglI4FQt4uXorwROOeKoFwQIECBAgAABAgQIECBAYFiBniSBMyyQnQQIECBQagEJnFKHt7Sdk8ApbWh1jAABAgQIECBAgAABAgQqL2AKtcp/BQAQIECAwOMCEji+Cd0oIIHTjVHTZgIECBAgQIAAAQIECBAgMAqBAVOojULJIQQIECBQBQEJnCpEuXx9lMApX0z1iAABAgQIECBAgAABAgQItBEwhVobFFUECBAgUBEBCZyKBLpk3ZTAKVlAdYcAAQIECBAgQIAAAQIECNQFGkbgeARQd7FBgAABApUTkMCpXMhL0WE/vZUijDpBgAABAgQIECBAgAABAgTaCDSsgdNmvyoCBAgQIFARAQmcigS6ZN2UwClZQHWHAAECBAgQIECAAAECBAgMCgwMbiZTqBUwbBIgQIBAxQQkcCoW8JJ0VwKnJIHUDQIECBAgQIAAAQIECBAg0CLQMALHI4AWHxUECBAgUBkBCZzKhLpUHfXTW6nCqTMECBAgQIAAAQIECBAgQKAg0JDAMQKnIGOTAAECBComIIFTsYCXpLsSOCUJpG4QIECAAAECBAgQIECAAIFWgeIUaq171RAgQIAAgaoISOBUJdLl6qcETrniqTcECBAgQIAAAQIECBAgQGBQoGEEjkcAgzC2CBAgQKBqAhI4VYt4Ofrrp7dyxFEvCBAgQIAAAQIECBAgQIBAq0BDAscUaq1AaggQIECgKgISOFWJdLn6KYFTrnjqDQECBAgQIECAAAECBAgQGBQY6K9v9/RI4NQxbBAgQIBA5QQkcCoX8lJ0WAKnFGHUCQIECBAgQIAAAQIECBAgMJKABM5IQvYTIECAQHkFJHDKG9sy90wCp8zR1TcCBAgQIECAAAECBAgQqLRA8WFVMgKn0t8FnSdAgEDVBYr/JhqVWvVvQ/f0XwKne2KlpQQIECBAgAABAgQIECBAYGwChSnUJHDGRudoAgQIECiXgAROueJZld5I4FQl0vpJgAABAgQIECBAgAABAhUUGCj02RRqBQybBAgQIFAxAQmcigW8JN2VwClJIHWDANLOD/cAAEAASURBVAECBAgQIECAAAECBAi0CDTkbyRwWnxUECBAgEBlBCRwKhPqUnVUAqdU4dQZAgQIECBAgAABAgQIECBQEGiYQs0jgIKMTQIECBComIAETsUCXpLu+umtJIHUDQIECBAgQIAAAQIECBAg0CpQHILTulcNAQIECBCoioAETlUiXa5+SuCUK556Q4AAAQIECBAgQIAAAQIEBgUGCgmcHo8ABmFsESBAgEDVBCRwqhbxcvTXT2/liKNeECBAgAABAgQIECBAgACBVoGGBI41cFqB1BAgQIBAVQQkcKoS6XL1UwKnXPHUGwIECBAgQIAAAQIECBAgUBAojMAp1NokQIAAAQJVE5DAqVrEy9FfCZxyxFEvCBAgQIAAAQIECBAgQIBAq0BhBE6PKdRafdQQIECAQGUEJHAqE+pSdVQCp1Th1BkCBAgQIECAAAECBAgQIFAQKCRwUjKFWkHGJgECBAhUTEACp2IBL0l3JXBKEkjdIECAAAECBAgQIECAAAECrQKFKdR6JHBafdQQIECAQFUEJHCqEuly9VMCp1zx1BsCBAgQIECAAAECBAgQIFAXGBjor28nCZxBC1sECBAgUDkBCZzKhbwUHZbAKUUYdYIAAQIECBAgQIAAAQIECIwkYATOSEL2EyBAgEB5BSRwyhvbMvdMAqfM0dU3AgQIECBAgAABAgQIEKi2QHENHCNwqv1d0HsCBAhUXEACp+JfgC7tvgROlwZOswkQIECAAAECBAgQIECAwIgCplAbkcgBBAgQIFANAQmcasS5bL2UwClbRPWHAAECBAgQIECAAAECBAi0FTCFWlsWlQQIECBQCQEJnEqEuXSdlMApXUh1iAABAgQIECBAgAABAgQIPCHQMALHIwDfCwIECBCoroAETnVj380999NbN0dP2wkQIECAAAECBAgQIECAwHACDWvgDHegfQQIECBAoNwCEjjljm9ZeyeBU9bI6hcBAgQIECBAgAABAgQIEEgDBQNTqBUwbBIgQIBAxQQkcCoW8JJ0VwKnJIHUDQIECBAgQIAAAQIECBAg0CLQMALHI4AWHxUECBAgUBkBCZzKhLpUHfXTW6nCqTMECBAgQIAAAQIECBAgQKAgUEjg9PQYgVOQsUmAAAECFROQwKlYwEvSXQmckgRSNwgQIECAAAECBAgQIECAQKtAcQq11r1qCBAgQIBAVQQkcKoS6XL1UwKnXPHUGwIECBAgQIAAAQIECBAgUBcoPqxKPR4B1GFsECBAgEDlBIr/JhqVWrnwd22H/fTWtaHTcAIECBAgQIAAAQIECBAgMIJAYQq1ZAq1EbDsJkCAAIEyC0jglDm65e2bBE55Y6tnBAgQIECAAAECBAgQIFB1gYH+QQEJnEELWwQIECBQOQEJnMqFvBQdlsApRRh1ggABAgQIECBAgAABAgQIjCTQM9IB9hMgQIAAgdIKSOCUNrSl7pgETqnDq3MECBAgQIAAAQIECBAgUGkBU6hVOvw6T4AAAQKDAhI4gxa2ukdAAqd7YqWlBAgQIECAAAECBAgQIEBgbAKmUBubl6MJECBAoLQCEjilDW2pOyaBU+rw6hwBAgQIECBAgAABAgQIVFtgoNB9U6gVMGwSIECAQMUEJHAqFvCSdFcCpySB1A0CBAgQIECAAAECBAgQINAi0JC/kcBp8VFBgAABApURkMCpTKhL1VEJnFKFU2cIECBAgAABAgQIECBAgEBBoGEKNY8ACjI2CRAgQKBiAhI4FQt4Sbrrp7eSBFI3CBAgQIAAAQIECBAgQIBAq0BxCE7rXjUECBAgQKAqAhI4VYl0ufopgVOueOoNAQIECBAgQIAAAQIECBAYFBgYTOD09HgEMAhjiwABAgSqJiCBU7WIl6O/fnorRxz1ggABAgQIECBAgAABAgQItAoUEjipxxo4rUBqCBAgQKAqAhI4VYl0ufopgVOueOoNAQIECBAgQIAAAQIECBCoCwykwRE49UobBAgQIECgggISOBUMegm6LIFTgiDqAgECBAgQIECAAAECBAgQaCtgBE5bFpUECBAgUD2BnsJI1GIyp3oSetxNAhI43RQtbSVAgAABAgQIECBAgAABAmMRKCZwkinUxkLnWAIECBAol0AxaVNM5pSrl3pTNgEJnLJFVH8IECBAgAABAgQIECBAgEBdoDCFWuE3j+u7bRAgQIAAgYoISOBUJNAl66YETskCqjsECBAgQIAAAQIECBAgQKAuMNBf30wSOIMWtggQIECgcgISOJULeSk6LIFTijDqBAECBAgQIECAAAECBAgQaCNQGICTTKHWBkgVAQIECFRFQAKnKpEuVz8lcMoVT70hQIAAAQIECBAgQIAAAQIFgUIGxwicgotNAgQIEKiagARO1SJejv5K4JQjjnpBgAABAgQIECBAgAABAgRaBRqmUPMIoBVIDQECBAhURUACpyqRLlc//fRWrnjqDQECBAgQIECAAAECBAgQGBQYKIzAGay1RYAAAQIEKicggVO5kJeiwxI4pQijThAgQIAAAQIECBAgQIAAgTYCxQROj0cAbYRUESBAgEBFBCRwKhLoknXTT28lC6juECBAgAABAgQIECBAgACBQYHBETg91sAZZLFFgAABApUTkMCpXMhL0WEJnFKEUScIECBAgAABAgQIECBAgEAbgeIInDa7VREgQIAAgaoISOBUJdLl6qcETrniqTcECBAgQIAAAQIECBAgQKAuUHxYlUyhVnexQYAAAQLVEyj+m2hUavXi3609lsDp1shpNwECBAgQIECAAAECBAgQGFFgcAq1ZAq1EbUcQIAAAQLlFZDAKW9sy9wzCZwyR1ffCBAgQIAAAQIECBAgQKDaAg1TqPVU20LvCRAgQKDSAhI4lQ5/13ZeAqdrQ6fhBAgQIECAAAECBAgQIEBgBIFiAscInBGw7CZAgACBMgtI4JQ5uuXtmwROeWOrZwQIECBAgAABAgQIECBQeQFTqFX+KwCAAAECBAgQ6FoBCZyuDZ2GEyBAgAABAgQIECBAgACBEQQG+gcP6PEIYBDDFgECBAhUTcAInKpFvBz99dNbOeKoFwQIECBAgAABAgQIECBAoFWgOIVa6141BAgQIECgMgISOJUJdak6KoFTqnDqDAECBAgQIECAAAECBAgQGELAGjhDwKgmQIAAgSoISOBUIcrl66METvliqkcECBAgQIAAAQIECBAgQOBxAVOo+SYQIECAAIFMQALHF6EbBSRwujFq2kyAAAECBAgQIECAAAECBEYjYAq10Sg5hgABAgQqICCBU4Egl7CLEjglDKouESBAgAABAgQIECBAgACBTKCQwOnp8QjAt4IAAQIEqisggVPd2Hdzz/301s3R03YCBAgQIECAAAECBAgQIDCMwEAaGNxrDZxBC1sECBAgUDkBCZzKhbwUHZbAKUUYdYIAAQIECBAgQIAAAQIECLQRKIzASamnzQGqCBAgQIBANQQkcKoR57L1UgKnbBHVHwIECBAgQIAAAQIECBAgkAsUEzhG4OQq3gkQIECgggISOBUMegm6LIFTgiDqAgECBAgQIECAAAECBAgQaC9gCrX2LmoJECBAoGoCEjhVi3g5+iuBU4446gUBAgQIECBAgAABAgQIEGgVKI7AMYVaq48aAgQIEKiMgAROZUJdqo5K4JQqnDpDgAABAgQIECBAgAABAgQKAgP9gx9MoTZoYYsAAQIEKicggVO5kJeiwxI4pQijThAgQIAAAQIECBAgQIAAgREEJHBGALKbAAECBMosIIFT5uiWt28SOOWNrZ4RIECAAAECBAgQIECAQNUFGkbgeARQ9a+D/hMgQKDKAhI4VY5+9/bdT2/dGzstJ0CAAAECBAgQIECAAAECwws0rIEz/KH2EiBAgACBMgtI4JQ5uuXtmwROeWOrZwQIECBAgAABAgQIECBAYFDAFGqDFrYIECBAoHICEjiVC3kpOiyBU4ow6gQBAgQIECBAgAABAgQIEGgjUJhCrafHI4A2QqoIECBAoCICEjgVCXTJuumnt5IFVHcIECBAgAABAgQIECBAgEBdoGEKtZ56tQ0CBAgQIFA1AQmcqkW8HP2VwClHHPWCAAECBAgQIECAAAECBAi0CAykgcE6+ZtBC1sECBAgUDkBCZzKhbwUHZbAKUUYdYIAAQIECBAgQIAAAQIECLQRKI7AMYVaGyBVBAgQIFAVAQmcqkS6XP2UwClXPPWGAAECBAgQIECAAAECBAgMChQTOMkQnEEYWwQIECBQNQEJnKpFvBz9lcApRxz1ggABAgQIECBAgAABAgQItAoM9A/W9UjgDGLYIkCAAIGqCUjgVC3i5eivBE454qgXBAgQIECAAAECBAgQIEBgeAEJnOF97CVAgACBUgtI4JQ6vKXtnAROaUOrYwQIECBAgAABAgQIECBQeQFTqFX+KwCAAAECBB4XkMDxTehGAQmcboyaNhMgQIAAAQIECBAgQIAAgdEImEJtNEqOIUCAAIEKCEjgVCDIJeyiBE4Jg6pLBAgQIECAAAECBAgQIECgRcAUai0kKggQIECgOgISONWJdZl6KoFTpmjqCwECBAgQIECAAAECBAgQKAqYQq2oYZsAAQIEKiwggVPh4Hdx1yVwujh4mk6AAAECBAgQIECAAAECBIYVaJhCzSOAYa3sJECAAIFSC0jglDq8pe2cn95KG1odI0CAAAECBAgQIECAAAECA3UCM6jVKWwQIECAQAUFJHAqGPQSdFkCpwRB1AUCBAgQIECAAAECBAgQINBOoPiwKvV4BNDOSB0BAgQIVEOg+G9ij99qqEbQS9BLP72VIIi6QIAAAQIECBAgQIAAAQIE2gpYA6cti0oCBAgQqJ6ABE71Yl6GHkvglCGK+kCAAAECBAgQIECAAAECBNoKDE6hlvy2cVshlQQIECBAgACBThWQwOnUyGgXAQIECBAgQIAAAQIECBCYqEBxBI4EzkQ1nU+AAAECXSxgBE4XB6/CTZfAqXDwdZ0AAQIECBAgQIAAAQIESi5QTOCknpJ3VvcIECBAgMDQAhI4Q9vY07kCEjidGxstI0CAAAECBAgQIECAAAECExMY6B883wicQQtbBAgQIFA5AQmcyoW8FB2WwClFGHWCAAECBAgQIECAAAECBAiMICCBMwKQ3QQIECBQZgEJnDJHt7x9k8Apb2z1jAABAgQIECBAgAABAgSqLmAKtap/A/SfAAECBJ4QkMDxVehGAQmcboyaNhMgQIAAAQIECBAgQIAAgdEINEyh5hHAaMgcQ4AAAQLlFJDAKWdcy94rP72VPcL6R4AAAQIECBAgQIAAAQIVFhgY7HvP4KYtAgQIECBQNQEJnKpFvBz9lcApRxz1ggABAgQIECBAgAABAgQItAoU8jcpyeC0AqkhQIAAgaoISOBUJdLl6qcETrniqTcECBAgQIAAAQIECBAgQGBQoDCFWk+PRwCDMLYIECBAoGoCEjhVi3g5+uunt3LEUS8IECBAgAABAgQIECBAgECLwEAqDMHpMQKnBUgFAQIECFRGQAKnMqEuVUclcEoVTp0hQIAAAQIECBAgQIAAAQIFgQEJnIKGTQIECBCosIAEToWD38Vdl8Dp4uBpOgECBAgQIECAAAECBAgQGFagmMCxBs6wVHYSIECAQLkFJHDKHd+y9k4Cp6yR1S8CBAgQIECAAAECBAgQIGAKNd8BAgQIECCQCUjg+CJ0o4AETjdGTZsJECBAgAABAgQIECBAgMBoBIojcKyBMxoxxxAgQIBASQUkcEoa2JJ3SwKn5AHWPQIECBAgQIAAAQIECBCosEAxgWMKtQp/EXSdAAECBCRwfAe6UUACpxujps0ECBAgQIAAAQIECBAgQGBUAgODRxmBM2hhiwABAgQqJyCBU7mQl6LDEjilCKNOECBAgAABAgQIECBAgACBNgID/YOVEjiDFrYIECBAoHICEjiVC3kpOiyBU4ow6gQBAgQIECBAgAABAgQIEGgjUBiAk0yh1gZIFQECBAhURUACpyqRLlc/JXDKFU+9IUCAAAECBAgQIECAAAECgwINI3A8AhiEsUWAAAECVROQwKlaxMvR375ydEMvCBAgQIAAAQIECBDoFoEVf7kqrbjtipRWLu+WJmsngS4WGByCs/SCk7u4H5pOoMMFemenvs12SX2b7tThDdU8AtUVkMCpbuy7uecSON0cPW0nQIAAAQIECBAg0GUCS84/KS3xELnLoqa5ZRHwZ68skdSPThaYt/Btad7e/9jJTdQ2ApUVkMCpbOi7uuPGT3d1+DSeAAECBAgQIECAQHcJLL3ke93VYK0lQIAAAQJjEFh6yeljONqhBAhMp4AEznRqu9dkCUjgTJak6xAgQIAAAQIECBAgMKLAwOKHRjzGAQQIECBAoFsFBh57sFubrt0ESi8ggVP6EJeygxI4pQyrThEgQIAAAQIECBAgQIAAAQIECBAgQIBALiCBk0t47yYBa+B0U7S0lQABAgQIECBAgEAJBebt/U8l7JUuESBAgEAVBKwtVYUo62NZBCRwyhLJavVDAqda8dZbAgQIECBAgMCQAkuWLEl33313yt/jwDXXXLPhNeTJdhCYgMC8hW+dwNlOJUCAAAECMycggTNz9u5MYKwCEjhjFXN8JwhI4HRCFLSBAAECBAgQIDBDArfeems666yz0qmnnpquvPLKYVux+eabpwMOOCAdeuihaeeddx72WDsJECBAgAABAgQIECDQSQISOJ0UDW0ZrYA1cEYr5TgCBAgQIECAQIkEHnzwwXTEEUekLbbYIh1++OEjJm+i65HsOf7449Muu+ySnv/856fzzz+/RCK6QoAAAQIECBAgQIBAmQUkcMoc3fL2TQKnvLHVMwIECBAgQIBAW4EYbROJm0jGjLdE8iaSOJEEimSQQoAAAQIECBAgQIAAgU4WkMDp5Oho21ACEjhDyagnQIAAAQIECJRQ4M1vfnOK12QlXSIJFImcybpeCcl1iQABAgQIECBAgACBDhCQwOmAIGjCmAUkcMZM5gQCBAgQIECAQHcKRKIlRt9Mdom1c2JEz0hr6Ez2fV2PAAECBAgQIECAAAECoxWQwBmtlOM6SUACp5OioS0ECBAgQIAAgSkSiFE3U7lmTYzAmcyRPVPE4LIECBAgQIAAAQIECBAgQKBrBCRwuiZUGkqAAAECBAgQGJ9ATHM2FSNvmlsTI3AOPPDA5mqfCRAgQIAAAQIECBAgMOMCRuDMeAg0YBwCEjjjQHMKAQIECBAgQKBbBG699dZ0xBFHTFtzY5TPdCSLpq1DbkSAAAECBAgQIECAQCkEJHBKEcbKdUICp3Ih12ECBAgQIECgSgIf+chHpr27xxxzTHr44Yen/b5uSIAAAQIECBAgQIAAgaEEJHCGklHfyQJ9ndw4bSNAgACBRoFbbrklLVq0KG2//fapr6/9X+GPPvpouvTSS9M999yT5s2bl9Zff/20yy67pNmzZ6clS5ak66+/Pq233nppww03bLx4h34aTZ87tOmaRWDGBWL0zde+9rUxtWP//ffPjj/rrLPGdF7x4Ljvd77znfTMZz6zWG2bAAECBAgQIECAAAECMyYggTNj9G48AQEjcCaA51QCBLpX4JFHHkk33XRTw2vx4sVDdiiSJvnxf/nLX4Y8bip3HHfccWnLLbdMO++8c9pzzz3b3uqzn/1slrBZuHBhet3rXpfiQexuu+2WNtpoo/TAAw+kHXbYIT3jGc9Im2yySTr99NPbXqOTKkfT505qr7YQ6DSBWPtmrOXMM89M8Tr66KPHemrD8T/+8Y8bPvtAgAABAgQIECBAgACBmRSQwJlJffcer4AEznjlnEeAQFcLxIPFbbbZpuH1nve8Z8g+ffvb364f+4IXvGDI46Zyx9lnn12//EUXXZQlZOoVtY2f//zn6cgjj0yRnGouz3/+81OMZPnzn/+c7erv78+Obz6u0z6P1OdOa6/2EOg0gfGMojnhhBOybsTUa6ecckpaY401xtWtO++8M91///3jOtdJBAgQIECAAAECBAgQmGwBCZzJFnW96RCQwJkOZfcgQKArBL7yla+kK664YkbaGomXjTfeOMXImaHKi170ovquXXfdNa211lr1z7HxzW9+s+HzAQcckP0G/cEHH5z+8R//MW277bZp0003zY7p6elJxes1nDhNH77//e9nfY5+33fffW3vWmxjuz63PUklAQKZwG233ZZiKrOxlsMPPzy9+c1vzk5705velM4///xxJ3Guvvrqsd7e8QQIECBAgAABAgQIEJgSAQmcKWF10SkWaL+AwhTf1OUJECDQiQIxKuXd7353uvDCC6e1ebEuTSSPHnroobRgwYIh7/2BD3wgRVImpnOLNW2aS4ywyUskas4444wUiZpiue6669JVV12VNthgg7TFFlsUd0379kknnZT++te/ZvdduXJl2/uP1Oe2J6kkQCATmMh0j6eeemqW/PnBD36QTdt45ZVXZn//xN8fYyl/+MMfhk1Mj+VajiVAgAABAgQIECBAgMBEBCRwJqLn3JkSkMCZKXn3JUCgIwV+85vfpNNOOy29/vWvH3f77rnnnhQPLR9++OFsPZqnPe1pw/72+v/+7/9myZu44YoVK9Idd9xRv/fqq6+e4hUl1rBZbbXVstff/va3tOGGG9aPi41HH320/nmdddapJ0f6+vqydkSCKq6Rj8KJRFB+7fqJT2zEtWI0UoyMiXvGGjoxgqe3t7f50Ozz3Xffna655poU7YoSbYu1doZKSN1+++3p3HPPzY6N/9x1111Z32N77ty5ad11143NEfucHfTEf8bi/thjj9Wndlp77bXTKquskl0lRixEkmvZsmVpq622Sttvv31LEqx4T9sEOllgqJFto21zjLyJ6RdjGrVYeys+x4ic8UzLNtp7Oo4AAQIECBAgQIAAAQJTJSCBM1WyrjuVAqZQm0pd1yZAoCsE9thjj2xESt7Yo446KsUD/rGWSy+9NPtN8/XXXz+bnuyVr3xleu5zn5slT+KhZ57cyK+7ePHi9OEPfzib3iyvizVqNtlkk/rrs5/9bL4rHXHEEfX6SKbkJR6q7rnnnil+Qz4vkXzJr7P77rtn1bEWRV4X78Vr5+fFiJg3vvGN2fRscc3oQ0xjFkmomOrsU5/6VH5o9v6lL30pe7AbI3riuIMOOih77b333mm99dbL1uRZunRpwzkx1duzn/3sFAmlvESyJ2/ba17zmrx6yD7XD6htjNU9zj399NPr9/voRz+aJc1e/OIXp8033zy99KUvzUYa7LjjjmmnnXbKknHF+9kmUCWB+Hslkjjxvuaaa6YzzzwzHXrooaMmsAbOqKkcSIAAAQIECBAgQIDAFAtI4EwxsMtPiYAROFPC6qIECHSTQPwD/vGPf7y+5kOMDjn22GPTMcccM+pu/PSnP00HHnhgak5WxAViirSvfe1r6Ze//GW64IIL6lOXffGLX0wf+9jHRn2PoQ7893//9/Tb3/52qN2jrr/55pvT8573vGw0TLuTYpRNjBAqlnPOOSebkq1Yl29HEiySRHHet771raz6sssuS4ccckh+yITfx+PefNNYi+eHP/xhuv7665t3ZcmbSOzEqJx4eK0Q6CaB8SSi2/XvwQcfzJKaeRLn+OOPTzFaLZLHI5XmBE6Mbou/EyOBG6/4+7f4XtzO902kLr9GvOfbE7neeM4NozhvPOdORpvj7+1i/5u3b1vUn1asHKi1svYaqCXWa1aPv55Ismd1UR/VUVfYnx/bdG52XOzLj13RmMiv7VAIECBAgAABAgQITLtA/Cycl+Yp5/N67wQ6TUACp9Mioj0ECEy7QEwlFr9RfuKJJ2ajOaIBn/70p9Nb3vKWtNlmm43YnpiWLEatFJM3++67b9p6661TJCwuvvji7BqRGIr7RBInflCIKYkOO+ywbDqifNq0SBIcfPDB9XvGSJWRyqte9arsWjGqJJ8yKUa/vPrVr85OjenURlOibTGVWV5ilE/85n1MBXfJJZekWGOn+TfvI3kU0ynttddeKRIdMe1YeH7yk59MN910U3apb3/729lIo6c85SnZ1GjR5xg1k7vEQbFgej6N2TbbbJM3Ydj38bo3XzRGPUWJUUTRh9mzZ2fT6EW/o4TJN77xjfSud70r++w/BLpFIP8zNdH2xki0SNbE30+RzMlH5IzmupGwefvb3z6aQx1DgAABAgQIECBAgACBKRWQwJlSXhefIgEJnCmCdVkCBLpHINZ7iYRK/FZ5jECJEtObve9978um2hqpJ1/96lfr66nEsZ/73OfS4Ycfnp0WPxz80z/9U4pjolx44YXZaJm4zz777JO9brjhhvq6N5F4+a//+q/s2NH+J6ZWi3LRRRfVEzgxFdhYrvP73/8+xfo/eVm4cGGK0S3z5s3Lq9If//jHbC2cekVtI6Y+i7VnnvSkJxWrs1FG0b+8RLImEjix/k606z/+4z8aEjgxAiqmnhtLGa97u3tsueWW6Xe/+1027VvsjzWQmtsvgdNOTl3ZBSJpG383RvImRuDESMNbb7111N2OUScKAQIECBAgQIAAAQIEOkFAAqcToqANYxWQwBmrmOMJECidQD5yJtbCiQf3p512WtbH733ve9lomVjPZdasoZcM+8UvflE3WWONNdI73vGO+udIDH3wgx+sJ3BixxlnnFFPFNUPnOGN8847r6EFMbKmmLyJnZGAaVfy5E08qI3pkiL5FaNYiiVGy0x2mUz3GCEQybO8vOAFL0irrbZaNvoo6pqngcqP806gkwWe+tSnTqh5Rx99dPrIRz6SXSPWvomRcjECZywl/u5sTuLMnTs3S5rHvvg7Mt6L25NZ19vbmzU3v2bz+1Tdt3jd2I7SXDddbenr66v/G5a3oXjvD14ykB5c1pNqwai9oq09aaC23RPbWV2tvlYX++K8+nGxndW31jWcm12zduTswV8IePCY3WrnKgQIECBAgAABAgSmV0ACZ3q93W1yBCRwJsfRVQgQ6GKBlStX1lv/qU99KpsSLJIQUd7znvdk06DNmTOnfkzzRj4FV9THFGLxcLJYom7+/PlZYiPqY62ZTivFPkTbYmTNaMqNN96YvvCFL6Rzzz03/elPf0pFy+L5xR+SivUT2S62eaLuMUVUc1l33XXrCZzmB9DNx/pMoBMFRjMF5FDtPuWUU9Kb3vSmbPepp55aXyNsqOOHqo9r7Lbb4MP6DTfcMJuucKjj1U+/wLw7VqbeJY33jZnBIz2jECBAgAABAgQIECiTQPHZRPbLSWXqnL6UVmDoXykvbZd1jAABAkMLbLLJJumoo46qH3DVVVelk046KUvA1CubNooLhQ+10H2xvhNHc+TrvUTX4je011prraZetn6MtW923HHHbEq0mAYuT97E6JvVV1+99YRJrplM93b99cPcJAfM5aZdINbA2X///cd83yuuuKKevIlRN/Eab3n6058+3lOdR4AAAQIECBAgQIAAgUkVkMCZVE4XmyYBCZxpgnYbAgS6RyASOBtvvHG9wR/60IfS8uXL65+bN2KkRl7+9re/5ZsN78WkzXQkNxpuPooPq666av2ofCq0ekWbjRUrVqS3vvWtKRYojxKjjk488cR01113pZiS7tprr21z1uRWTaZ7PsXR5LbQ1QjMvMDChQvH3IjNN988myrt+c9/forRN+MtMf1kjD5UCBAgQIAAAQIECBAg0AkCEjidEAVtGKuABM5YxRxPgEDpBeK31o899th6PyMpc9xxx9U/N28U14aJacQWLVrUcMg111yTJTXyyqc97Wn5ZvbeCSM94oFtsVxyySXFjy3b1113Xbrvvvvq9f/yL/+S4rX++utnayTcc8899X3tNiajzxN1b9cudQTKJhBTmMXaXGMpu+yyS4rX+eefP5bTWo59wxve0FKnggABAgQIECBAgAABAjMlIIEzU/LuOxEBCZyJ6DmXAIHSCsSDx+c85zn1/sVUakOVV73qVfVdsXbORz/60frnGKmSLwKeV77sZS/LN7P3efMGF3aOESyPPvpow/7p+LDnnns23CZGHT3wwAP1uvgh56c//Wn6yU9+ktXlI2/yA5ofEJ988sn5rrbvxT7HAZH4GmuZqPtY7+d4At0oENM3Hn/88WNq+q233priNZESo2+e+cxnTuQSziVAgAABAgQIECBAgMCkCkjgTCqni02TQN803cdtCBAg0HUCJ5xwQrb4dvEf+HadeOUrX5l23nnndOWVV2a7P/OZz6Szzz47bbvttunqq69Ot9xyS/20SJTEg81iiZEkP/7xj7OqGL3zrGc9K3vdcccdaZtttklf/vKXi4dPyXa0KUYGxciaKJdeeml271133TUbURN9i+TS5z73uWx/tKu3t7e+7k3Ux+eYHu5nP/tZluzJDhziP8XRM3FIGO67777poYceSn/9619TrMExUpmo+0jXt59AWQRiFE4kcYZLRE92X+N++bpYk31t1yNAgAABAgQIECBAgMB4BIrPdyZjZpDxtME5BMYqYATOWMUcT4BAZQQieXHIIYeM2N/Zs2en73znO2nTTTetH3v99dens846qyF5s9VWW6Vvfetb9WPyjTe+8Y2puAbLDTfckL75zW9m0xc99thj+WFT+h4/uHzjG99omGrp73//ez0ZE8mbYokRN9HuvETiJUbtvOc978mSNzvuuGPab7/98t0t7y984QvThhtuWK+Paeq+/e1vZyN8ilOz1Q9oszFR9zaXVEWgtAKxlk3zSLmp6uwpp5ySJbWn6vquS4AAAQIECBAgQIAAgfEISOCMR805My0ggTPTEXB/AgQ6WuATn/hEWrBgwYht3G677dJll12WDjvssJaHpGuttVZ697vfnS6++OK0ySabtFwrRu/Ew9UnPelJDftWXXXVtP322zfUTeWHZzzjGVkbY2qyuXPnNtwqEkyRdIlRMnk58cQTswRXMfkUSZWDDjoo/fKXv0xHHnlkfmjLe0yh9sMf/jAb9VPcGaN4YgTSaMtE3Ed7D8cRKINA/D1z5plnTnlXDj300BQjfhQCBAgQIECAAAECBAh0moAETqdFRHtGI9BT++IOjOZAxxAgQIDA6ASWL1+ebr/99hSjSiJ5EyNvikmOoa4S0w398Y9/TI888khae+21sxE9c+bMGerwKa1fsmRJuvnmm1NM6TZ//vy0xRZbZNOjtbtprJVz0003pWjrlltumVZbbbV2hw1ZF1PM3Xvvvdn1N9544zGfn194vO75+d4JVEEgksWHH354Nl3hZPc3kjdx/bxEUjtexRIj7zbYYINile0ZFjjonJXpviWNjYj/OehprJrUTw8es1vL9dY8+uKWOhUECBAgQKAbBDr937Vz9+vtBsbStDGmUY//Ny2WWGN3NL8YWjzH9tQI9PX11ad6jjWL45dIFQKdLmANnE6PkPYRINB1AjEKJRIZ8RpLiR8cYh2aTigxQma0bYkkVUw3N94SyaF4TbSM132i93U+gW4SiNExMRpn4cKFk5rEiWnT4toKAQIECBAgQIAAAQIEOlWgOI7BGjidGiXtahYwhVqziM8ECBAgQIAAgRILRALn1ltvTTFiZqJl7733Tr/61a8kbyYK6XwCBAgQIECAAAECBKZcQAJnyondYAoEJHCmANUlCRAgQIAAAQKdLLDmmmtm053FFIbjSeTstNNO6Qc/+EE6//zzs9E8ndxXbSNAgAABAgQIECBAgEAISOD4HnSjgCnUujFq2kyAAAECBAgQmASBzTffPEvkHH/88enMM8/MXjE656qrrmq4+mabbZbi2AMOOCB7xbZCgAABAgQIECBAgAABAgQITK2ABM7U+ro6AQIECBAgQKDjBWJETqxhEy+FAAECBAgQIECAAAECZRMw+qZsEa1Of0yhVp1Y6ykBAgQIECBAgAABAgQIECBAgAABAgQqJyCBU7mQl6bDEjilCaWOECBAgAABAgQIECBAgAABAgQIECBAgECzgAROs4jP3SJgCrVuiZR2EiBAgAABAgSmUOCmm27K1r555JFHsrtceeWVaeedd862FyxYkHbaaae09dZbT2ELXJoAAQIECBAgQIAAAQJTIyCBMzWurjr1AhI4U2/sDgQIECBAgACBjhQ4//zz01lnnZXOPPPMdOutt47Yxs033zwdcMABaf/9908LFy4c8XgHECBAgAABAgQIECBAgAABAuMXMIXa+O2cSYAAAQIECBDoSoEYXfP85z8/ex1//PGjSt5ERyPJE8fn58Z1FAIECBAgQIAAAQIECHS6gBE4nR4h7RtKQAJnKBn1BAgQIECAAIGSCTz44IPpiCOOSLvsskuK0TcTKXF+XCeuF9dVCBAgQIAAAQIECBAg0KkCEjidGhntGklAAmckIfsJECBAgAABAiUQiCRLjJyJETSTWfIROZI4k6nqWgQIECBAgAABAgQITKaABM5karrWdApI4EyntnsRIECAAAECBGZAIKY622KLLdJUTXk21defATK3JECAAAECBAgQIECgRAISOCUKZsW6IoFTsYDrLgECBAgQIFAtgXzkzVSPkInrH3jggaZTq9bXS28JECBAgAABAgQIdIWABE5XhEkj2whI4LRBUUWAAAECBAgQKItATJs21cmb3OrWW2/NpmnLP3snQIAAAQIECBAgQIBAJwhI4HRCFLRhPAISOONRcw4BAgQIECBAoAsEDj/88CmbNm2o7sd0anFfhQABAgQIECBAgAABAp0iIIHTKZHQjrEK9I31BMcTIECAAIGyCixdujT9/ve/r3cv1gzZaKON6p9tTI7ALbfckhYtWpS233771NfnR5HJUW29SoyGOeGEE1p3TENN3HefffaZhju5BQECBAgQIECAAAECBEYWkMAZ2cgRnSngqUlnxkWrCBCYYYGbbropXX/99envf/97mjNnTnryk5+cdt1117TGGmsM27L77rsvPfTQQ/Vjttpqq9TT01P/3Lw/dsT+1VZbLa299trjfpgdP4hEe2+88cb06KOPptVXXz095SlPSdtss03D/esNKWwsWbIk3XHHHVlNtCXaPFQZr0vz9aKd8QA/LwsWLEjbbbdd/nHG3u+6666055571u//6U9/Ov2///f/6p8nstEc++bvxl/+8pe0bNmyhlv09vZm37k111wzzZo18qDZlStXpkiONJdIksR3Ir5j4y1DXTv+fKy11lrZd3g01z7uuOPS+973vuzQ3XffPf3f//3faE5zzDgEPvKRj4zjrNZT4u+94t9rrUe0r/nyl7+c9ttvv/Y71RIgQIAAAQIECBAgQGAaBSRwphHbrSZVQAJnUjldjACBbhZYvnx5igeOn/nMZ9o+BI+H6fEb5cccc0yKB8/tyoc+9KH0P//zP/VdDz/8cIrkRF6a9+f18R7Jkx122CG7xzvf+c5hEyn5eStWrEif/exn0xe+8IV6EibfF+8bbLBBeu1rX5uOPPLItMkmmxR31be/9KUvpfe+973Z51122SVdfvnl9X2xMRkuxQvG9Z7znOek+++/v14dCax77703zZs3r15Xto3m2Dd/N/bdd9/0xz/+sW23586dmyUQX/7yl6e3v/3tKRI67UokiSJpN1RZZ5110gtf+MIsKfWsZz1rqMPa1o907WjTHnvskV7/+tdnr6FG1px99tn161900UXpgQceyBJA9UobkyIQo2++9rWvTfhahx56aDr++OOzadhiLZ2xlB//+MfZn/UnPelJYznNsQQIECBAgAABAgQIEJh0AQmcSSd1wWkSGPnXeaepIW5DgACBmRSIh8jxAD0SJ+1GMETbYgTCL37xi+wh9ec///lJb278MPGHP/whe1i67bbbpg9+8IPZPYe60d/+9rf0ohe9KL3//e9vm7yJ82JESUxlVEyWNF+v+JA3HtYWy1S4/PSnP21pTyQzfvSjHxVvPSXbkWDYeOON0wc+8IEpuf5UXTSmdvvNb36T/vVf/zVtttlm6fTTTx/XrWJE2Xe/+90sAVlMNI7rYk0nPfjgg+knP/lJOuSQQ7JE5NVXX910xOMf4zublxjVFqN3urHEqLVIisb36Yc//GHHdeHMM8+ccJuOPvrodOqppw6ZMBzNDa666qrRHOYYAgQIECBAgAABAgQITKmABM6U8rr4FApI4EwhrksTINAdAvGP+Bve8IZ0/vnnNzT46U9/enrd616XXvGKV2RTqOU7+/v703ve8540GQ9II1ETU53FQ+DiiIW4xyc+8YnUnFAptmH//fdvaHOMEHre856XXvOa16TnPve5afbs2dnhz372s9NOO+2Un9rwHg9X8wescXw45GWqXL797W/nt0gxIiQv3/rWt/LNKXmPqbp+97vfpb/+9a/ZqI/R3KQ4/d1ojp+sY2IkUnwv4rXeeus1XDamnovv5UknndRQ3+5DTJkW14hEQ3w/8hLJyEhWxlR24y35tWPET/OIoBhJFN/BWMy+uUTy7Lrrrksx+iaSUt1avvGNb2SJ0/g+PfbYYx3XjWJidjyNO+WUU1I+BVv83XjggQeO5zJtvwPjupCTCBAgQIAAAQIECBAgMAEBCZwJ4Dl1RgUkcGaU380JEOgEgRiR8LOf/azelHgw/atf/SpLbJx22mnprLPOyh7UNo/aeMc73tGyZkn9IqPcuOyyy9INN9yQbr/99mxUSoyKKK6zE0mNmNatucSomkhG5CUWg481cC688MJsdMZvf/vbdOedd6Zjjz02HXXUUflhLe/x2/V5eelLX5rWXXfd/GM2UmOyXR555JGGkTbxG/55iZE5MeKnXYlp12LEQ/5q98A8Rhnl+2PkUXP56le/Wq+KdYLyY+M9Rri0K/mUbrH+x7nnnpt+8IMfpIsvvjibVq7d8ZNVF/GM70W87r777izpFGvxFBNKhx12WLr22muHveWb3/zm7Bqxvk5MgRaJn7zE9Htf//rX849jfs+vHUmgiFska172spfVrxPG8dC/2TaOjSnzNtpooxSjyIYq8cP1Nddck2IarhjhEtePxGa7EgmpPJ7F71CMCjrvvPPSGWecka2107zGUPO14nsViaVIzsYrkn4xOqy5RDuKCZLidy/aMdMl1rVqlzwbTbvi758rrrgivelNb8oOj78jYuq0sBxPie9H/PlVCBAgQIAAAQIECBAgMJMCEjgzqe/eExGQwJmInnMJECiFwH/913819CMeWC5cuLChLkanfPzjH2/4LfR4sP7973+/4biJfIiH2m9729vSz3/+84bROB/96EdbHoBGAicv8+fPzx5yN699EutORPLmVa96VX5ow3s8wC+Ohskf2OYHTYVLPBTPky/xoPif//mf06abbprdMh6uD+UZiYoYRZK/2k0hFnb5/ljLJy8xQiISFyeffHJelb75zW/Wj41z4kF9uxLrF4V/jIKJqb9e+cpXZtOPxTRmkzECq90929VtuOGG6dOf/nQ67rjj6rvjoXisxzTaElOVffGLX2w4PBIkk1VilFdMgxcjw/IS67B85StfyT9m70cccUTdPkagtSuRHNl8883TjjvumPbbb7/smhHTcDjxxBNbTokEaB77f/iHf8iSRu9617uykXOx5k/8GYgRQXFMu+9OJJkOP/zwLIEZ6zNF4ilecU4kdF/wghfUR7tFAi+mfiuuVxTJtPz+8T7TJf5uGk+JGEbiZ+edd85Oj1hFom6iJRKgCgECBAgQIECAAAECBGZSQAJnJvXdeyICEjgT0XMuAQJdLxAjQuI37vOy9dZbZw+M88/N7zF1WrHEqIzJLrvttlvDSIlIQBTbGA+Qb7vttvptDz744Oxhd71ilBsx4uXee+/Njo5kT3H0xFS5FBNGL3nJS7Jp3mKKurwU9+d1E32PJFG7h/ajuW6MfopRQs2jSGKET0xV9/vf/340l5m0YyLJkCe84qIxOqW5bcPdLJI4+aiiOC5GakxmiRFCn/rUpxpGCv3v//7vmG7xb//2b9nojxg11FzuueeebOq3I488snlX/XPEJBJtkYBsHvkR3/eYJrA5YfeWt7wlWysqTy7WL1bbiERnjMjLrSIhdPnllxcPKcX23nvvnSWpInEWo20igXX88ceXom86QYAAAQIECBAgQIAAAQkc34FuFejr1oZrNwECBCZDIBZaj+mX8rLXXnvlm23f47fzY62aeKgbZaoe5MZ0ZsU1YWJKtD333DO7Z3PSYN99983qx/qf4hRQ8VA7XzMnrjMVLjFd1jnnnFNvZoysiBIjNvLRPr/+9a+zqbBiTaDJKpGYihEzMfok/4EtpigrjrKK6bzalZimbtVVV02vfvWrs6ntYjq9PHkW34FIVnzve99rd+qU1M2aNSu9+MUvrq9/s3jx4my6q913331U94vERZ6IiBOG6veoLjbEQTGqJhKhf/rTn7IjilP9DXFKvfqCCy7IRrrlFZFUiFFk8d2M6QXzZNBnP/vZLCbx57G5xPRmZ599doqRaRH7DTbYIPv85z//OTs0/rzHSKb8WjH9WUyVmJc99tgjxeidKDGVWEyxGOsHhXuUGOkVI4tiWra8xJ/B5hFw+b6ZeI/2jaXEWlsx8jBKJG9iyrTxTsGWXaTpP5GUUwgQIECAAAECBAgQIDCTAvnzgGhDcXrymWyTexMYjYAEzmiUHEOAQGkFmtfgKI5uaNfpOXPmZNNpxaiYKM3ntztnPHXND4OLUyI1r+8SD8vHWuKhdUx3lZd4gFsszf2aDJcYBZMnvuKBeCSposRD+jXXXDN7cBwP3+Nheqz3MlklRuBE+e///u96su55z3tePWk03H2inZFUesYznpEd9u///u9pyy23TDFCKUpxZFRWMQ3/Ge670Xz7SPBELGP9m0gCFtccimPHm/xrvk/z52hjnsCJhFEkBSLGI5VIzOQlpkuLRMwqq6ySVe2zzz7Z1GV50jSmZmuXwImDI8kaa9/k+2OquRhZsmjRouxaMYotL+FTXFsnvhv5WkHx/olPfCLFn7n8B/zPfOYz6Te/+U1DAiemGXv961+fX7Kr3iMuMbIrLzE14GQmb/LreidAgAABAgQIECBAgMBMCkjgzKS+e09EwBRqE9FzLgECXS/QPGVScXqpoToXv9mfl1iofSpK8R5x/XgQn5dIvhRL/oC7WDfS9ne+852UL+i+ww471BMU+XlT4VKcHi1GE8V0XlFidEWezInPxePi80yWmC4rT95EO9Zdd90s4ZS3qTkWef1Uvg/33Wi+b4w6ijY/7WlPS29961vTnXfeWT8k+hUji6aijKWN+f0jiRJTleUlRoFEXSTL4hXfyajLy6WXXppvtrzHekV58iZ2xnctEoV5KcYtRnvNnTs335WOPfbYzCWfZi0SN5FM6qYymmRZ3p98xE2+ptOb3vSm9IMf/CAbcZYf450AAQIECBAgQIAAAQLdLiCB0+0RrG77jcCpbuz1nACBmsDqq6/e4DCahEw++iJOXGONNRrOn6wP8VC1WGIh9bzElF7F0pxsKe4bars4fVo8sG0uk+0S65kUp9KKKb+K0zw9+9nPriduYtqq66+/Pj31qU9tbta0f84Xcy/eeL311qt/LE6/V6+c4o3hvhujvfVzn/vcbAqxGGEUJRInBx10UNvTY7RZflzbA9pUjqeNMcrl4Ycfrl8tphAsTiNY3/HERvMoseL+nXbaqfgx245EVl6KI24iARprW8V0eHmJ6dXi9axnPSvF9F8HHHBAvqsr3seSwIkORbxizZtTTjklxd8H0d/zzz8/m2bwoYcemnCf//M//zPFOltRIhkW09opnSNw0Dkr031Ny2EN1JrXM4VNfPCY3abw6i5NgAABAgQIECBAoFVAAqfVRE13CBiB0x1x0koCBKZIYP3112+48k033dTwuflDJG9iIfW8FB/m53WT8X7VVVc1XCamf8rLk5/85Hwze7/lllsaPo/0IZIj+To68WD+4IMPbjllsl1iVE3xh6VPfvKTaYsttqi/ilM4RWPGMwonn56tpTMTqCgmzvLL5FNp5Z+n+32470ZzWyI5Ed/RTTbZJEUyKqbKi3V8LrzwwlSM8dKlS7PvdXy3m1/FuDVff6jPf/jDH+q74j7FES71HU0bxcRo0662H4eLdz66q3jicHGL72OMvFlttdWKp6QY5ROJjZgebSaSdQ2NmYYPMRVcvKLE9yWSrO2SYdPQFLcgQIAAAQIECBAgQIDApAoU/992uP8/nNSbuhiBSRAwAmcSEF2CAIHuFdhxxx2zxc7zKcp++ctfZg9qhxpxcO655zYkImLkyFSU5gTGwoUL67cpTukVldHmV77ylfX9I20UR9+85CUvaXiQn5872S7N/cnvM9R7HP+xj31sqN0Na5bkBw03IiM/Zqzvs2Z11u85PPDAA+mnP/1pvRsxkuEpT3lK/XPzxjve8Y503HHHNVdP6edf/OIX6d57763fo/jdrVe22WhOnkTi5LWvfW2bIx+vap6mrXjgWOMWP7wfddRR2TRzX/rSl7L1kYprTX33u9/NpmALz24okfCN0YHjGT1z6qmnZombmEYtRvLESJxIsBb/3hiLQcQpH30zlvMcS4AAAQIECBAgQIAAgckUkMCZTE3Xmk6BznoyNZ09dy8CBAjUBGL9lRe/+MV1ixh9EIvdtyvxG/+xoHmxvPzlLy9+nJTtz33ucw3TjcV0V8WH9LG2R/FhdzxYveOOO0Z175g66pvf/Gb92BiR0a5Mpsu1116biiMyFixYkNZZZ52WV7FPN998c7rooovqTWtOqBVHQcVBsZ7P1VdfXT++3Ua3/4ZNfP9iHZviNH/5aIl2/R1L3b777putsxSJzOZXX9/of9cjEjeHHXZYw63f8pa3NHwe6kOM1ClOSRgjXmLky1Cv/ffff6hLjbs+Ru588IMfTPH9i2m/it+Zs88+u37dYn29ssM2JjLtWyRtYr2hGIETSZxI6gz1d8VI3W43DeFI59hPgAABAgQIECBAgACByRaQwJlsUdebLgEJnOmSdh8CBDpW4IgjjmhoW3z+whe+kJYsGVwUIB5kxoiASy65pH7sDjvskOLB90RL/BARa1Dk65C8973vrV8yEhcxvVOxxBo4sU5FXmLqqWhHsW2xb9GiRdli5DE1VF7OOeecFGuaRImH1a94xSvyXS3vk+XSvI7Jz3/+8xSjZZpf+aLxeUOK50XCp1i+973vpZj2Ky/HHHNMw/opeX3xfd68efWPf/rTn+rbnbwRSYy77747ff/730977LFHti5L3t5IeBx55JH5xwm9x4iV8Gn3GunCEYc///nP6cQTT0wxOqw4DeGLXvSiFK/RlGjDS1/60vqhP/rRj9J5551X/1zciGRd8zo7xf1j2Y7rFJOFcW44RCIn/oznpfh9K36XYn8nfp9GO/Ip71/z+5VXXpl22WWXFO9RPvKRj2TvY/3PtttuO9ZTHE+AAAECBAgQIECAAIFJF5DAmXRSF5wmgdH/Wu00NchtCBAgMN0Ce+21VzZqIB5AR1m+fHl697vfnd7//venzTbbLBuRcNtttzU0a86cOdmUQhP9TfziqJOGG9Q+xLU///nPpz333LN5V/roRz+aJWfykTexrs1uu+2WLRAeyY546B8JkvgBJdawiL5EKU6DFCMbhlubZLJcTjvttHr7YyH53Xffvf65uLH99tunLbfcMhv9EPWnn356itFIMQIkFj4v7rviiivS05/+9CxhcN111404+iauF6OYLrvsstjMpp2LB9wbbbRRuuGGG9I73/nO+tof2QEz/J9o53DfrfjexFo27dboma6mf+Yzn0nxGqpst912qRj7oY4r1kfS5IwzzsiSc/HdjdFxr3vd67JYx8ij+L5ffPHFKWIe3/kYHTLREn9OYlRbrMm0zz77pPgeRpL08ssvT9dcc02EeQAVAABAAElEQVT98sWpC7feeusUCacY0RYlpvuLREfUxXkxjdxWW21VP3cmNmIETkx9Np5p1PL2RnIrkjhxnUhij7XEaDsjcMaq5ngCBAgQIECAAAECBKZCQAJnKlRdczoEJHCmQ9k9CBDoeIHjjz8+xRRV//M//1Nva0wlFQ/3m0s8NI4REcUHus3HTPTzpptumrUl1qhpV6INMZom9heTS3feeWeKV7sSI3LOPPPM+q7iKJ56ZdPGRF1+97vfpVtuuaV+1Ze97GXZQ+56RdPGfvvtl0444YSsNqbjijWHcoMPfehDDUmWG2+8McUrSiQ7YoqnmOppqBL78wROHHPBBRfUD+2mBepjSr3o5zbbbFNvfydtRBLjkEMOyUaxDZegbNfmGPESfYvvZox4ibjEekhjXUOp3bVHqovv6cknn9z2sBjtFEmMvMRUb5EgiWRTlEj65tvxufg/BvF5Jkr8HRFtjtFpEy3x98B4ytve9ra0yiqrjOdU5xAgQIAAgdIJrLj18tS/6J6Gfs1aY4PUt9nODXX5h/5H/p5W3vn4/4v0brhdmrWgcUR6fpx3AgQIEBidQPH/04b7hcnRXc1RBKZPwBRq02ftTgQIdLBAjPKItW9i7YdY1yZ+A7+5xG/ov+9978uSBvGb+pNV4t6xyHc8vI71QmJ6sJiSKk9cDHWfGOEQU0l9+MMfzkanNB8X69gs/P/ZOw84qcqrjZ+Z2dnG0jvSm4AiYFcwQFRiQ8GOGoEUNcaCUaMmUSSJX5oRNNGo0QjGmqhg7IoCKioKCAIqClJFet0yu9O+93nhDrfN7szszO7M7nN+Xubet7//e1mX+8w5R3mZXHvttboKHi0QpWDoe+yxx+rz6v6oLZenn37aMjwEmurMXm9+cY+X+rhH7dq1swyBEE3PP/+8IPl8dS+LkZsF4engPWU2vJyHYJaNBg8prA9eS3gZ//7778v8+fOzSrzB35UuXbroUGkQCxBCDSJMsuKNwR+eYfCyOffcc6WoqMgojn127txZh46D91Q6DB5r559/vut6Mf+4ceN0iDXcB7NB7DWHfDPqBgwY4DqWUV+Xnwh7Bi/C+jDMe8kll9TH1JyTBEiABEiABOqEQDQYkGg4mPBclR89LeUz77QclQsOeqqbBwp+OU/23jtWyp7+hT5wHlz5rrkJz0mABEiABJIkQAEnSWBsnjUEPOrhjWbNargQEiABEsgSAvhG/fr162Xnzp36hX/79u31i/QsWZ7rMhA2DQfCOiFUGdZsFytcOyZRmA1csD943sCjCGJO9+7dk9iBCEJxob/BCeIDv32TFMI6a1xVVaVD6iGUF55l3G8IN5m4X3i24c2Gv/P41QgeLAiDBhGzOtu2bZsOL4b1dezY0SEwVte3LurgdYf8XXVtM2fO1MKe2esNa0A4RHCiZQ+BcW+FZVvAuh7848BjLUrr1e4pxznGazF5gaMsWwqqlrwiVZ+75+RKdo3eklZSfPZvYt2i0Yh6OXtT7No4KThqjPgP/Z5xmfJn1WevSdXyt1z7e7w+Kb7g/8Tj87vWuxVWLpqpXiK/51YlHn+BNLngD651LCSBXCcAsQbPPkSU8HcrJbLrW5FIaP+28grE27qL+Dr0FX/P4ySvzwniLWru2HLZMzc7RBh//5HS5MI/Otrue3i8mscaCcDXqb80/el0R1sW1D+BbP//2uzRvvqH1IhWgC9Z4t8WZsMXmxBemFa/BPDvPeP9Ab5wlkqY6PrdAWdvrASqfyvRWKlw3yRAAo2eALxX8PK2vvNYJHMj4CFg9xJIpn8ibbOBC0J0wYMoVYPHCPJ60LKfAESR2tzrZHaIZxu5bZI1iKU4stUQ6m3y5MlpCaWW6B4xH+a1izeJ9mc7Esg2AuHtayX09fy0LAvhkiymBBy3sf09a/aStYwT5yK8fZ3r+EZzhHTy93IKaka9/bPyw6cksmO9vXj/td/pNenekKUkkDsEILJWffycBN57TKJlO90XHqqUyJZV+ggufVVEiaL+Ad+XwpFXiq9lah7D0fI9jrncyhyNWEACJEACJBCXgNmHIRNfCow7MStIoJYEGEKtlgDZnQRIgARIgARIgASymQBCqSEHVF0Y5sF8NBIggdwgkExIpvCWr+OLN7mxXa6SBJIiEKnYI2Uzfi4Vr/81vnjjNqIKqxZc9matPIZ9XY9wjJzX/UhHWa4XBFd9JHv/fmHsCH27Ite3xPWTAAlkMQEKOFl8c7i0agnQA6daPKwkARIgARIgARIggdwnMG3aNL2JGTNmZGwzEG+MeTI2CQcmARJIKwEIONHTb0roRXPV5++kdW4ORgLZTCAa2Cel038mka2rU1pmXq9jxduiU0p90anotBtVWMJCCa1bomJaeiSv2xApPPnqlMfL1o5Vi2cpYXjdweWpUHU0EiABEsgUAQo4mSLLcTNNgAJOpglzfBIgARIgARIgARKoZwLI6TN9+nQZPHiw3HDDDWlfzdSpU2XSpElpH5cDkkA2EPCWtBZv256uS4mW7pCo+pa+xVRuGW/rbpYi48LbLLtCLkb3btV5NvJUbo2aLEgBpyZErG9ABMpmTokr3niKW0heb5XnpoUKiRgJS2T3JgmtWWTx0sk/ckytaHiLm0vx6F/Vaoxs7wwPp+BX72f7Mrk+EiCBBkSAAk4DupmNbCsUcBrZDed2SYAESIAESIAEGi8BiCwQcfC5dOnSWoMYNGiQ9roZMWJErcfiACSQrQQKjr9YcLhZxZv3SeWHT1qqPCp5ebOrn7aUZdWFL18kXBVbErxwahJwwtvWSETlAjpoHhGVkw4vrxuq4SUP4+Pn1t1N1z2Dt1noq/ecm/d4pXD4T6Rg2Hjx+KyvUpArJ6TCgVUufEHCm74Q/6Hfc/ZniYUAwsyJCjdHIwESIAESIAESqJ6A9beO6tuylgRIgARIgARIgARIIMcJQGxZsmSJ9shBvpp160yhSxLcW7du3XSumwkTJiTYg81IgASyhYC/71AJfjEntpzgl+9KkUq2Xp3ZvW98nQ+TiPLegQdPshZVCd+rPntDvez+QHv/RMp26Ze4EL68rbpIXo+jpGDI6ITDTyGHRvCLd/RL8/Cub0WqKnTIKU9hUzVeZ/F16Ct5PY8Tf6/jxJNf5LrcqArbhD1CzAojGf2+7SJBNU5egXiKmomvTXfxHTJAjXG8+LoNVsKOEq+qsXTtMfDBk3pfxlT+Ad+XfHXAIsr7q+rTl/SaI2rf0Yq9an/Fyvurq/IOOV4Kjjlf4D2WiIU3fyVVS1+R0IZlEtm5QaKBMt3NU9JKvM07qKO9ulainYsVjbpOvM3audQohF/PFzxfofVLRHurVZaJp6BEPKp9nuKYf/goyes6yLWvURj8+gO1tleNS/F1PFQKh/4wdh1SYglE1P0eMOpZysuXJhf/Rd/vWKMkTwJzHnLtUXTGL6Xg6LGudXgm/H1O1AeeJ7vA49qpmkL7vUfTvM6HxxWTzUNlhHvbHkq8+rGeJhqqUn+HX9N/Z8IqxFy0dKdanF89B+0lr/sQ/ez52vcxL8lxHtq4XN23pxzlgXmPimfhTEu5zzS3pYIXJEACJJAkAXrgJAmMzbOGAAWcrLkVXAgJkAAJkAAJkAAJ1B0BiC84DDFn7ty51XrlwNsG4g/6wIuHRgIkkJsE8rofZRFwIltXSXjXJvG1jJ+vw57/xj/gZKl897GkAQS/nCflr93tKvxEy3ZKGMeGpVL5/uNScNxFUnjK1eLxuv+TNbJni5Q9/xvV/jPnOqIi0fLdEsahXhRXKa8IUeJG4UkTpXDY5Zb2obWLBOGyonu3WMr1hRKbovu2SQjHmk/UumaIRwkaxWfdJn4lkrhZOvcYVsIHRCXDsCcIOFXL35KKV/6khJZ9RpX+jFaWKsHnc31UfvSMNDnvd+LvO8zSxnwRVYJK+at/kaB6Ge9m2HsYx8ZlbtW6rPB7E0VsAg48tspf/J2EXRLSRwN71br3SpV67qo+eU6JTSdK8Zg7xNukpesckR3rJbjirVhdaN2nMQEnMP/fEnj7AXWzI7F6UfcMuWNSNYxv9TbbP1KeEu/iiTf2uWozvzGW/d7r8kioWgEnk9yD/iIpUMJZZPs6/ffOwSioQsmpXDZVOBa9qMWewhE/NbYT+0TYtMDsB6Rq8YuqTP1FtRn+Ptot2u1IkQPikb2O1yRAAiSQDAEKOMnQYttsIuD+23A2rZBrIQESIAESIAESIAESyBgBiDHTpk2LjR8IBASHYYWFhYKDRgIk0DAI+NS3+OFZghfdhoWUSOCLEyYurF6gQ+QxW37/kerF+T/MRTWeVy74j1S8fo9q53xp6+isXlTDqyK8fY3yprhbiTg+SxMID6XTr1S5R76zlFd7UVUunsISSxN4b5Q+cX1SYZyiezYf8EixDKUv0rlH5+jqlilBB54P5bN+pzDWEL5O7bfsP7dJyY8fkTzltWK3aDgkZU/fJKF1i+1VtbrGGjGuXVyKNyg8sUofmSglP3pEvE3bxGsWK4+Wbpew8hIKKhErnqeMJ44YFBukmpPgyvdcawtPmuBani2FmeYOjzSILoH3HtPeVNXvOyqBeY8I7gM8wcxW8cqflSA321zEcxIgARKoMwIUcOoMNSdKM4Hqfb/TPBmHIwESIAESIAESIAESyG4CEGtatGgROyjeZPf94upIIBUCCFNmNniNxDNH+LROA5QXigqpZcqjE6+vUR5cs1Aq3piqLp3iDRLBe9v12i8qGR0OfIZU+Cy8CLYbvEviijfaY8cl3FdBE8k/4jTLUIG3/hZfvPH5LW2Ni7weRwtCOtkt3Xu0j6+vVb6Q8pl31izeGJ3VPQrM/rtxZfmE94tTvPFIvnrhjhBkxef9XvLieO/4Og+UAuURUTL+AfG26RYbF2HdIBq5iTee4pbqPvdWIlqzWHvjBPey7Llfi/nFmlHn9hmY+4jgiGee4hbxqmosdzJRweNK2oiva/Z6ntYV9wp4z6l7nKgF3nlQokpItFgDzptl2ScvSIAEspKA+f8zzHOXlbeIi4pDgB44ccCwmARIgARIgARIgARIgARIgAQaHAH1QhUJ1iGOGBZav1Qi5XvEW9zcKIp92gUc5GHReWZiLao/QXL3ipf+T4kOpjBXqotX5ZVpcv7vxciVEVW5awJzH3bkxahUeWDs+VyCqz9yTApRofjc3+pQcFH1kjiye5POiwKPlbDaX/6gM3WOGKMj8nggXJbdIGAUjrxCvConT1QJJsiJE1q9QOeIQTgv1NstE3u0z2G/9jRtuz/XSLueap0hlWtmngSXvW5vJqFvPtY5fezeLZWLZjraFgz/kRSNuCJWnn/4qVL672v1GLFCdZJ/5Dk6T5G5DOeB2fcLQuFZTIWuKx4zWfz9hqvcQR4l0kQkuFR5EakQcGYvMIQMgycY2tVkbvvc30cJdyoXDfIfpWphFSLMbr5O/fXa7eXZcl1X3GP7VR58+UeNUfmLVD4olXMopMIYQlQ130+0hZAX/Op9nevI6Ftw7AU6rF+kYp8E3jzo/RurH3q5yjl1UBREuSfBXE7GGPwkARIggXgEKODEI8PybCdAASfb7xDXRwIkQAIkQAIkQAJ1SGD37t2CA7Z582bp0KGDPje8cvQF/yABEshZAkiw7u97klSIeoFueMSocFwhlXA+f9AZln2Fd30r4c0rLWUQcCB+JGpIYh9R41jM41PizV1KvOkdK/bkF0nRqOv3CyZKdIiZCvWGJPbmxPXRsl2xauMkr/uRsTw+CLnma9VFHwXqRTP2gRfNZouqXBx2UQn1YAPxBuZRXjh56uU9DoTQQuJ1X6d+us78Ryb2aB7ffu5t3VWHRjPWiXrkxinPL1T5R2bZm+tcNF6TMIIX644cJqpXwZBzHH3zB492CDjImVMwZLSlLbxAqpa/aSnDRdEpP5f8/iNi5R4lsOQPPlMie7eqEGgPxspxUqnWnoiAE+uk7nP+UWOVZ9Xp4lNClqg8Lcivk+q3qiFiit1jRE3mU7yz1eqcuxJvSiY+pP9OGEyQZ8mnvKvKX7jdKIp96jxIh4+KXSMHF0zffxcBB7mljDaxTjwhARIggTQRoICTJpAcps4JMIRanSPnhCRAAiRAAiRAAiSQXQRefPFFmThxovTo0UNatmypP3F+wgknxM5RjgPt0N4QebJrJ1wNCZBATQSiwUqda8R3yABL06DyfrCb3fvG17GfEkkOiR92zD6Aug5+OddRmtfrOIt4Y25QcPw486U+D6215mnxFDnDcFUueFaqlr3pGoYLa/YqjxWzxfPSQJgo5MZxszyVP8ijQ7RZazOxR+sM1qvCk38eE5nMNW7sUB8ptXrFRFwEMFFiiKeZlRH6elvsF/Fxbhhy0Ngt+NV853OhvG8gsLhZAXIuKTHHbMjjAu+phAxCwg//JsVn3Cz6vqi5INyYRa2ExjE3qiozX8XOPSr8XrZaXXPXnjdK0LSbX3lruXnKQGCikQAJkEC2EKCAky13gutIloD1N6Zke7M9CZAACZAACZAACZBAzhKYMWOGFmXGjBkj06dPl7Vr11a7F4g2aIf2EHimTJlCIadaYqwkgSwkoMJtweBpYrbgqo+UZ02luUjsAo6//8j99Ym+ZFetwxuWWcbEha9dDx1eCZ4g9sPbrJ2jPUKXmc2nhBSHKc8ieADse/BSqVz8P4GnUXXm8ReK1+QBZLSNKHGi9J8TpPTJSRJc9aGrIGS0NT4zsUdjbMenEi78fU5wFKPA21qFnlL1drPnIXETwAT3VIl7dotW2nKYqAbwcLJbeKPbfe6pPVrs9xjXEgkpwch2r5X3S6I5VuARlW5PDfOLPcv+4uRDsrSpp4u65p7fb4TrTiGemT3qjEYIjUgjARIggWwhYP45n6q3ZrbshetoXAQYQq1x3W/ulgRIgARIgARIgARk1qxZcsMNN9Qo2FSHCmLOnXfeKdOmTdPH+PHjq2vOOhIggVoQqPrsdQm8+68aR2h69dOuL9ctHQ/kovH3+541hFWwQoXKWqiEnaG6eWTPZglv+tzSVee/0SVRS3m8C52Lxh4+TTVGXhsciZoOd2ZqjDwaOlSYTXBCk8jW1Srnzl0SeOs+lavlbCk4/hLtcWTqHjstPPEyKZ95Z+zafBJS4g0Ob8vOUnDchTrvC0Qfu2Vqj/Z5jGtv6y4qHJxTpEE9XkbBW8QuxMVC5R0YxFvcQiDiRCv2GsPqT+RCQggrs4U2LDVf6nOEcLNb2CayoT6sQs7t+dMp9qbVXkfLVRgzu7Dj0gM5jWqyfY/+WO1RiUXVWMHR56pnRHkDKYvnaRNVfzey1eqau5voabBx9WqLJvazwhiDnyRAAiSQSQIUcDJJl2NnkgA9cDJJl2OTAAmQAAmQAAmQQJYRgNfM2LFjayXemLcEIWfChAk6tJq5nOckQALpIwCPhciOdTUe9hf17ivY/0LV166XEidUODSTBVfOi11Vff5O7BwnvvZ9ks4FEg2Uqp61f4GLsG9mQ34b5NBx8zYx2oEZRKK9952rxK/HlCdNxKiKfSJ3SsFJE2PXbieRXRul4vV7ZO/fzlfh4A7yMdpmao/G+PZPb0kbe1FK19i73SpUTpLI7k2xYgg6VQv+E7s2Tvz9DnhiGQXqU3vVmK5TPXWKTy4jKQHL27y9S4W1KLJjQ41/ZyLl+3O+oaensMQ6wIGraJk1BJ1ro3oqrFPuvnwVos4ZvvDg1j0HT3lGAiRAAllIgAJOFt4ULikhAhRwEsLERiRAAiRAAiRAAiSQ2wQgtCB/DbxmMmEIrTZkyBCGVMsEXI5JAhki4D/UFkZt5XsxocMRPm3A95NfhYuHTPKDuPfA2pteMUPyelk9Rhyt1RoCcx5U4dXucA2HVvT9q6TJJfeIt013R1dzQXTfNil79hap/OQ5c7FIBvdonWj/lZsXkFu7msoKhv7QkbMksm2NEqoukL3/uFQLVqWPXSnRSohwB82rhL/8IaMPFhhnoSrjLOOf6WJgXyjyG7nlcQlv/cbeNHuuGwD37IHJlZAACTR0AhRwGvodbrj7Ywi1hntvuTMSIAESIAESIAESiBFAyDSILJm0JUuWyMiRI2XOnDmZnIZjkwAJpImA/9DvSeVHz8RGg6dBeOMK7d2A8FdmOxg+zVxa/blrrhXVBWPpfC3Vd4/V4sW6m/na9pCSy+6VkFpr5UdPS/AL9bMnTn6e4PK3pKrHMVJw5DmOofx9hkpe7xNUzp85UrngGZW35zNHm/0FUeWNM1XnXsHcsEzvcf+8pj9VmLR0mLdpW2ky7q9S/tyvJWIOc6dy00S2rnKdAiJXyaXTxONz3g+38Fm+TgOUwHac61jxCt1yIMVrm4lyrDn01XuWocObvlQeRqVxPXQsjev4ok65p+nZq2NEnI4ESIAEYgQo4MRQ8CTHCDh/88qxDXC5JEACJEACJEACJEAC1ROA102mxRtjBRBxIBZdc801RhE/SYAEaknA16GvFJxwac2jeJILsODrOtiRCyW48t0DOWMOhj6D14WvBg8Vt8VpT4n8Yp3I3lyP5PMFx5xvLqrVeV7nwyVPhVSL7NkigQ+e2J8fJ+z0CKlaNNNVwMHkHsUu/7CT9RH69nMJvPeYhBQLhymBo2rJS1J06nW6qq726FhHGgryOvWXotG/krInrlfCVyjuiB4Vtq3gqLFSMEx57cTLv1PSytHf26KjwMOpviz/WPWMVQWqnT6v6yBLPZ4lu4Aj6lmqWv6mIF9OtpknC7lnGyOuhwRIgAQMAhRwDBL8zDUCFHBy7Y5xvSRAAiRAAiRAAiSQBIFZs2YJ8t7UpUEsatWqlRx66KF1OS3nIoEGSwAvme0vmtOxWY/XJ3nK+yT42Wux4SDgeIqbx65xkt8/hfBpB0bQL8S/+dgyXmj1grQKOMbgyItSfPqNUnDcRVL2zM0S2WYNfZVoKKy8QwZIycV/kaBaZ9l/bxOpLDOm0J/2cepyj5aF1PKiaskrUv4/lUsoGtYjIRydX3ki6bw+efniadJSfB1U7iOV/wjPSnWW13mgEj7etzQJrV2shg4qjx2/pbyuLopGXJH0VP7DTpHAOw+qfgcFTAwSmPvP/Z5jxS2SHjOTHbKReyb3y7FJgARIoDYEKODUhh771ieB5L6iVZ8r5dwkQAIkQAKNlsDWrVvl/fffjx2lpdZ47I0WTJyNl5eXy+LFi2Xz5s1xWrC4MRGAN0x92D//+U/Bs0gjARLIbgIIo2a2yPa1ElbJ682WSvg0o79bjpqgetGPsGeJWDTo9KCI2gQV+zi+Vp2lcMRP7cUi4VAsx09UeZy4jW3u5Ffhv/KPON1ctP/clnckE3t0TprekojK6VP+8h9j4g1GLz7711Jw/MWK3U+kcNjlUqBy3eR17FejeIO+bqHSouW7LCH60C6eQejBPalvw7PjuhcVXrDs39dpL6/q1oiXgyEVgg9eXHVhrmvNBe7+Alc8kb1bXctZSAIkQALpIEABJx0UOUZ9EKAHTn1Q55wkQAJZRWDbtm2yZ88ey5p8Pp+UlJTob5DjvDpbv369VFU5w3TY+/Tq1UuF53DGLd+wYYN89tlnOvF3cXGxoN2AASpmeN7BH9HffvutVFRU2Ies9rpr166Sn59fbRt75aJFiywJfjt27CiHHHKIvVmdX7/66qs6+box8SeffCJHH320cZm2T/xC9/nnn8tXX32lXzw3b95c34uePXumbY5MD4RE9QMHDpSNGzfqZ2jmzJly1llnZXpajp+lBOAJs3bt2npZ3b59++Sll16Siy66qF7m56QkQAKJEfD3Pl7Ep35fcAk5hhGQ98TXLvX/DxYcebYE3n3U6sUSjUjZU7+Q4nN+I3YBCXNGlUAC743girckpPKPNPvZkyiO2b5/XaFCunVVHhEni195jXgKS2J1xolbHhtP0zY6VBraRMv3yL77LxL/wB+Iv98Iyes2xJHbBaJC+LsvjSFjn55m7WLnOMnEHi0TZOAi/N1Kxz2v/PApyR90pniatrZ6zSjvGw9C4VVjCMeGkHzh9UssrQJv/0PBjmphyKO8esyG37vAF7mLqj59SZpeMUPsbM3t6+q8UIV9K13ziSOfUnjzStmrnpn8QadLnsqnhDxC6oGSaNkuCW9fJ+FNK9Rz+6l6tnZJ4anXCjy5Mm25yt1ToP7OuvzcCbw3XXx4ltTPHQh6kR0bJKQE5YKjxmQaJccnARJoBAQo4DSCm9xAt3jw7WAD3SC3RQIkQAI1Ebj99tvloYcecm1WWFgogwYNknHjxslVV10lBQXOb4uNGjVKVq5U/wiuwSDAYDzD4CFx3XXXyfz5842i2GeLFi3k7LPPlmuvvVYLFXgB6tYu1sHlZNmyZXL44Ye71LgXLVy4UI455hhL5SmnnCJvvfWWpayhXjz99NPym9/8Rr75xhpuBfvt3r27XHDBBXL99ddnhaBV3T2AGAjxBhYKhfT9o4BTHbGGXZcO7xsImQjDNnfu3KRDsb3zzjty8sknS5s2bRo2aO6OBHKYAF7M5/U4SkKrPnTdRW28bzAgkqwjlFXFG1Mt40cr9ugwZ57mHVSYrr46t0q0qlx7OER2rFPiQlC397bsbOmnL1Rd8PN39KHcQ5TI1E18bXuq0G8qvFWoUsKbv9KHvSPCg5ktGtgnVZ88pw9RuV187XuLt1UXLQghjFhonQoB5uIRYB8nI3s0LzQD596Wzi/oVH70tPKYedp9No9PvK27qGflaCk49gLXnEhFSrQona5y3hy4d3ogFZ4t8Pb9Ujn/3+JTgoanqKnyfKqUaOkOJXqstQp77jPXeSlEkcKTJkpg3iPOuYMVUrXwBX04K+unJBe5IySfr+OhEt64zAINHoAQVsVfJKK971QoOyX0UMCxYOIFCZBAigQo4KQIjt3qnQBDqNX7LeACSIAEsplAIBCQBQsWyKRJk7SQsmXLlrQs96OPPpJhw4bFFWXgRfH4448LRJW6sqeeesox1Zw5czIehuu5556Tzp076wPeUPVh9913n1xyySWu4g3WAw+Gv/zlL7J37976WF5Sc0K069Chg+4D7zGIcLTGSQCiC36W1MYgYOP5HzFihP45mMpYS5daQzGlMgb7kAAJZJaAv+9JcSfIH/D9uHWJViAsFzw73Cy6Z7OEVN4d7W3z9XyJbF1lFQDcOpnLlDdPZNsaJea8rV6qPy9VS152FW/EX6heyo8397SeQ/j5doUEl72uBR18uok3XiXy+A872dpXXWV0j47Zal/ga9tD8o85P/GBlBCDl+sQvPY9eJlULv6foy9yARWdeYsqd3qcRwN7JbT6IwkuV15V6n6DtT23kGPAeiwoGP5jyVdCVS5YrnLPH3RGfLxKKFOuW/HrWUMCJEACKRCggJMCNHbJCgIUcLLiNnARJEAC2USgb9++0q1bNykqUt/8Mtny5cvl5z//uanEeQoPGyTtdju83oM/cq+55hpLSDSETDvvvPPk+OOPF3zbHdasWTO57LLL9Hm7du205wfCmeEwXtDrSvVH06ZNLfVo4/f7jeoaPyORiDz77LOxdq1bt9bn4XBYnnnmmVh5Jk6QJwMh4nBgvkTMLRRdIv3c2kA0uuUWvGw4aCeddJKMGTNGe18ZYehGjhwp/fv3P9goS8+QOB4h4JAzCN5Eo0ePztKVclmZJgABpzY2fvx47XUDj0AIQfg7kIotWbIklW7sQwIkUIcE/IdCwHG+dIc3ChLYp8OKzrldCkcq7wzlyZGUuYSfTaq/aoxwTU3G/VW8LTol29XSHuHkSi6Zqpx+3ANZ1OceLQtN8KJw2HjxdTkiwdamZsrDpuLlP6jwdl+YCvefIm8OWHuKmjnqcqnAozy7ik+/SYpOu1F7kWX72nORe74Kr5jS85ftN4PrIwESyFoCFHCy9tZwYTUQcP/Ns4ZOrCYBEiCBhkwAeWCQ/wZiwmuvvSaXXnppzPMCL0R37dolLVu2dEVw2GGH1eg1g8TymMMwhEdD+C5DlEDYK3i+QNDAOmAvvPCC0Vx/IkRWly5dYmUIxfb73/8+dp3sCUIjbdq0SXdDHp6bb75Zbr31Vn0Nzxx4ILnZjh07YkIUcvbYhSXsBfs1DNyaNGliXAry/8yePTt2/d133+mwXyhAuLq2bdvG6swnRig69EeoOMzTp0+flASWt99+W+BpZdj9998vV199tXEpyOOB+46cQvEML7c//fRT/WxAgIPXQryQUXh+ysrK9FCdOnUSQ9iD2AKREHyOPfZYS14mcHAL34d5S0tLY8tCziIYcjpBhISh3niOdIHpDzzj8I7AswZvHawHAiaeATfDL7wrVqzQHhkQ/cDkiCOOiO3BrQ/L6o/AvHnzUp4c4QKnTZum+0OAmThxoqQqxEBQRJ4wQwxNeVHsSAIkkDECXpXTxdepn8rhYX0hX9vwaeYF4/ecwu9N1DlnKj98UoJfzpPovm3mJpZziCXIj5N/1FhLOS4QMqpq6SsSWrNQEAYtniGfSv5hp0rB0MvE26SVpZmnqLkUqRf0CMUW2rjckQ/G3BgiVv7gs5THynnW3DDmRuo8nXu0DZ3Wy6jyNqp48z6pWjTTkecl4YmU51PlR89I3rlTHF38fYdKs+tmSiXC0ylPJnhIxTNPSWtBSLr8I88RPIfZZgXHXSj+I06TqgX/keBX76mcPQib7O4ZAtEKeYDy+w0Xf//UvvRQm/3nGncIoSWX3ScVs/+ucyAh/KHdPCrPkF/xpJEACZBAOghQwEkHRY5RHwQ86uF1/+2jPlbDOUmABEigHgggt405Bw5e2JtfeEPMuPvuu2Mr++STT3Q4NaOgX79+sRw4Rx11VI0CDnKU4AW/YX/7298EHjnJmF3A+fWvf10rAecnP/mJPProo3oJZ555piCkWK9evWJLwgtYCCR2g5fKiy++qIshGCDUktkgSAwcODBW9I9//EPnEkLBE088oYUis8ATa6hOhg8frr/9jzIkYscLZMMg2vz2t78VhF8z/2/syCOP1OMm4ymDveJltWHJ5A7Cfbjxxhvl+eeft3gP4QWOwbFHjx7G0PpzwoQJMmPGDH3+wQcfCLyvfvzjH2uRDnuBCDh16lRBbiXDcO0moh133HHy8ccf62YQzyBoYU3mORH67aabbjKG0p+VlZX6efn73//uCLEF8eacc86Rf/9bxapXoo5hWPMdd9wh69evN4r0Z/v27QV5pGryTrN04kXGCSDcn+HNl+xkjz32mOA5hUG0gedNbUOx4e8rnhWIhPASw7MOERCHcW7+NM7d6mtTlqlxE11TfcwfDAY1Y2NufBoH1r1mb0RCEfXPAfyTQB8Rfe9V9mhb2f5+lnK8xDT3w7kqi5r7Gm1cXsztn2j/ny0mLzBf8ryREAjv+lYiu7+TaIUKURoJiye/SDxNWuo8NN4EPDjwrKG/HkPlrJFQlUhevs5h42vdNWFBIKr6RXZulMjeLRKtUqGbwiG1lkKdUwehxpDjJlWr7R5TnTdeP/z9L3vqBkfOo7zeJyqx62TxNGuvPIz2e42jLcKchXesl6rFLypGGyzDwkOr2bXPWcrcLiJlu1Qy+nUSLd8jEI88Kt8QxA7k4clG0cZtD0ZZpHy3RNRzG1WfUcVG70U9H9gLBEPjC1lG+/r8zCXueC4gjkX2bYcSKt7iluIpabU/J1UavPAyfR92TznOMUU2/X9t9uiDv9M7FsqCtBPAv/fx+5fZEK7b/I7BXMfzuiOAUPYnnLA/Hx6in3z44Yd1NzlnIoFaEKAHTi3gsSsJkEDjIGD2GMGODe+PVHdveEkY/fFiHKHSEKaoPgzfjDd7+CDhfc+ePQW5VCDAwOCFM3ny5LQtDx5IP/zhD1Me78orrxSIH3ZbvHixFj7gJYIQdImY/X5AUIPQZHjGxBsDYtXQoUNjnkvmdnjh8fLLLwt+QYTAYhZUzO2Q4B3iinkv8NxB0nd4txhiCcLb2QUczG+INxgTPOEFVZPhfkMcevfdd12blpeXy/bt2y3iDQTC//u//3Ntj7xQECDhQfTXv/7VtQ0L654AhOhkDYIPvPEGDx6su9qF02THM7eH+EcjARIgATsBn3rpjSNVQ5ir2o6BuT1K9PG166mPVNcSr1861hdv7FTKkX8mtMr6wqpw+E+lcMRP4g6HoLxIIr/nr2cqkeyglwQEjETMC1FOHQ3BvMUtlLhQP7+zJ8svl7hDCMtLJZxfslDYngRIoFET0F9MOEAgmwT3Rn1TuPmECBxMyJBQczYiARIggcZFYOfOnVq8MHaNF5y9e/c2Lh2fePH9yCOPOI758+fH2iIcFrxLDFu4cKHAiwfCgTmUl1Gf6c9XX31Vh/4y5oGAA4MXhmEQcNJpYACPDXiQmA1eNijHMXasM2SK0RaCR+fOnXU7eA+ZRTZ4oMB7JFH7wQ9+YBF7Hn74YYEnFQSY6uxHP/pRTLyB1wo8XZB3BuKPkUMIz8PPfvazuMNMmTLFIt6gIQQciEfIP2IYhCBDzDHKzDmLUGb2UDLauH3+7ne/s4g3mA8CIjgidBt+kYVHkGEIw2UWb/DsvvLKK/Lmm2/qvE1Gu3vuuYffYDJg5OAnvALN4s0NN9yQ8DOVg9vlkkmABEig0RIIqrBzdss/9gJ7keMaXkhe5RFhNnhI0EiABEiABEggVwhQwMmVO8V12gnU/FVdew9ekwAJkEADJwBPE4SVQU4Y5MAxf5P9l7/8ZbUeOOvWrZOf/vSnDkLwGIG3hmHIs4Jr5CqBwYsBeWz+8Ic/6HBUV1xxhcUDwuiXiU+zOIMQZBBGYAiPdtddd+lzhFCD0HT00Ufr69r+Ae8ShO9C3p4FCw6GzYFQYM+j4zYXPFrgbWN4LZ133nly+umnx5pC8Eg0pBc8dXA/zB5BCBs1evRoAY8//vGPcuqpp8bGxgny3SBPkWHgZHjI4L5iD4YA9cYbb+iwZgZXow8+4Vrv9/t1GDaIJghDBw8ZGAQZ8DF+yfzPf/5jCYWGa8Pg/p1I2DiMjb0ahpBW4G/ky0H5mjVrdJgrow2EGcMQ/gqCn5EjB55CxxxzjL4XaIMwfIZLutGHn/VDAEJmMoY8T927d9dd4Hlj5L9JZoxk2iKnE8RCiJXGp/k8U2WZGre6tRuhCM1tzOeZXhM88zCHMY9xblz/akFEdgfVd7pUG/WH+s8r0QPtca4Nn0bZgTa6PfrY2uxvh36oM44D/dU3rGFuoWZ0Bf8gARLIPAGEmbNZtFSFrSpubiu1XlYte1OHqjOX5ql8LzQSIAESIAESyBUCxr+tsV78LkwjgVwhQAEnV+4U10kCJFBnBMwvrM2TQlS57bbbzEUpnyPPCb7tjli4X3xxMGHwd999J1dffbXgBSryu3Tp0iXlORLpCHHK7Gly9tlnx7rBC+WQQw7RCe5RCKEnXQJObJIUT3AvDPEGQ5x22mk6pnBpqYp/rwyeU8kYPFDwkhPsd+3aFetqhGRDPpAHH3xQ8NIZNnv27FgbnCAkmTE3rocNG6Z/ITR+QYT45SbgoC0EQ4QoMwyCDqyHEqlGjBgRE4rgcWPkslm1alVMNEFbeAMlYtiPeX8QG83iDcbAvIZByDQLVciFgjLzXlGGcWHYJy07CMDLLRmD4IjcNwifhucdIfrgIZYuu/baa3VYRoiA9rCF6ZqD46RGoHBjWHwBa9+ouuQ/aa1MeEUCDYWAt7Xzd8uy/9wqRadeK8iD4/EdfEUQDQYktHG5TjAfXPaGFYHXp8KqxfeWtjbmFQmQAAmQAAnUPwHj3+dYCQWc+r8fXEHiBA7+dpZ4H7YkARIggUZHAIKKOaRVPAB4aXrhhRc6qk866SRHGV6UIsEhQq7Bg8P8jXnkNvn+978vy5Ytq9bjxzFokgUzZ86UigqVrPeAYU14cWsY1v3MM8/oS3zefffdNeaGMfpm8tPI0WGeo127djFhIRwOx6rOPPNMQc4duyFE1C233BIrvvjii7UQA4+bBx54QMrKDsZ1x/0PhUKx0GzwSDIbBLnqDKHU4hlCl8UzeOEYAgrEkdWrV0uvXr3EHD4N3jAXXXRRvCEs5ehvNngYVWcQFM0eaE8++aTgiGfV7TNeH5ZnhoAhNiY6OrzOIMbhZwKEwzvvvFO6d++etjBq5jCHia6J7UiABEiABNJPIH/gDyQw71GRqvLY4JEd66XsmZtFvMpjT+Wq8fgLBfltomX4UgskXacVfv9q8bXv7axgCQmQAAmQAAlkKQEKOFl6Y7isGgmoeAY0EiABEiABMwEkYkc+GggChv33v/81Tqv9NEKDITyY+Yj3gh1eH1dddZV+MY85kWPHMHhZQNzJpJnDp2EehE2DB4ZxGOIN6vAy3xATcJ2IQfTIhLVq5Yy5Hu8bNDt27NAh6hCmznyYhQljjRj3z3/+sxaxENIOYY4Mg3ABQQ1m9kAx6qv7jMehqKhIEMYsnp1//vmW/DxG2DSzgIPwcQgDl4jZ92zk6onXN137jDc+yzNHID8/P+nBd+/erUUcCJYweOIgXKD555KuSOEPI+xeCl3ZhQRIgARIII0EvE3bSvGYO0R8Lv+fiIQkum+bRHZuUOINvJldxBsVCrHorFulcOhlaVwVhyIBEiABEiCBzBOggJN5xpwhMwTogZMZrhyVBEgghwkgPFdJSYkO0WXkRUHSdrzUxAvNTBhetl5zzTX65Sm8Iow8KO+//74uz8Sc27Ztk7fffjupoSFiIO+JmyG0lt0y5ZFhFlbsc6bjuk2bNnLvvffqkE94HmD4ZW/+/PkycOBAadq0aWwaCEePP/64DsEWK7SdIE+Mm9W0Dwg88Ax6+OGHdfcXXnhBe3gZQhIKEw2fhrZ2L4ia7o95n+iPMFtuHmaog2G9tOwgAG9ACC9Gnq1kVgXPr6VLl8rUqVN1SDV450DcRVmqhp+pNBIgARIggewgkN9/pPh+8qhUvP2AhFarXIRR5+9w9pV6lPCTf9gpUjD0h+ItaW2v5jUJkAAJkAAJZD0BCjhZf4u4wDgEKODEAcNiEiABEkBeFIg2hsiBJPVIZo+8MLWxQCAQNywaQnHB+2XlypV6CniPZMrgxWH2DGnZsqXF48SYF6HEsGYYBASEFyssLNTXRnJuXEAQgohjFiVqyokSz2tGD56mP9599129Lvtw8H6CIYRcPOFh9OjRlm7G/Tj00ENj5fglEPdtyJAhsbJ0nuBluiHgwBsCyeYN69mzpwwfPty4rPETIbHMhlB95557rrnIct6hQweLCIDQdBCUaLlBAKLLjBkzUlrstGnTtCca8uLguUHOLow3b968pMdD/ie7eJj0IOxAAiRAAiSQVgK+Dn2l5NJpEindIaG1iyS8fa1E1Xm0KiAeld9G8ovEU9RMfK27qVBpvdTRJ63zczASIAESIAESqGsCFHDqmjjnSxeBg7Fh0jUixyEBEiCBBkTgH//4RyxxPb7JjqTvtbUnnnhCjjrqKLn//vtl06ZNluEgFiF0mmHId5IpM4dPw7fjESINHhn2A3lvDAMDeCMZZg7BBZHnueeeM6pkzZo1OoxcrMDlxBCCjKqvv/7aOE3bJ7ybMI/9MAQchLCDUIMweeaQYfjlzhBOjMUY9wN5dcziE3LpVFZWGs1in+Xl5fLJJ5/ErlM5Of7442XAgAG6KwSU559/PjYMPMLM64hVxDnBc2cOZYX9IQ+T2ZYvXy547mEQ484444xY9UsvvRQTNGOFB04wDkJw0bKHAHLZ1MYgFiIvDu5rixYtLOJhMuO65axKpj/bkgAJkAAJZI4AvGnyDx8lRSOukOKzbpMm507RIdaKz7hZikZeKflHnEbxJnP4OTIJkAAJkEAdEqCAU4ewOVVaCVDASStODkYCJNDQCPTp00d+9atfxbb12muvVZuXZtGiRfqFOl6q2w/DiwWDLV68WIdGgzcP8uYcd9xx0rdvXznllFMEL+kNGz9+vHGa1s+1a9fKRx99FBtz1KhRMaEqVnjgxO6FYhZ+TjrpJEtzeC2hPQQOvLT99ttvLfX2C7MnC+rgDXLppZfKWWedlTGPFvsawPvll1/WocHwkhprwv3AvZk8eXKsOUJSYV+wfv36ybhx42J1b731lhxxxBFy6623yl/+8heBtxb2gPw2yKlUW4MXjmHGfYO4kmxIP4g35mdq165deq/w4oF3Rf/+/XWIuDfeeMOYTj//BQUF+hq/8P7gBz/Q9+hPf/qT3HHHHTqEGzyQBg0aJJs3b47140n9E8A9rW3+GoRPg1cgPHAQVjAVO+GEE1Lpxj4kQAIkQAIkQAIkQAIkQAIkkDYCFHDShpID1TEBhlCrY+CcjgRIIPcI4KU8RAsjrNmNN96oQ6l169YtLZvZsGGD4LDblClTJFMvPrEf8y8vZ599tn362DUEJrycN/JfwAMHnjh4MXzBBRfIXXfdFWMTDAa1GGJ0Pvroo3U+H7uXh1EPwapTp04xTyR4/xgCUW1D1RlzJPMJMeerr75ydIH3DjynzDlhHnroIVm3bp3Oi4MO6AdRIxOGXEy33XabDnln3DfkIurSpUvS0/3xj38UhJVbsWKF7gthEdfx7PDDD4/lf4KXERjhHhn3KV4/ltc/AQiSEBPxs6Q2Bg8ceOKkYvgZhpxSNBIgARIgARIgARIgARIgARIgARIggeQJ0AMneWbsQQIk0MgIIATXgw8+GNv13r17tdeB8SI9VpHgyWmnnSbXXXedzith74KcMgh79Prrr2vvBnt9uq6ffvrp2FD2MFmxCtOJ2QsHL/GNMF4QNmbPni2nn366JZQXyuEdgn2cf/75ppGsp2j3v//9LxYizKgFB4g/dWHXXnutzuuCHEB2g8cKcr7ACwFeSmZD2Lk5c+ZoD5vevXubq/Q59oA+4FBbgyePOZQZxvvRj36U0rDNmjXTohNe7Ldq1coxBrxpzB4/aAAGCxYs0B5SbvmCkOMEwmZ9iG6ODbDAQgD3ubZeOJYBk7yAJxqNBEiABEiABEiABEiABEiABOqbgPkdTjKhyOt73ZyfBDzq4Y0SAwmQAAmQQP0Q2LFjh/a+gRcEBAHkWHF7QV4/q0tu1p07d8o333wjELywj2STliNnztatWwUCAwQBs7dLcitJrTX+d7hx40bZsmWL9jKBoIN9QIhJxBA+DDmN4IWEtSPxuznfTCJj1HWbSCSi7xmeQ+QEggDToUOHapdRVVWl+8ArA/e6Xbt2uh9/Aa4WW71WTps2TW644YY6XwPCDEKQNhs87jp27Ggu4nk9Exj3Vli2BayLwD8OPNaitF7tnnKcY7wWkxc4ylhAAiRAAiRAArlAINv/vzZ7dGL/nskF1rmwRkSfwL8JzXbJJZfof++by3he9wTw5dNTTz1VT4xoIAiFTiOBXCDAEGq5cJe4RhIggQZLoHXr1oKjIRi8Odw8OhLdG/Js4KgvgwCBkGSphCXDmiF81CR+1Nfe4s0L7yt4D7l5EMXrA9EGOYBouUMAXjjwIpsxY0adLRphF+GVhbxgNBIgARIgARIgARIgARIgARKobwJmHwZ+AbG+7wbnT4YAQ6glQ4ttSYAESIAESIAESCAHCcALB6JKXRjyg82dO7cupuIcJEACJEACJEACJEACJEACJJAQAQo4CWFioywkQAEnC28Kl0QCJEACJEACJEAC6STQokULLapkWsSBeDNr1izBfDQSIAESIAESIAESIAESIAESyBYCFHCy5U5wHckSoICTLDG2JwESIAESIAESIIEcJGCIOOPHj8/I6iEOIVTb4MGDMzI+ByUBEiABEiABEiABEiABEiCBVAlQwEmVHPvVNwHmwKnvO8D5SYAESIAESIAESKCOCEDEmT59unTv3l0QVm3Pnj1pmfn666/X46VlMA5CAiRAAg2QQGjtYons3WLZmbd5R8nr5i56h7evlfC2teIpLJG8zoeLx19o6WtcVK2YLRK2Jsv2HXKY+Fp3NZo0qE+8fAt/u0Kx3CreZu0Ee2UegwZ1i7kZEiABEsgYAQo4GUPLgTNMgAJOhgFzeBIgARIgARIgARLINgJ33nmnTJo0SR8zZsxIeXnw5sFYEIRoJEACJEAC8QlUfvS0BFe+a2ng7z/SVcCpePsBqXz/4M9mT9O20vRH/xRvi46W/rioeOkPEq0stZQXnX5TgxRwouGQlP77Ggmv+zS2X1+3IVJy+d/F4+WrjRgUnpAACZAACbgSoIDjioWFOUCAv+XkwE3iEkmABEiABEiABEgg3QQMbxwIMMhbA8+cpUuX1jgNQqWNGTNGHwyXViMuNiABElAEooFSKX385yKRsIMHxImSS6c6yhtrQbSyTIk3j1u2H923TSo/+a8UnXqdpbyxXYRWf2QRb7B/iDmhVQvE33doY8PB/ZIACZAACSRJgAJOksDYPGsIUMDJmlvBhZAACZAACZAACZBA3ROA94zhjRMIBGTz5s2ye/dufRirKSwslA4dOghEHxw0EiABEkiGQNXn70j4uy/du2z5WkKqLq9jP/f6RlYarUBoy6hj19Hy9IS8dAycQwXR8t2uq93PzLWKhSRAAiRAAiQQI0ABJ4aCJzlGgAJOjt0wLpcESIAESIAESIAEMkUAQg3DoWWKLsclgcZLILj8jWo3H1z2JgWcA4Q8zTuIp1l7idry5eR1O7JahrlWGVz1kVS8fk9s2cVjJ0ueymdTnSHfjXh8St8yeXKp0Gk+lSOIRgIkQAIkQAI1EaCAUxMh1mcrAW+2LozrIgESIAESIAESIAESIAESIAESyG0CkX3bJbR2cbWbqFr+pkSjkWrbNJZKj8crJZf8VfL6DlM5bzqJr0NfKTz55+IfdEaDQlC1eJZEdqyLHRIM1Lg/X9seUnzBXeLrMkjnA/J1HSRNLvxjg8z3UyMMNiABEiABEkiaAAWcpJGxQ5YQoAdOltwILoMESIAESIAESIAESIAESIAEGhqBquVvKY8JqzjjbddLIltXx7aKHC8Qefw9jo6VNeYTX/s+UjLurw0WQUSFiQt+9X5K+8vvP1Jw0EiABEiABEggWQIUcJIlxvbZQoAeONlyJ7gOEiABEiABEiABEiABEiABEmhgBBzh01QIrKKTr3bsMqi8cGi5QQAvwKJV5UqXM4UyS2LpCJkn4WASPdiUBEiABEiABGpPgAJO7RlyhPohQA+c+uHOWUmABEiABEiABEggqwhs3rxZAoGAPnAO69ChgyAvTosWLfSRVQvmYkiABLKeQHjnBglv+sKyTl/nwySvz4niKW4h5qT0wc/fkegZN6sUJ35Le/tF8OsPpGrpqweLvV4pPucO1S9PhWGLSnDZ67o+vGWVGn+Pmqe5DkOWr0KQ+Q8fJR6P52Bf21nggyct6/W16SaFI36qW0Ury6Ry4QsS/PxtiezcqAUMT0kbyet+pBQcNVbyVDivdFn5/36vxreGFMsfMlr8vY6r9RThrd9I4L1/Ka8o61DeVp2lcOSVDj7RSEhC65ZISHnMhNS9jGxbI9GKvarz/gE8hc0U3z6Sp9aWP/gs8Za0tg5suwptXC6VHz5lKxUJzHtUPAtnWsoRMq1w+I9jZZHd30nF7Ptj18ZJ0ajrxNusnXHp+qm9fpa+JsE1n8j+Z2O3SKhKPAUl4m3bXfw9j1XrP1OHrXMdwFRovz9YI9YKC2/+Wj1/L0tw9QKJ7N0qou6jp6ipfgb9/YYL7qMnr8A0Gk9JgARIgATqigAFnLoizXnSTYACTrqJcjwSIAESIAESIAESyBEC8+bNk1mzZulj7dq11a66e/fuMmbMGH0MHz682rasJAESIAEQCH72hgOEv89QJRJ4xa9yvFQteTlWHw3sk5ASZ/CSuzqL7FgvwRUqLJvJQkPO1i/Iy/9zqwrFtshUo2SGsp0SWv2RPvI+/Z/KmfIn8RSWWNoYF+H1SyS48l3jUoLqRXvB0B+qPC3rpezZWySyMYoxUAAAQABJREFUe1OsDifRvVvUHpUo8NnrUnDCOCkadb2lPtWL4OdzJFpZaumuBaJaCjgQQEqfuE4Qss5sHiW6lJz8M4d4U/nxfyUw/3G1TyVExLFoYK9mDu6Bdx+TolOvkYJjzne0hoASmP2AVC1+UdXZ1CNVYr9vGCDa7UgRk4CDZ8R+79Gu8HsTReIIOHhZV/nBE0q0ekxEiXB2w/rDGz7TB9rkq7XDQ8zjL7Q3jV3b74+vXU/xtukugbfvV3MpcSpq9UyCUBn65mN9VC54Vpqo8Hi+1l1j4/GEBEiABEigbghQwKkbzpwl/QQYQi39TDkiCZAACZAACZAACWQ1gblz58qQIUNkxIgRMm3aNKlJvMFm0AZt0WfkyJGCMWgkQAIkUB2BKpewaP6+Q3UX/6Hfc3StWuYUfByNXArgFVP+31+5igDm5qE1C6X06RtV6K+QuTj+eahSCw6lT/3CId5YOymRQHmVVLz9gLU4i64iZbvcxRvlgVJy6b3ia3mIY7URJfRUJ944OgQrpOLVvwhECrtVvPJnxXKWKnaKN/a26bqOqtxL5S/croSjv7uKN455VEi4KrX20hlXS0R7GTlauBYgn48Wb+b/2yHe2DtoMfDJG5RA5xST7G15TQIkQAIkkF4CFHDSy5Oj1R0BCjh1x5ozkQAJkAAJkAAJkEC9EliyZIkWXyDA4DxVg3iDMXAkIv6kOg/7kQAJ5C4BHW5rxzrLBjzNO4ivfR9dhpBbYgslhRfhqbzYrlKhzUIqNFYiBi+bqk+eT6SpblPx+j0Oj5V4nSvVC/zQdyvjVddbOZiWPTlJexJZFqH4Nxl3tw6BZik/cFFw/DgRN08Ur08kv9itiy6DkAXxx2Ip5suxjJHkRWDeIxJcbvXWSmSI8LcrpPz523VIvkTb494napFdG5XI9Z9Em7MdCZAACZBAmghQwEkTSA5T5wQYQq3OkXNCEiABEiABEiABEqh7AhBdxo4dK7t3q7j/aTKMCU+emTNnas+cNA3LYUiABBoAgaCr982w2M4QoipP5R0JffVerEyUx0vwi7k6F8nBwsTPvC07qxBY56nwVN0E4baqVD6c0KoPHQMg1BfaebyJ/3M4r/tR4h94mnibtlbeOJul8uP/SGT7WuvYyuOj8t1HJe+iP1vL6/EqqvK8lD1zs4S/+9K6Co9Pmpz3O8nrNsRabrryNmkpBUefqz1q8nqfoMLbjdC5frytuuhwa5HSHTp3TdVCmyAWDKhQZ29LwfEXx0YrOPYCHTYvUrFPAm9Oi5UbJwVDLxfkHDIbQrulamEV9q5S3WeHKfEpf/Do/ftW+ZbCW1cJBEBzPib0Qdg95FPKP+J0xxDVFfg6DTiQS6ejCt+3WyoXvSBhlffHblUq9J4O/Wav4DUJkAAJkEDGCFDAyRhaDpxhAon/xprhhXB4EiABEiABEiABEiCBzBCYPn26TJyocgRkwCAIwRPnsccekwkTJmRgBg5JAiSQawQQuqrKxfPBHjYN+W4sAo7aaNXyN1IScJCDpOlP/qWS0jeJ4co/4jQpn/VblVT+lVgZTqLlu9QL+gWCfDyJmH/gD6R47BRLjpj8QWfIvkcmSmTbGssQQZXHB+G3vEXNLOV1enHAayaqvF7gSeKWX6Zo9G015hvCmgtOmqDy+1yihKu2ji14lcBSdIYSh5BDZsvXlvrQxmVSIAcFHAhgsIjKp+Mm4Ph7Hy9GG8tAKV7oMG7qObSYyr3U5JKp4jfnEjrsZCk4aqzs++dEiZZutzQPKK+aZAQc/2GnSLESxZDjyTD/4afuf062rDKK9GdEeadBZPQUNrWU84IESIAESCBzBCjgZI4tR84sgYO/WWR2Ho5OAiRAAiRAAiRAAiRQDwQyKd6YtwOBCHPRSIAESCC0drEz7JgKuZXXXSWlN5nOh2N62Y2q0DcLBZ4dyVrhsPEW8cboX6gS0itXG+My9ok1JmpF3/+ZRbxBP09+kRQO/4lziHBQeVwsc5bXYYkhCiD8W/DLuY6ZC0/+uRQMGe0odyvwFjV3FW+Mth6PR3xdBhqXsc+oyrlTnwZPLrv5+4+wijcHGnibtVPeMD+yN5fI1tXKQ2e1o9y1QHnzFJ32C4t4g3aevHzlxXSea5dI6U7XchaSAAmQAAlkhgAFnMxw5aiZJ+D8TTbzc3IGEiABEiABEiABEiCBOiCAPDc33HBDHcy0fwrMVZvcOnW2UE5EAiSQUQKu4dNUCC6PesltNm+TVuLrbHv5Hw2r8Fuzzc0SOs/rcbRrO2/TNuLreKijzu4x4mhwoADhwrwtOrpW+9We1Ct6R114s9UbxdEgwwWewhLldfSqyvXznGMmeNMUDrvcUZ5oAbyrIuW7JbxzoxI3vhHkOopWVTi6R1UYtfqy8K5NDm8arMXfb2TcJUHccbPQuk/dih1leV2OEHgkuZmR98leF60qtxfxmgRIgARIIIMEKOBkEC6HzigBhlDLKF4OTgIkQAIkQAIkQAL1Q8AIbZbOnDc17QRzIc/Op58m9sKrpvFYTwIkkHsEosoDJfj5HMfC7eHTjAYoD29Yalzqz6plb0jBcRdZyqq9ULls4EURzxBeLayEBrNF9m4zX8Y9jyfeoAPCtXmatZWoCgtmtsi+xMY290nneXTPZil/xZmHx3/4KCk89bqkpoJYE/z8HZ1LCKJXZM8WFYPOFposqREz3ziy61vXSXzterqWoxDii6e4hSMXDnLpJGLe9r3jNoOgRiMBEiABEqh/AhRw6v8ecAWpEaCAkxo39iIBEiABEiABEiCBrCYwbdo0qUvxxoCxdu1awdyjRycWnsfox08SIIGGQSCkcsBEA3sdm6la8rISAt52lEfK9zjKwt+u0B4evladHXVuBZ6CYrfiWJkRUixWoE6ilWXmy7jn5pw6bo08hc0cAk6iY7uNl46yitenqlh0lY6hoghNB/HF43PU2Qvwkqty/uMSeG+6SkyUW54iUZWDyM08xc3dimNlHhUuLqoEK7PFG8vcBufxvG90OxVmjkYCJEACJFD/BCjg1P894ApSI0ABJzVu7EUCJJDjBEpLS2Xz5s017qJ169bSsmVL3S4cDsuaNQcT1aIc9W6GsTEHzOv1Ss+e1m/8bdu2TfbsOfjColevXpbY6uvXr5eqqirL0H6/X5o1axZbj6WSFyRAAiRgIgDh5t577zWV1O0p5h4xYkTdTsrZSIAEsoJA1fI3XdcRWvOJa3m8wqDywvEN/3G8amt5pAaPELcX6Il6kUTC1rnsV27v5pX4UZ8Wrdz/O6h9DaG1iyTw7qNSNOIKe5XjOvDGVKlc8Kyj3FLgyxePv1DgdSVBZxg1S9u6vMB63MwlF5KlmddF2ErwXoIDjQRIgARIILsJUMDJ7vvD1cUnQAEnPhvWkAAJNGACL7/8sowbN67GHf7ud7+T3/zmN7odRJc+ffrE+tx4441y9913x67NJ9dcc408//zzuqhJkyYxMcdoc/vtt8tDDz1kXMq+ffukpORgeIVRo0bJypUrY/XmkxYtWsiJJ54oP/7xj+Xcc881V/GcBEiABDSBSZMmpcX7ZurUqTJhwgQZPHiwrFu3LmG6EJAefvhhijgJE2NDEmgYBJDTI7jyvbRsBkJQYYICTlSJB3gp43ETarAaF28brwqXlYi55Xex9HMdu3pPD0v/Or6ofPcxyet2pPjj5AzCckLfrVTizX+cK1MiRcHx48Tff6T42nTT4g0aVcy+X3vrODvUT0k8jyztGRUnTw1W6uY55SlqmtgmahKHEhuFrUiABEiABDJIgAJOBuFy6IwS8GZ0dA5OAiRAAiSQdgJ4Mfrqq6/Keeedp0UoeAbRSIAESMBMYN68eebLpM+bN28uc+bMEQhBEI1T8aap7RqSXjQ7kAAJ1DuB4BdzXUN3pbKwyPa1Skj4MrGuyksmWk3emfDOjY5xPE32e1g7KmwFkd3f2UoOXsLzJGLLf4NaT3FiYx8cKf1nniatpMm4e8SRw0d5HpW/cIdEEE4tju0Pdef0Imoy7q9S9P2rJK/joTHxRg+RqDdTnPnSXexteYjrkJGdG1zLURhVIefcniFvSZu4fVhBAiRAAiSQWwQo4OTW/eJqDxKgB85BFjwjARJoxAS6du0qRUVFDgJt2tT/P9oKCwulW7du2ksHXkDB4MGwEM8884wMHTpU4PFDIwESIAEQWLJkiSAPTaqGnzezZs3SXjcYY8qUKTJjxoykh9u0aZNs2LBBunTpknRfdiABEshNAq7h0/IKxKvEhJossm+riC1cWXDZm0os6FdTV10fWvep5A/8gaMtPGjCm75wlHvb9nCUuRVEdm3UIo23WTtHdWjdEsea0SjRsR0DpqnA16m/NLnoz4I1ewqVJ/j0q5VCcfALP8iFUz7zTmly2b3Ka8n5nc7IjvWOlXhbd43rtRPZu8XRvj4LvMo7SAqaODyvQmsWir/PUNelhdYu3p8fyFbr63y4rYSXJEACJEACuUqAAk6u3jmumwIOnwESIAESUASefPJJGTZsWFayOOyww2ThwoV6bWVlZXL//ffLLbfcElvrY489RgEnRoMnJEAC06dPTxnCoEGDZO7cudrrBoNMnDhRajMexCQKOCnfDnYkgZwiECnbJaFvPnasueDY86Xo1Osc5faC0qd+IaGv51uKdRi1U69xFRksDdVF5UfPiP+wk8Xjtf4Tt/JjFQpMeVfYzd/rOHtR3OvKD5+Uoh/c4KhHucNUHpXqwpM52megIH/QmVq8wdB5XQdLwbDLpfK9xywz4V5VvjdDCr830VKOi2jImodRN1D5btwM9z349QduVe5l/gLXcjdPJteGCRTiGfD3PlGCK96ytK769CUpOPEy8drCqEWVB1Hl/H9b2uoLJQLlUcBxcmEJCZAACeQoAQo4OXrjuGxxft2GUEiABEiABLKWAPLp/PKXv5Sjjz46tsZ4uXJiDXhCAiTQqAhANEnFxo8fr713EDINoRqHDBlSK/EGa/jqq69SWQr7kAAJ5CCB4IrZrt4o/r7fS2g3/kNPcrRDSCvtGeGocRaEN30uZU/fpMOuRcMhiVTslcCHT0lgzsPOxiqXS173o5zlcUogDlW8eZ+Ed21SuXYigrBq5f/7vYRWfejoAcHEU3gwr6GjQT0UFI74ifgOOcwxc2DuP0V7EdlqvCVOj6nI9jWOkHaRfdul7JmbHZ4utuEsl54CxcZFDAq8N13CKmweLBoJSXjbGqlcNEtfp/JHwbEXOLpFA/ukdMbVEly9QDkkhXTeJMxZ/txv1HO2yNG+4Mgx1lBxjhYsIAESIAESyCUCFHBy6W5xrWYC1q8nmWt4TgIkQAIkkLUEIOQYhhBrNBIgARKoDYHJkyfLnXfeqYeAADR27NhahWGrzVrYlwRIIDcJuIVP8xQ1F1+XgQltyN/3JKmQP6m21twrweVvJuzRAkGl1EVUsS+g4KixSb+Yh7eNq8eNbfCC4y+2ldT/JTxSis+dIvseulykqvzgglRYtbLnfyNNr3pCvMUtYuW+zkeIKG8Vi6nwdqWP/lT8fYeKR3mwRPZs2e9x5eLdZOlnu/AoDyWfyqET3rjMUoOcR/vuv0jEr0IaBwOqTj0HSugpOGqMpV2iF3ldB4n/8FMluNzqhYN5yp6AR5hHxbpT32e1he0zxkcOoYKhlxmX/CQBEiABEmgABCjgNICb2Ei3QAGnkd54bpsESKD2BPCS8+9//7vrQKtXr3YtT0chwqktWLAgNpTZGydWyBMSIIFGS2Dp0qUJ77158+Yybdo0mTBhgu6D8GkQb+CBkw7buHFjbBjk76qsrJTy8nKJRCK6HJ848I8p86f53KiLV4aBUOdWX1Nfox6f5vN447nNYS+zj2Nc29slOofR3/hMdhxwR1+jv/183d6IhMLqRalOQo7PA+f682A5+uk2lnIFH/30sf8c3gnadJnqk+TL3f2d+WeuEYBHSniD9YU89pDX50QV0syX0Ha8TduIr1M/R76a4OdzJHrGzeLx+eOPk19sFSbitxRPs/ZSOPwn1bSwVSUxdp4SofyHfs82QHZc+lp10WHgKl66y7IgeDmVz5oiTcbdo0LVKVFDWb4KRReY/TeJKi8mi4WrJPjFHEsRLnCfw5u+lGjZTkedW0H+oDOkwibgxNoFK2KntT0pPus22bd1jUS2rnIZSv18iiPeQDgqPu93CeVuchmYRSRAAiRAAiRAAiSQVgIUcNKKk4ORAAnkKoEbbrhB8CLTbi+//LLE83B5++23BUem7dtvv5Vbb71VSktLZdWqVTJ79mwJh/cnovWqbw7++te/zvQSOD4JkEAOEUhGfJk0aVJMvEG/MWPGyJ49e9K2W4g1V155ZdrG40AkQALZSaBq2RtqYeqFuM2SFTPghRPe9IVllGhgr8qN84H4+w23lJsvELYMOW0q3phqLnacw3Ok5BIlVCQR4qxw2HgJb14pwc/fcYxnLvB1HihNlJdLNlvBkWersG8fOEQY8K384EkpPOBx4lG5X4rHTJayZ38ZX+Q4sNG8nsdKkwv+IIG5D+sxEtl/vlpH1WevKdHvs0Sap9wG+yiZ8ICUvzDZNdyd28DwvGly4R9V7qBBbtUsIwESIAESyGEC+gtJB9ZvfGkhh7fDpTciAhRwGtHN5lZJgATiE4BXi5uFQiG34jot27x5s/zpTwgpYrX8/Hx56KGH5KSTnDHjrS15RQIk0JgIQIxOVISZMmWKbjt16lRB7ht44MAbJxkvnsbElnslARJwJ+AWPk2UxwxElWQMgg+EALtBIKpOwIns2yoIXeZt31sCb/1Nwt99aR0CaznsFCk65RqBp08yFlFeJcXn3yVVC2dK4P0ZEt27xdLdU9RMCo69UAqU0OPJy7fUZeNF0ejbJLRxucDzxmyBdx7QokXegZB3/r7DpGT8A0oUm+YQ1dDP26Kj5B99nhSccIn2ssofck7CAg5CupVcdp9UzP67VCFUm4unnqdp22rvuXnt1Z17VRi/kkunSZXyHKpc8KyE1ysvVcNT0NTR27qr5B9xhnqOLhIPvK5oJEACJEACDY4ABZwGd0sbzYYo4DSaW82NkgAJpJvAwIED5dhjj3UdFp45a9euda1LR2FRUZEsWrRI+vfvn47hOAYJkEADIjB48GCZN29ewjtCCDV430DEQV+IOPDESWaMRCeD8AzPQRz41pv9vLoy1FVXbx6zunZGXbrGM+Y1j2uUxduf0dbczihL97ry8vI0Z9wjYz3m89sWRGR3lcoDgdBJ+vBKFKyRH+LANT6xLvWWVnW1lus2umz/GLF2aH+grUcljDfb7inJvdQ39+V5dhJo9rOn0rIwX4c+0mLywTCxiQ4aLdulm/p7HC3+K2aIDum2fZ0gab1H5XbJ69Q/Ka8b87wIC+ZRz37BMecpweJcHY4rsnuzRENV4m3eXudzqTa824HBmlz8F/Ow1Z43vzVxD+9k2mJSCBrNf/FytfMblfBsavrT6RLetUki29ZIVIU38xQ2VfvuIL423Yxm+hPXydw7T36RFKvQeEWjrlOC20qJ7Nuuf+Z4i1uqHDutxKtCvumfJ6ZZfB36JjWHqavk9x+pDzwT4S2rBcIczFvcXLwtO+t7aW5f3XmyzH1tuqe87urWwToSIAESIIHkCFDASY4XW2cPAQo42XMvuBISIIF6JABPliOOOMKxguLi+N/AGzVqlNx9992OPig4//zz0ybgdO3aVW6++Wb9gvWOO+7QeQwqKirklVdeoYDjSp+FJEACyRKYPn26IK/XnDlzLJ44M2bMSHYoS/u+ffvKjTfeGCvr1KmTdOzYMXbNk/onULghLD7kCzcZAmFBfqGRQM4QCFs9puEdgiMtZhobgoKvfR99pGXsHBnE17KT4MiEefIKJK+L83fwTMyFMSFA5XUbnKnhOS4JkAAJkEAWE6CAk8U3h0urlgAFnGrxsJIESKCxEBgwYIAcf/zxWbndtm3byjXXXKPXBq+eRx99VJ/ffvvtctZZZ0m/fv2yct1cFAmQQP0QGDFiREreMxBwevTooUUceOJA1MEncoSlahBwaCRAAiRAAiRAAiRAAiRAAiRQ3wQo4NT3HeD8qRJAHAQaCZAACZBAjhD485//LBB0YIFAQOeqCIfDObJ6LpMESKAuCCD8WaqGUGojR46UWbNm6SEmTZokM2fOTHU4LQCl3JkdSYAESIAESIAESIAESIAESCBNBCjgpAkkh6lzAhRw6hw5JyQBEiCB1Am0atXKErZtwYIFluvUR2ZPEiCBhkIAXjPdullzEySzN4g4Y8eOlXvvvVd3gyA0fvz4ZIbQbREqrUuXLkn3YwcSIAESIAESIAESIAESIAESSDcBCjjpJsrx6ooABZy6Is15SIAESCBNBC6//HL9DXljuMmTJ8uKFSuMS36SAAmQgNTGC8fAB++biRMnyosvvqgPozzRT4Ryo5EACZAACZAACZAACZAACZBANhCggJMNd4FrSIUABZxUqLEPCZAACdQzgQcffFAKCgr0KiorK/W340MhawLfel4ipycBEqhHAnfeeac0b9681itAHhyIQfDKScYw9xVXXJFMF7YlARIgARIgARIgARIgARIggYwRoICTMbQcOMMEKOBkGDCHJwESIIFMEEBi8FtvvTU29KJFi+Suu+6KXfOEBEigcRNo0aKFwIOmvgxzN23atL6m57wkQAIkQAIkQAIkQAIkQAIkYCFAAceCgxc5RCAvh9bKpZIACZBA2ghcfPHFgiMZ69Chg5j/h19d3+eee666aoEHDY549uWXX8aripXjG/Y4aCRAAiTgRgAiCjxo1q1b51adsTLk38Hcq1evztgcHJgESKDxEvC27ir+w061APAUNLFcp3rh6zpYJG+/h7MxRl7nw41TfpIACZAACZAACeQwAfP7HI/Hk8M74dIbGwEKOI3tjnO/JEACJEACJEACjYIAvHBmzZolyEWzZ8+eOtkzQqdhTsxNIwESIIFMEPD3OVFwZMIKT7w0E8NyTBIgARIgARIggSwgQAEnC24Cl5ASAYZQSwkbO5EACZAACZAACZBA9hMYPHiwTJs2rc4WirkwJ40ESIAESIAESIAESIAESIAEsokABZxsuhtcSzIEKOAkQ4ttSYAESIAESIAESCDHCEyYMEEee+yxjK8ac2AuGgmQAAmQAAmQAAmQAAmQAAlkGwEKONl2R7ieRAlQwEmUFNuRAAmQAAmQAAmQQI4SgLAyZ84cQYizdBvGxNgUb9JNluORAAmQAAmQAAmQAAmQAAmkiwAFnHSR5Dh1TYACTl0T53wkQAIkQAIkQAIkUA8EkAtnyZIlMnz48LTNjrEwJsamkQAJkAAJkAAJkAAJkAAJkEC2EqCAk613huuqiQAFnJoIsZ4ESIAESIAESIAEGgiB7t27y9y5c7XHTG2EHPSF1w3Gwpg0EiABEiABEiABEiABEiABEshmAhRwsvnucG3VEcirrpJ1JEACJEACJEACJEACDY8APGYgvuCYNWuWPtatW1ftRrt16yZjxozRBz1uqkXFShIgARIgARIgARIgARIggSwjQAEny24Il5MwAQo4CaNiQxIgARIgARIgARJoWAQgxOCYNm2a7N69Wx+BQEA2b96sN9qhQwcpLCyUFi1a6KNh7Z67IQESIAESIAESIAESIAESaCwEKOA0ljvd8PZJAafh3VPuiARIgARIgARIgASSJmAWafr165d0f3YgARIgARIgARIgARIgARIggWwlQAEnW+8M11UTAebAqYkQ60mABEiABEiABEiABEiABEiABEiABEiABEiABEiABHKWAAWcnL11jX7hFHAa/SNAACRAAiRAAiRAAiRAAiRAAiRAAiRAAiRAAiRAAiTQcAlQwGm497ah74wCTkO/w9wfCZAACZAACZAACZAACZAACZAACZAACZAACZAACTRiAhRwGvHNz/GtMwdOjt9ALp8ESIAESIAESIAEUiUwf/58WbVqlWzevFkf5nF69+4tHTp0kEGDBgnOaSRAAiRAAiRAAiRAAiRAAiSQqwQo4OTqneO6KeDwGSABEiABEiABEiCBRkRg7ty5MmPGDJk1a5bs3r07oZ13795dxowZI9dff73gnEYCJEACJEACJEACJEACJEACuUSAAk4u3S2u1UyAIdTMNHhOAiRAAiRAAiRAAg2UwJIlS2TkyJH6mD59esLiDXCsXbtWpk2bJj169JApU6Yk1beB4uS2SIAESIAESIAESIAESIAEcogABZwcullcqoUABRwLDl6QAAmQAAmQAAmQQMMjcMMNN8iQIUME3je1tTvvvFMLOfDgoZEACZAACZAACZAACZAACZBALhCggJMLd4lrdCNAAceNCstIgARIgARIgARIoAEQQIg0eN3AeyadhnHHjh0r9957bzqH5VgkQAIkQAIkQAIkQAIkQAIkkBECFHAygpWD1gEBCjh1AJlTkAAJkAAJkAAJkEBdEzDEm3R43cRb+6RJk2TixInxqllOAiRAAiRAAiRAAiRAAiRAAllBgAJOVtwGLiIFAhRwUoDGLiRAAiRAAiRAAiSQ7QTgeYO8N5k25NNJt4dPptfM8UmABEiABEiABEiABEiABBoXAQo4jet+N6TdUsBpSHeTeyEBEiABEiABEiABRQBeMXUh3hiwkWOHOXEMGvwkARIgARIgARIgARIgARLINgIUcLLtjnA9iRKggJMoKbYjARIgARIgARIggRwgACEFXjF1bRCNELaNRgIkQAIkQAIkQAIkQAIkQAIkQAIkkB4CFHDSw5GjkAAJkAAJkAAJkEBWEIA3TH0YxBuGUqsP8pyTBEiABEiABEiABEiABEigJgL0wKmJEOuzlQAFnGy9M1wXCZAACZAACZAACSRJAJ43a9euTbKXs3m3bt1k0KBBzooaSqZMmZKW+WuYhtUkQAIkQAIkQAIkQAIkQAIkkBQBCjhJ4WLjLCJAASeLbgaXQgIkQAKZIFBeXi6LFy+WzZs3Z2L4tI+5cOFCef/99/Xx+eefO8Zfs2aNLF26VEKhkKOOBSTQ2AlAQKmtDR8+XOfPQQ6dVEQceuHU9g6wPwmQAAmQAAmQAAmQAAmQQLoJUMBJN1GOV1cE8upqIs5DAiRAAtlEoLS01CFoNGvWTNq1a1ftMlevXi3m/+l7vV7p2bNntX3qsxIhjQYOHCgbN26UvLw8mTlzppx11ll1viQw++KLL+Srr76SsrIyAetDDz1U+vTpIx6Px7Ke888/X9atW6fLzjzzTHn55Zdj9XfffbfcfPPN+vr444+XDz/8MFbXkE4qKyvl008/lQ0bNmihqm3btvpFOj5pqRHAs7d3795Y55KSEunXr1/s2n4SDocFYqHd8PcIz2+rVq3sVZbr9evXS1VVlS4rLCyUzp07W+ozcQHBpbbeN+PHj4/lz8HPjz179iS91BdffJGh1JKmxg4kQAIkQAIkQAIkQAIkQAKZJGB+l2N/D5HJeTk2CdSWAAWc2hJkfxIggZwkAFFg3LhxlrUPGTJEe6pYCk0Xn332mePb6AUFBRIIBEytsusUa4Z4A4PHyltvvVWnAg7mvOeee+Rvf/tbbB1mQh07dpQLL7xQbrzxRunSpYu5yvX81VdfjZV/9NFHsmvXLmnZsmWsLNdPgsGg/P73v5f77rvPNRn8UUcdJZdddplcddVVAlGAlhgBcD3hhBNk586dsQ5NmzaVrVu3xuW4bds2LTDGOthOWrduLaeccorcdNNNcvTRR9tqRUaNGiUrV67U5bhv8CzLtM2dO7dWU0ydOlUmTZqkx4AYNHbs2JQEIYhI3377ba3Wws4kQAIkQAIkQAIkQAIkQAIkkE4CFHDSSZNj1SUBhlCrS9qciwRIIKsJwOMB35qPZ88991y8qrSWDx06VH9b/7bbbqv1uIcffrh06NBBj+Pz+fQL51oPmuAA27dvl1NPPVVuueUWV/EGw3z33Xdy7733Wl6sVzc8xjPsmGOOySrxJh337aKLLpLf/va3ruIN9r1o0SKBFxK8QGiJE3jttdccz9i+ffvkpZdeSnwQW8sdO3bIs88+K/AEe+ihh2y19XM5a9aslCZu3ry59s4zxBuMM3LkyJTEG2MBb7/9tnHKTxIgARIgARIgARIgARIgARKodwIUcOr9FnABKRKggJMiOHYjARJomAT+97//xd1YXQg4CAn2wQcf6G+vw7uktoYwTwgdhZwy33zzjYwePbq2QybUPxKJyDnnnCNmjwAISMOGDZMLLrhATjzxRPH7/XqsY4891uHZFG8SiFrIiwPvG+wpWywd9w1eYQhxZ1hRUZEghNzpp58uffv2NYrliiuuoIATo5HYyVNPPRVrCM8Zw5588knjtMZP/F1C2D94iuFZNgyh1q655hr998woq69P5IZK1iDe4O/pmDFjdNfp06drzxuET6uNmcPV1WYc9iUBEiABEiABEiABEiABEiCBdBCggJMOihyjPgjwK7z1QZ1zkgAJZBWBFi1axDwekLsBL2PthvwtOGB4kWsOxWRva1wjbNOKFSt0Hg3kfUHIpgEDBlQblulf//qX0V3nijHCn6EQ+U8Qsg22efNmHRINIkj79u11Gf5YvHix/tZ879695YgjjhC8XEYOi27duuk2yP2D3B/l5eWWPRQXFztyeiAPC8JIGYa5E83BAq8aCFGGHXbYYVqcQM4bw+Chg/326tXLKKrxE6IWOOJA/06dOsXtA28q3DPsFbmNjjzySIEoYjcwgicQrEmTJjGvHrzAhscL+CHUG8Jg5efn27vr60Tvm2vnA4XmXD8QCBYsWKDzFxl9EJIKgsMPf/hDo8jxiTXDkwyc8GIeCejbtGnjaIcCtMFzCQNH5HOCQehbvny5ZoH+RohAxAg+5JBDdBv7H1u2bBE87zB4BxleX+Z2qdwPPKv4+wnD8wgmCHsGAbC6e2+eF8+82dNm8uTJct111+km8MwBh0TC8E2cOFF7P6Ej+vzsZz/THji4RqjAxx9/XIe/w3V9WbKiC+4vxBuDMfYIAScd9vHHH+uwdekYi2OQAAmQAAmQAAmQAAmQAAmQQG0JUMCpLUH2ry8C9MCpL/KclwRIIGsIIPeN8ZJ73rx5rkm7//vf/8bWW5MXy9dffy2XX365HhNjn3vuufqlO77hDk8KlJnFDQyMl/MIn/XII4/E5nniiSf0t/3xjX8c8PIwDGGbUAbxAy+P4ZUyePBgLTKcd9558vDDD+umGzZssIzx4IMP6nK81MY6jLEhrJjFGjS68sorY/Vo9/zzz+u+ifwBAccwiCYQJ8ziDer+n73zgJeqOPvwXJpIEcSGHTX2gooJNhR7Yk+ixhps0XxGRY0do6ixYo0tlqjYY4ndaOwidiyxYglYQcCGShPYb/4Dc5g99+ze7fV5f7+9e8qcOTPPnLN3d/7nfV8xP/bYY43am6sdeeSRUZtCr5TweHESH4lWv/zlLx1/ef5IeBs8eLATdMLyISN5u0goOOyww5zooxwnap8EAzG4/fbbw0PzHre0g2MrEia8aUJ9zTXX9KvuXeKJeElMipuEPl0/Yrr55pu7NqvtEq50vY4ZMyZ+iAlZShiRULXLLrsYiX/ynhIr5UTx18hSSy1llBclbjpumWWWicrFBdBixkN9kv3rX/9y47nppps6D674/RNvU7iucGAS8WQStZQ/SO2VzZgxwxTiWSfB5/LLL3d1+D8SvappEiLzsUGDBkXijYQfhUwrlXiTTzsoCwEIQAACEIAABCAAAQhAoBIEEHAqQZlzlIMAAk45qFInBCBQVwQ0uatQVTJ5ETz00EOt2u8neeWFognybKb6brzxRpMphJAmwTW5HoY70qRyXBzIdg6/Tx4U8hraZJNN0urzgpQvF3/XxH4ossijSOKAt2eeecYMHz7cr7o+S9DJxSQGfPzxx1HRvfbay/Tp0ydaL+fCgw8+aAYOHOg8NeLnkSfJ3/72N8deE/dJ9vLLLzvB59JLL408Snw5CSx77rlnmpBW6Lj5OsP3UJhRfhUJeLnY2LFjTf/+/d31E5/E1xdUiWcKU5ck4vj6n3jiCbPttts6kc5/qdU1JI+M0JTzJW4K+xby3H///aMixY6HhBpd3xKW5OXjra3r25fTexg+TYKevNZ23HHHqEi4P9qYw4JEnM6dO0clvadStKHCCwpbmI/Jo8p73ug4eRVhEIAABCAAAQhAAAIQgAAEGpWA/62r/un3EAaBeiFACLV6GSnaCQEIlI2AvFHkceAFC00Y77HHHtH55FHz5ptvuvVtttkmLf9FVChYUFgieT0ohJAmnhXKTBPOTz75pJEwIJs6dao5++yzza233urWJSDJY0RP9fsvFQo7JjHCW6bwVWqrD1/ly+YywS0xQhPyPu+P+n/AAQc4MeCQQw7xVbmQa//4xz9y/oIjESS0rbfeOlwt27ImoOX55MUE8TzzzDOdZ4hCZZ177rkupJw8Qi644AJz/PHHt2qLJsEl4Pn8MxJVtP7RRx+5shJIzjvvvMgbqZhxi59cuYFCrw6FSpPX06mnnuquoXh5vy7B5IsvvnCrCoWn8htssIG7Zk866SQjMUjh5hTy6+GHH/aHpb3rmKRrSN44AwYMMCNGjHDlJTKeddZZaceGoo7CmukekZViPHRviou/J/yJc7m+VVb9fvTRR/1hUQ4o3e/+XpRYKQ8meRjlY7qOQtEm0/2ZT53FlPU5pXKtQ942Ev8kwEnIUSi1I444IvoczLWeTOWUp0pCtjeFH1SYPrVTL4UJzPRSGD7tUzn9sGqrXKb92u7ripfRdrXHb08qFy+Tqb54OV9XUshGz4N3CEAAAhCAAAQgAAEIQKCyBMLflQg4lWXP2YojgIBTHD+OhgAEGoCAPGYkMuhpek3IarJfIoDPdxKGT5MgE07aZuq+8mEoT4sm/LwplJq8bvxkuDxVvMmTQ6YQZ96LQmG//CSzL5f0rol35aaRWKEQYPKu8XUklQ+3XXHFFUYT2AqhpC8zEm522203l7vHlzvnnHNMnzw8aHw+GX+8RIBKmCakw9xECp2lsHIyiRAaZ+91pFB1SQKOymry9fHHH4/yd0jcUP+9R1Wpxk3nCk1i3YEHHpgWRk99kKD461//2gkn8bBxyncjYdDbGWec4Sbhtb7RRhu5XDQ6VvbII49kFCp0DWmy/M9//rMT8SR+eSFMApG/ZpUf55VXXjHrrbeeq1O8xcqbBDR/zZdqPNQ2iaC6DuVppPvU35v+vJneJTgpxKBM7ZKXkUyh2CRa6LqXaHfbbbeZo48+2u3L9EeiqwQhhRocOXKkUS6d0ColVIbnLHZZoo1Cp1133XXuXtGYiYu/T4qpX+JQaP56yuXzMzyukZblwZmLaKRr1ZfzYpC2hS+/PVs5X0b3jD9W5bXdH6ftk99tMTNmtTOmnf1/1WJferflWoL1FruebX+8vNZVviWsr8N8jTSc9AUCEIAABCAAAQhAoM4IIODU2YDR3IgAAk6EggUIQKBZCSjniZLXb7HFFkYhnzRRr4lNPyHrc79o0lihlzTZ25aFoYkkHGiiWOeRuOKtVCGL9OSI2iiRwpsm43MxeUzIG8WHvZKnkfc20vGa3JXnRj4Wiig6Tl4hlbDHHnssOo1ynEg4kgeHN/XFT0zLo0b8k5LXb7XVVpF4o2NVRhP+999/v6sq3j9ffyneJeDJu2TYsGGRCKcvmcoBo2tTXkSHH354dKqwz9qoazbss0RAXR/+i6rEl0yeJhIkhgwZEtXtryF5wCgnkK9XHjdewFG7Qs+dMORa2LZixmOxxRYzCvG20EILRW3LdSEMj6b7w4+3+iYxx+/Xe1sCjryjQg+psA3rrruu87YLt1VjWd5/YWjGXNqgkI66NyQESvC86KKL3Hs4lrnUEy8j7zSJ4frcw+YQgIXl0HF+03mzg7kkIAABCEAAAhCAAAQgUHEC/nexTowHTsXxc8IiCCDgFAGPQyEAgcYg4HNHSJzRJLlMXg+aDFfekFdffdVt08S+kqCH//TdjtgfPfGv0EEKj6YJ80xCTVv1xKrNuLryyiuniTcZC2bYoYlaTcrLQyM0iVrx0GmagJR3RpLJU0mT5DouNAlYlbD3338/Os0nn3ziPKCiDQkLCi3mJ/TD3ZoEj5s8nLz568Wv5/KeCzfVo6fhFaJMCeZPPvlkJ8z586mOwYMHO74KdScL+6x1hd3LZvIgyWTy/kkyjae8sq699lq3W14tEpL0hTcMnyaPn9BDKGxbMeMhD6JCxBudUzl0vK2//vouZJhfV14gL+DIk+ndd981q666qt+d8/uGG27oxkljV20baL248hVw1GYJzOuss47zxNl3332NXhJzVN93331XULdOOOEEoxB+CiWpa9i/dC9JpJSXoH/pM9Mvq1y47rfr3W9XmXA9qYy25VIulzLF1qVzYHMJ/DTVTH/uJnBAAAIQgAAEIAABCECg4gTCORgEnIrj54RFEEDAKQIeh0IAAo1BwP8Tl4CjUGZaV16Yyy67zNx5551RJxU+rS3TJLuEHh9yKiyviXBNQKpMKW255ZYrurrdd9+9lYCjCe943WITJpMPT+z7FXoZab9EME0Ol9u8h0iu59FYJFmSqFPsl7tcuIVtWWWVVYyEkrffftuFNQvFNU2KK1SZvEhK1Wfl6pCnSyaTh5YXcCSMKL+JPJzC8G3ei8vXUaq2xa9BX39b7xJn/L2tsso5pVcmU/nTTz89027nSaawiPLEk6AkoU9hEbfffnsXjirjgRXcIcHFe5kVclqJuRKALrzwQifgyBOxUBFHYphEPB+6y7dngQUWKEiQ88fX87vCx4Vik5a9KBVu1zYvLPntuZTLVCY8b7xerT/56U9m2kwrMs2eFb1SqezrKttmGVtHytc5c+7/PXngbDzITH34/HoeStoOAQhAAAIQgAAEIFCHBMLfh8X+xq/D7tPkOiaAgFPHg0fTIQCB0hLo3bu30VP5ynGipOajRo2KBBxNlivxeVumEFiheKOwbMpNs+aaaxpNksvLQV4tpTTlMijGFBJMT8vHTblNJCLI+yIfUzip0BT+ShPd5TZNro8fP96dRl5JQ4cOzXrKTEnni+WZ9aR57pRHjcJQ7bPPPubmm292R6uPCgEnkUd99qYvoMq9pPwWmeznP/954q62+izvGjEdPXq0O16h03R+TS7LvJeOW5n7p9rj4b1rwjZlW25LwFEowfPOOy9bFVXft/POOzsvwUK9ZtQBhVCTR44XcSSgKcxaPiYPsvDazOfYRi6rXDS1aO8+OstMnJbespRdbUnfVNI1BJyS4qQyCEAAAhCAAAQgAIEcCCDg5ACJIjVJIPMsT002l0ZBAAIQKC8BeeH4JPWXXHKJefnll90JJcQkeWbEW/P0009HmzShrrBi4XGZvFf8QdV4CkQ5VbzwoYn8Pn36GCWrl/3pT39yT+B7rxpNQCqZe5L5xPIbbLCBm7z9/vvvXbHhw4eb448/PmPulaS6CtkmgeGDDz5whypUmDymsokZhZwj0zFtjVsu3MRVIl/cVLe8PLyAo/0K/yZTn73py6gEn3J5Oymslhf65Jkxbtw4f2qjPDndunWL1rVQzfGQ51KYy0ltUwL5uM2YMcP461TXvDyL5HlWz3bEEUeYU089taguXH/99UZjrDBq+Yo3OrGuFQwCEIAABCAAAQhAAAIQgEAtEUDAqaXRoC35ECjuse18zkRZCEAAAnVAIPSykfDg/8HnEj5N3dOEsDd57YT5YDRBHIac8uXC9/AJbS9GhPtLvXz//fenCQPyMpAnghckJIQccsghaadVG5Ne3otDfQ4ncBVKS/mElAsjtMmTJ5u7777bnHPOOeHmgpd32GGH6FgJHJnCYUl4CPOzRAcVsZDLuCUx0zbPTcLLQQcd5CbOFQrJm3IIKaeSN43N8ssv71aVKN6PlTYcd9xxiSH6VIcXI309+b7Lq8LneZFA8tZbb0VVxMOnaUc1xyMUu9QWhaDTtRx/Pf/889odWfy4aEcdLUjAUa6uYm3s2LHmnnvuybsafYYOtKHcMAhAAAIQgAAEIAABCEAAArVEwM/vqE3h7+haaiNtgUASAQScJCpsgwAEmpaAPBhWWGGFtP7Li0OhiXIxhZXyJjFHxyms2pAhQ1x4th9//NHvTnwPPSoUekwToXvttZfp16+fSzCeeFCBG7/55htz8MEHR0crhNwZZ5xh+vfv74QEv+Ouu+5KS1bvt2d7P+2009I8bpQgXvUqbNlaa61l5NHTs2dPF1rt1ltvzVZVzvuUF8YLGzpIbdhss83cu8LYSZwaMGCAWXrppY3YltJKMW4Suq6++mrXZuUJEaf11lvPLL744uahhx6KmisxTNtkut722GOPaN+jjz7qjpPH07Bhw4wm8+W9o/w2559fXM4JnfOXv/ylO5e8hf773/+6ZeXCEde4VXM8brvttqg5iyyySEavGt3v4TWjkIGheBZVUkcLuq807tUyhWDDIAABCEAAAhCAAAQgAAEI1BoBBJxaGxHakysBQqjlSopyEIBA0xBQGDXlf/AmEUBJy3Mx5bi59NJLIy8I5S/Ry5sm1uVxEn5x8Pv0Li8H5d7xFoZk8/lG/L5i3wcPHpwWBkt99k/un3XWWUZ5TiZOnOhOo1Bq4uBDqbV1bk0iS0zQhP/HH38cFf/iiy+MXuUwebPcd999ztvHn0NhoPQqt5V63CSQhCHAfPsV3u6qq67yq+79yiuvdIxHjhzp1uVdVCqvprQT2RUluX/wwQfdZn8Na1uSVWs8nnvuOTNmzJioSfJS8l5O0cZgQZ5CF198sdsyYcIE89hjj0VCVVCsrhYl4Mh75o033qhou0855RSjaxSDAAQgAAEIQAACEIAABCBQawT8b1i1Cw+cWhsd2pONAB442eiwDwIQaEoCYRg1Acg1fJrKyiNCE6fLLLOMViNbdtlljZ7ulzCy6aabRtvjCxJKjjrqKOPzyfj98o6J1+n3FfKuSfgwLNdWW21ldt9996gq5e0JE7YrJJk8WPIxsZCXxsknn5zm5eDrUIg5eRgddthhflPR7/KoeO2114zEqYUXXrhVfUqsvs8++7jzttpZxIZSjJt4K9dSUq4WedAcffTRrm/x60D5XRSaTx428oaJm8KeyWsnDGsXL5PrusTNkKuEEYlXmawa4xH36ApDuSW1M75fIQTr3SSgSrj0gmwl+qPPzaFDh1biVJwDAhCAAAQgAAEIQAACEIBA3gQQcPJGxgE1QqDFXrypGmkLzYAABCDQMAT00Tp69GijPC8K4bTccsvl1TeFWpMnxezZs93xCvtV70+IjB8/3ujl+yRRIi5U5QWpjcIaA+XxUN4TLcuLSkKaQuKVy0oxbgrhJQ8ShbiTQCJOGv9cTYzlgfTTTz8ZCVbyiOjSpUuuh5etXDXGo2ydqZOKX3/9dSdWfvfdd2Vtcd++fZ1gJOEoNHkThh6F2rfEEktEIQDDsixXj8Aej84yE6eln18/DlrSN5V07dtT+7eqr+cpL7baxgYIQAACEIBAPRCo9f9rj+3Qvh4wNkwb9RCjfouFtueeexo9eIdVl4Dy+15xxRWuEZdffnneD6lWt/WcvZkJlG8Wq5mp0ncIQKDpCUhsCfPh5Auka9euRkntG8nkRaRXpUxjIOEsX/GsmPaVYtwkMK244ooFN6PSnHNtaDXGI9e2NWq5tdde2wkrA62nW7lEHHkUyuswLt40KlP6BQEIQAACEIAABCAAAQjUJwE9VOhNv08xCNQLAUKo1ctI0U4IQAACEIAABCCQJwGJOPJEk5dMqU3h8xSqDfGm1GSpDwIQgAAEIAABCEAAAhAoNQEEnFITpb5KEUDAqRRpzgMBCEAAAhCAAASqQEACi8KpnXLKKSXJiyMxSHmXrr/++ir0hlNCAAIQgAAEIAABCEAAAhDInwACTv7MOKI2CCDg1MY40AoIQAACEIAABCBQVgJDhw513jiFCjkSbq677jonBiksGwYBCEAAAhCAAAQgAAEIQKBeCCDg1MtI0c44AQScOBHWIQABCEAAAhCAQIMSkDeOhJxvv/3WvPbaa2bw4MFGeWx69OjRqsfLLrus23fhhReaMWPGOOFm3333bVWODRCAAAQgAAEIQAACEIAABGqdAAJOrY8Q7ctEoEOmHWyHAAQgAAEIQAACEGhcAsqPc9FFF6V1cObMmaZDB74epkFhBQIQgAAEIAABCEAAAhCoewIIOHU/hE3bATxwmnbo6TgEIAABCEAAAhBIJ4B4k86DNQhAAAIQgAAEIAABCECgMQgg4DTGODZjLxBwmnHU6TMEIAABCEAAAhCAAAQgAAEIQAACEIAABCAAgSYhgIDTJAPdgN1EwGnAQaVLEIAABCAAAQhAAAIQgAAEIAABCEAAAhCAAAQgMIcAAg5XQr0SQMCp15Gj3RCAAAQgAAEIQAACEIAABCAAAQhAAAIQgAAEINAmAQScNhFRoEYJIODU6MDQLAhAAAIQgAAEIAABCEAAAhCAAAQgAAEIQAACECieAAJO8QypoToEEHCqw52zQgACEIAABCAAAQhAAAIQgAAEIAABCEAAAhCAQAUIIOBUADKnKAsBBJyyYKVSCEAAAhCAAAQgAAEIQAACEIAABCAAAQhAAAIQqAUCCDi1MAq0oRACCDiFUOMYCEAAAhCAAAQgAAEIQAACEIAABCAAAQhAAAIQqAsCCDh1MUw0MoEAAk4CFDZBAAIQgAAEIAABCEAAAhCAAAQgAAEIQAACEIBAYxBAwGmMcWzGXiDgNOOo02cIQAACEIAABCAAAQhAAAIQgAAEIAABCEAAAk1CAAGnSQa6AbuJgNOAg0qXIAABCEAAAhCAAAQgAAEIQAACEIAABCAAAQhAYA4BBByuhHolgIBTryNHuyEAAQhAAAIQgAAEIAABCEAAAhCAAAQgAAEIQKBNAgg4bSKiQI0S6FCj7aJZEIAABCAAAQhAAAIQgECTEJj21NVN0lO6CQEIQAACEIAABCBQDQIIONWgzjlLQQABpxQUqQMCEIAABCAAAQhAAAIQKJjAtKevKfhYDoQABCAAAQhAAAIQgEBbBBBw2iLE/lolQAi1Wh0Z2gUBCEAAAhCAAAQgAAEIQAACEIAABCAAAQhAAAJFE0DAKRohFVSJAAJOlcBzWghAAAIQgAAEIAABCDQjgZb5ezRjt+kzBCAAAQg0CQH+zzXJQNPNuiOAgFN3Q0aD5xJAwOFSgAAEIAABCEAAAhCAAAQqRqDjKptW7FycCAIQgAAEIFBpAvyfqzRxzgeB3Agg4OTGiVK1R4AcOLU3JrQIAhCAAAQgAAEIQAACDUugy45DTMc1tjazPn/bmFk/NWw/6RgEIAABCDQZgfYdTfslVzcdl/95k3Wc7kIAAhCAQDkJIOCUky51QwACEIAABCAAAQhAAAKtCGhyiwmuVljYAAEIQAACEIAABCBQJgJ44JQJLNWWnQAh1MqOmBNAAAIQgAAEIAABCEAAAhCAAAQgAAEIQAACEIBAtQgg4FSLPOctlgACTrEEOR4CEIAABCAAAQhAAAIQgAAEIAABCEAAAhCAAARqlgACTs0ODQ1rgwACThuA2A0BCEAAAhCAAAQgAAEIQAACEIAABCAAAQhAAAL1SwABp37HrtlbjoDT7FcA/YcABCAAAQhAAAIQgAAEIAABCEAAAhCAAAQg0MAEEHAaeHAbvGsIOA0+wHQPAhCAAAQgAAEIQAACEIAABCAAAQhAAAIQgEAzE0DAaebRr+++I+DU9/jReghAAAIQgAAEIAABCEAAAhCAAAQgAAEIQAACEMhCAAEnCxx21TQBBJyaHh4aBwEIQAACEIAABCAAAQhAAAIQgAAEIAABCEAAAsUQQMAphh7HVpMAAk416XNuCEAAAuWOc3wAAEAASURBVBCAAAQgAAEIQAACEIAABCAAAQhAAAIQKCsBBJyy4qXyMhJAwCkjXKqGAAQgAAEIQAACEIAABCAAAQhAAAIQgAAEIACB6hJAwKkuf85eOAEEnMLZcSQEIAABCEAAAhCAAAQgAAEIQAACEIAABCAAAQjUOAEEnBofIJqXkQACTkY07IAABCAAAQhAAAIQgAAEIAABCEAAAhCAAAQgAIF6J4CAU+8j2LztR8Bp3rGn5xCAAAQgAAEIQAACEIAABCAAAQhAAAIQgAAEGp4AAk7DD3HDdhABp2GHlo5BAAIQgAAEIAABCEAAAhCAAAQgAAEIQAACEIAAAg7XQL0SQMCp15Gj3RCAAAQgAAEIQAACEIAABCAAAQhAAAIQgAAEINAmAQScNhFRoEYJIODU6MDQLAhAAAIQgAAEIAABCEAAAhCAAAQgAAEIQAACECieAAJO8QypoToEEHCqw52zQgACEIAABCAAAQhAAAIQgAAEIAABCEAAAhCAQAUIIOBUADKnKAsBBJyyYKVSCEAAAhCAAAQgAAEIQAACEIAABCAAAQhAAAIQqAUCCDi1MAq0oRACHQo5iGMgAAEIQAACEIAABCAAgcYk0KJupRqzb/QKAhCAAAQg0NAE3D/xhu4hnYNAwQQQcApGx4FVJoCAU+UB4PQQgAAEIAABCEAAAhCoOQJMANXckNAgCEAAAhCAAAQgAIHCCSDgFM6OI6tLgBBq1eXP2SEAAQhAAAIQgAAEIAABCEAAAhCAAAQgAAEIQKCMBBBwygiXqstKAAGnrHipHAIQgAAEIAABCEAAArVLYIFOtds2WgYBCEAAAhCAQHEEuncs7niOhkAjEUDAaaTRbK6+IOA013jTWwhAAAIQgAAEIAABCEQENlqcWGkRDBYgAAEIQAACDUZgo978n2+wIaU7RRBAwCkCHodWlQA5cKqKn5NDAAIQgAAEIAABCECgegR+v1I7s87CKfP218ZMn5mqXkM4MwQgAAEIQAACJSPQqUOLWaVni/0fX7IqqQgCdU8AAafuh7BpO4CA07RDT8chAAEIQAACEIAABCBgzJq9WuxLJHhKl+sBAhCAAAQgAAEIQKAxCSDgNOa4NkOvCKHWDKNMHyEAAQhAAAIQgAAEIAABCEAAAhCAAAQgAAEINCkBBJwmHfgG6DYCTgMMIl2AAAQgAAEIQAACEIAABCAAAQhAAAIQgAAEIACBZAIIOMlc2Fr7BBBwan+MaCEEIAABCEAAAhCAAAQgAAEIQAACEIAABCAAAQgUSAABp0BwHFZ1Agg4VR8CGgABCEAAAhCAAAQgAAEIQAACEIAABCAAAQhAAALlIoCAUy6y1FtuAgg45SZM/RCAAAQgAAEIQAACEIAABCAAAQhAAAIQgAAEIFA1Agg4VUPPiYskgIBTJEAOhwAEIAABCEAAAhCAAAQgAAEIQAACEIAABCAAgdolgIBTu2NDy7ITQMDJzoe9EIAABCAAAQhAAAIQgAAEIAABCEAAAhCAAAQgUMcEEHDqePCavOkIOE1+AdB9CEAAAhCAAAQgAAEIQAACEIAABCAAAQhAAAKNTAABp5FHt7H7hoDT2ONL7yAAAQhAAAIQgAAEIAABCEAAAhCAAAQgAAEINDUBBJymHv667jwCTl0PH42HAAQgAAEIQAACEIAABCAAAQhAAAIQgAAEIACBbAQQcLLRYV8tE0DAqeXRoW0QgAAEIAABCEAAAhCAAAQgAAEIQAACEIAABCBQFAEEnKLwcXAVCSDgVBE+p4YABCAAAQhAAAIQgAAEIAABCEAAAhCAAAQgAIHyEkDAKS9fai8fAQSc8rGlZghAAAIQgAAEIAABCEAAAhCAAAQgAAEIQAACEKgyAQScKg8Apy+YAAJOweg4EAIQgAAEIAABCEAAAhCAAAQgAAEIQAACEIAABGqdAAJOrY8Q7ctEAAEnExm2QwACEIAABCAAAQhAAAIQgAAEIAABCEAAAhCAQN0TQMCp+yFs2g4g4DTt0NNxCEAAAhCAAAQgAAEIQAACEIAABCAAAQhAAAKNTwABp/HHuFF7iIDTqCNLvyAAAQhAAAIQgAAEIAABCEAAAhCAAAQgAAEIQMAg4HAR1CsBBJx6HTnaDQEIQAACEIAABCAAAQhAAAIQgAAEIAABCEAAAm0SQMBpExEFapQAAk6NDgzNggAEIAABCEAAAhCAAAQgAAEIQAACEIAABCAAgeIJIOAUz5AaqkMAAac63DkrBCAAAQhAAAIQgAAEIAABCEAAAhCAAAQgAAEIVIAAAk4FIHOKshBAwCkLViqFAAQgAAEIQAACEIAABCAAAQhAAAIQgAAEIACBWiCAgFMLo0AbCiGAgFMINY6BAAQgAAEIQAACEIAABCAAAQhAAAIQgAAEIACBuiCAgFMXw0QjEwgg4CRAYRMEIAABCEAAAhCAAAQgAAEIQAACEIAABCAAAQg0BgEEnMYYx2bsBQJOM446fYYABCAAAQhAAAIQgAAEIAABCEAAAhCAAAQg0CQEEHCaZKAbsJsIOA04qHQJAhCAAAQgAAEIQAACEIAABCAAAQhAAAIQgAAE5hBAwOFKqFcCCDj1OnK0GwIQgAAEIAABCEAAAhCAAAQgAAEIQAACEIAABNokgIDTJiIK1CgBBJwaHRiaBQEIQAACEIAABCAAAQhAAAIQgAAEIAABCEAAAsUTQMApniE1VIcAAk51uHNWCEAAAhCAAAQgAAEIQAACEIAABCAAAQhAAAIQqAABBJwKQOYUZSGAgFMWrFQKAQhAAAIQgAAEIAABCEAAAhCAAAQgAAEIQAACtUAAAacWRoE2FEIAAacQahwDAQhAAAIQgAAEIAABCEAAAhCAAAQgAAEIQAACdUEAAacuholGJhBAwEmAwiYIQAACEIAABCAAAQhAAAIQgAAEIAABCEAAAhBoDAIIOI0xjs3Yiw7N2Gn6DAEIQAACEIAABCBQeQKTJ0824Q+nyreAM0IAAhCAAAQgAAEIQKB8BGbNmlW+yqm5KALh75CWlpai6uJgCFSSAAJOJWlzLghAAAIQgAAEINDEBH744QejFwYBCEAAAhCAAAQgAAEIQKCSBBBwKkmbc5WSACHUSkmTuiAAAQhAAAIQgAAEIAABCEAAAhCAAAQgAAEIQKCmCCDg1NRw0Jg8CCDg5AGLohCAAAQgAAEIQAACuRHo3LlzbgUpBQEIQAACEIAABCAAgQYmMP/88zdw7+qnawg49TNWtDSdAAJOOg/WIAABCEAAAhCAAARKQGCZZZYxxJYuAUiqgAAEIAABCEAAAhCoWwJLLrmkad++fd22v5EajoDTSKPZXH1psRdvqrm6TG8hAAEIQAACEIAABCpBQPluPvvsM/Pjjz9W4nScAwIQgAAEIAABCEAAAjVBQA8yLbzwwgYBpyaGwzVikUUWMZMmTXLLEydOdONTO62jJRDITKBD5l3sgQAEIAABCEAAAhCAQOEEunXrZlZZZZXCK+BICEAAAhCAAAQgAAEIQAACJSAQ+jAQKaAEQKmiYgQIoVYx1JwIAhCAAAQgAAEIQAACEIAABCAAAQhAAAIQgAAEIAABCORGAAEnN06UggAEIAABCEAAAhCAAAQgAAEIQAACEIAABCAAgTokgAdOHQ4aTXYEEHC4ECAAAQhAAAIQgAAEIAABCEAAAhCAAAQgAAEIQKBhCSDgNOzQNnzHEHAafojpIAQgAAEIQAACEIAABCAAAQhAAAIQgAAEIACB5iWAgNO8Y1/vPUfAqfcRpP0QgAAEIAABCEAAAhCAAAQgAAEIQAACEIAABCCQkQACTkY07KhxAgg4NT5ANA8CEIAABCAAAQhAAAIQgAAEIAABCEAAAhCAAAQKJ4CAUzg7jqwuAQSc6vLn7BCAAAQgAAEIQAACEIAABCAAAQhAAAIQgAAEIFBGAgg4ZYRL1WUlgIBTVrxUDgEIQAACEIAABCAAAQhAAAIQgAAEIAABCEAAAtUkgIBTTfqcuxgCCDjF0ONYCEAAAhCAAAQgAAEIQAACEIAABCAAAQhAAAIQqGkCCDg1PTw0LgsBBJwscNgFAQhAAAIQgAAEIAABCEAAAhCAAAQgAAEIQAAC9U0AAae+x6+ZW4+A08yjT98hAAEIQAACEIAABCAAAQhAAAIQgAAEIAABCDQ4AQScBh/gBu4eAk4DDy5dgwAEIAABCEAAAhCAAAQgAAEIQAACEIAABCDQ7AQQcJr9Cqjf/neodNPHjx9vxo0bZ2bPnl3pU3O+JiTQrl07s/jii5vevXs3Ye/pMgQgAAEIQAACEIAABCAAAQhAAAIQgAAEIICAwzVQrwQqKuCMGjXK6IVBoNIE+vXrZ/TCIAABCEAAAhCAAAQgAAEIQAACEIAABCAAgeYigIDTXOPdSL2taAi1t956q5HY0Zc6IvD222/XUWtpKgQgAAEIQAACEIAABCAAAQhAAAIQgAAEIFAqAgg4pSJJPZUmUFEBZ/r06ZXuH+eDgCMwbdo0SEAAAhCAAAQgAAEIQAACEIAABCAAAQhAAAJNSAABpwkHvUG6XFEBp0GY0Q0IQAACEIAABCAAAQhAAAIQgAAEIAABCEAAAhCoEwIIOHUyUDSzFYGK5sBpdXa7QQnmMQiUmsC4ceNKXSX1QQACEIAABCAAAQhAAAIQgAAEIAABCEAAAnVIAAGnDgeNJjsCVRdwllhiCYYCAiUngIBTcqRUCAEIQAACEIAABCAAAQhAAAIQgAAEIACBuiSAgFOXw0ajLQFCqHEZQAACEIAABCAAAQhAAAIQgAAEIAABCEAAAhCAQMMSQMBp2KFt+I4h4DT8ENNBCEAAAhCAAAQgAAEIQAACEIAABCAAAQhAAAIQgAAE6o0AAk69jRjthQAEIAABCEAAAhCAAAQgAAEIQAACEIAABCAAgbwJdO/ePe9jOAAC1SRQ9Rw41ew854YABCAAAQhAAAIQgAAEIAABCEAAAhCobwJTpkwxY8aMMdOmTavvjtB6CECgbAQOP/xwc8stt5hBgwaZUaNGle08VNxYBNq1a2cWX3xx07t376p1DAGnaug5MQQgAAEIQAACEIAABCAAAQhAAAIQgEAxBL755htz9913m5kzZxZTDcdCAAINTmD11Vc3Z5xxhuslAk6DD3YZutevXz+jVzWMEGrVoM45IQABCEAAAhCAAAQgAAEIQAACEIAABIomMHr0aMSboilSAQQgAAEIZCPw9ttvZ9td1n0IOGXFS+UQgAAEIAABCEAAAhCAAAQgAAEIQAAC5SJA2LRykaVeCEAAAhDwBKr5vwYBx48C7xCAAAQgAAEIQAACEIAABCAAAQhAAAIQgAAEIAABCECgRgiQA6dGBoJmQAACEIAABCAAAQhAAAIQgAAEIAABCORHoKWlpdUBPXr0MF26dGm1nQ0QgAAEIACBXAiMGzcul2IVKYOAUxHMnAQCEIAABCAAAQhAAAIQgAAEIAABCECg1ARSqVSrKnv27GkWXnjhVtvZAAEIQAACEMiFQC0JOIRQy2XEKAMBCEAAAhCAAAQgAAEIQAACEIAABCAAAQhAAAIQgAAEKkgAAaeCsDkVBCAAAQhAAAIQgAAEIAABCEAAAhCAAAQgAAEIQAACEMiFAAJOLpQoAwEIQAACEIAABCAAAQhAAAIQgAAEIAABCEAAAhCAAAQqSAABp4KwORUEIAABCEAAAhCAAAQgAAEIQAACEIAABCAAAQhAAAIQyIUAAk4ulCgDAQhAAAIQgAAEIAABCEAAAhCAAAQgAAEIQAACEIAABCpIAAGngrA5FQQgAAEIQAACEIAABCAAAQhAAAIQgAAEIAABCEAAAhDIhQACTi6UKAMBCEAAAhCAAAQgAAEIQAACEIAABCAAAQhAAAIQgAAEKkgAAaeCsDkVBCAAAQhAAAIQgAAEIAABCEAAAhCAAAQgAAEIQAACEMiFAAJOLpQoAwEIQAACEIAABCAAAQhAAAIQgAAEIAABCEAAAhCAAAQqSAABp4KwORUEIAABCEAAAhCAAAQgAAEIQAACEIAABCAAAQhAAAIQyIUAAk4ulCgDAQhAAAIQgAAEIAABCEAAAhCAAAQgAAEIQAACEIAABCpIoEMFz8WpIAABCEAAAhCAAAQgAIE6JPDjyJfNj8+8YGbPmFGHrafJEIAABCCQiUC7Tp1M103WN103+nmmImyHAAQgAAEIQKCKBBBwqgifU0MAAhCAAAQgAAEIQKDWCYw/9Xzz5WkX1nozaR8EIAABCBRBoPcpfzaLnXxkETVwKAQgAAEIQAAC5SBACLVyUKVOCEAAAhCAAAQgAAEINAiBSZde1yA9oRsQgAAEIJCJwMRLr820i+0QgAAEIAABCFSRAAJOFeFzaghAAAIQgAAEIAABCNQ6gVlff1vrTaR9EIAABCBQJIFZX31TZA0cDgEIQAACEIBAOQg0bQi1KVOmmK+++iqNaUtLi+ncubNZYIEFTCcbBxaDAAQgAAEIQAACEIAABCAAAQhAAAIQgAAEIAABCEAAAtUg0LQCzogRI8yQIUMSmbdv394svfTSZpNNNjF77rmnWXjhhRPLsRECEIAABCAAAQhAAALNSCBlUs3YbfoMAQhAoGEItJiWhukLHYEABCAAAQg0MoGmFXCyDeqsWbPM2LFj3etf//qXueiii8zaa6+d7ZCG2XfhhReaRx991AlYV155ZcP0i45AAAIQgAAEIAABCJSOABN/pWNJTRCAAAQgAAEIQAACEIAABDIRIAfOXDKLLbaYWWqppUy3bt3SWP3www/OU2fatGlp2xtxZfr06ebee+81EyZMMJMmTWrELtInCEAAAhCAAAQgAAEIQAACEIAABCAAAQhAAAIQgEBdEMADZ+4wHX/88WbAgAFu7f333zcnn3yy+fDDD936l19+aV566SUXUi1pVL///nszevRoM3nyZCcArbTSSqZnz55JRV2ZqVOnun0KzaZwbbNnzzbvvvuumThxounatatZZZVVTPfu3dOO/+CDD8wXX3xhOnToYFT/IosskrY/aUU5ftQH5ftZaKGFzPLLL99KoAqPe+KJJ4wEK5m8kNRvb2pXXNzSvnz67uviHQIQgAAEIAABCEAAAhCAAAQgAAEIQAACEIAABCAAgewEEHAS+EggOfTQQ80RRxwR7f3444+jZb8ggUPh1SR8SPDw1tLSYjbeeGNz9NFHmyWXXNJvdu8XXHCBeeCBB9zy3/72N9OxY0dz+umnO3HGF5RIs9tuu7nzSxgaOnSo+eijj/xuo/q33nprc9JJJ5n5558/2u4X3nnnHXPxxRebUaNG+U3ufb755jNbbbWVqzcUmORddP3115sbbrghKv/ZZ5+Z7bbbLlo/6KCDjF7eCum7P5Z3CEAAAhCAAAQgAAEIQAACEIAABCAAAQhAAAIQgAAEshNAwMnAJy6MdOrUKa2kvGEOOOAA5zWTtsOupFIpM2LECPPmm2+a4cOHtxJxfHkJJiqj0GWhzZw509xyyy3m22+/NSNHjjTfffdduNvV/8gjjxgJMvIUCk3ljznmGDNjxoxws1vWeSQevfzyy+aqq66K2nXnnXeaa665plX5TBtK0fdMdbMdAhCAAAQgAAEIQAACEIAABCAAAQhAAAIQgAAEIAABY8iBk3AVKKTZHXfckbZntdVWS1s/7bTTIvGmc+fOZvDgwU4EOeGEE0yPHj1cWQkwZ599dtpx4corr7zixJt+/fqZvfbay6y++urhbvPQQw858Wa55ZZzHjnrr79+q/0Kj+ZNIdwk6ITijY7ZddddzRprrOGLudBo8uqR0CSTx5E8fpQHyJtCuGmbf4VtK0Xf/Xl4hwAEIAABCEAAAhCAAAQgAAEIQAACEIAABCAAAQhAoDUBPHDmMpFnyquvvmq++eYbI2Fl/PjxEa3+/fubNddcM1p/7733XBm/4ZBDDjF77rmnW1177bVdvhmFT5M9//zzTjAJxRG3Y+6f7bff3oVI06o8b/bYYw8zZsyYqMg666xjLr30Uudto41HHXWUeeaZZ9x+lf/f//4XiTP33XdfmreOyvp2SaxRqDaVkb322mvmjTfeMGrvL37xC/caO3ZslPemV69e5thjj3Vlwz+l7HtYL8sQgAAEIAABCEAAAhCAAAQgAAEIQAACEIAABCAAAQjMI4AHzlwWjz/+uLnxxhtdiLFQvJHnyVlnnTWPmF166aWX0tbl5SJPGP+SKKI8Nd7effddv9jqfffdd4+2KffNhhtuGK1rQfsVKs3bgAED/KJ7/+GHH6L1F154IVru1q2b2WWXXaJ1tWf//feP1rWg3D35Win7nu+5KQ8BCEAAAhCAAAQgAAEIQAACEIAABCAAAQhAAAIQaBYCeOBkGemddtrJnHjiiaZ9+/ZppT755JO0dYUZy2YKpZZkElWWX375tF09e/ZMW19hhRXS1uP7Fe7N22effeYXzVJLLWXieXu0TWKQz7nz+eefR+VzXShV33M9H+UgAAEIQAACEIAABCAAAQhAAAIQgAAEIAABCEAAAs1IAA+cuaP+29/+1hxzzDGmb9++0XWg8Gdhjhm/I2mb35f0PmvWrKTNTmCJiyyh544Omn/++dOOje8Pd06bNi1aVQ6bJAu3K2dOvlaqvud7XspDAAIQgAAEIAABCEAAAhCAAAQgAAEIQAACEIAABJqJAB44c0d74403NgpPphBmClsmL5UJEyaY888/P8pR4y+Mrl27+kUXKu3UU09t5aUTFbALCsOWZO3alVY/W3DBBc2kSZPcqTJ5/YSiTdiPpPYlbQuPkZhUaN+T6mYbBCAAAQhAAAIQgAAEIAABCEAAAhCAAAQgAAEIQAACcwgg4MSuhKWXXtrst99+5u9//7vb88ADD5gtt9zSSODxtuyyy/pFk0qlXBi0VVZZJdpWrQW164MPPnCnV6gz5cdRLhxvH374oZkxY4ZfbRW+LdqRZaFW+56lyeyCAAQgAAEIQAACEIAABCAAAQhAAAIQgAAEIAABCNQdgdK6gNRd95MbPGjQINOnT59o5xlnnGFCzxWJOWEos0suuSRNGPEHKqTZ22+/7VfL/r755ptH55AH0TXXXBOtz5w501x11VXRuhY22mijtHXlx/EmT56pU6f61ei9VvseNZAFCEAAAhCAAAQgAAEIQAACEIAABCAAAQhAAAIQgEADEMADJ2EQO3bsaE444QRz8MEHu70TJ040w4YNM6effrpbl7izzTbbmIcfftitv/jii2aPPfYwAwcOND169DAq/+mnn5pXX33Vee6ceeaZCWcp/SYJOCuvvLIZPXq0q/ymm24yI0eONMsss4yR983nn38enXSdddYx/fr1i9a1IO+aESNGuG0//vij2Weffcxqq61mvvzyS1fHkCFDnLBVi31P6wgrEIAABCAAAQhAAAIQgAAEIAABCEAAAhCAAAQgAIE6J4CAk2EAJW7ssMMO5v7773cl/v3vfxsJJJtttplbP/HEE824cePMG2+84dY//vhjM3z48Ay1VWZzhw4djLyFDj30UDN+/Hh30jFjxhi9QltqqaUiMSrc/qtf/crccsstZvbs2W7z2LFjjV6yRRdd1L3rTy32PWocCxCAAAQgAAEIQAACEIAABCAAAQhAAAIQgAAEIACBBiBACLUsgzh48GDnUeOLnHXWWeabb75xq126dDFXXnmlOfLII43y5sStffv2Zv311zfbb799fFdZ1+UdJM+b3XbbLS3/jU66wAILmN13391cf/31pnfv3q3aIe+dU045xfTs2TNt3/zzz5+WL6dW+57WaFYgAAEIQAACEIAABCAAAQhAAAIQgAAEIAABCEAAAnVMoCVlrVLtj+dg0XnjYbwq1ZZSn0c5Y/RSrhkJHEsssYTp3LlzqU+TV31qizxxvv32WyfeyPOmXbu2NbtZs2YZeRRNmTLFCVgSexRWLpPVYt9HjRrVqrkHHXRQq21sgAAEIAABCEAAAhDITuCN9ktlL8BeCEAAAhBoCAJ9Z31Wl/146qmnzPvvv5/WdoWIX3jhhdO2sQIBEfj666/NJ598EsFYaaWV3DyeNsyYMcO888470T7N7YURaaIdLECgBAS43koAsYxV1NLcMiHUSjTQ+mJQa18OFFJNoo1e+Zi8h5ZffvmcD6nFvufceApCAAIQgAAEIAABCEAAAhCAAAQgAIE6IaCHbr/44ouotd27d28VScXv1AO3U6dOdastLS15zw/5ehrpXbmiTz311KhLN9xwg8v/rA3ideCBB0b7FJlH+aGrbcqznY/p4e0ll1wyn0MoWwUCtXq9VQEFp2yDAAJOG4DYDQEIQAACEIAABCAAAQhAAAIQgAAEIACBWiCg0P6//vWvo6bsvffe5ogjjojWw4Vzzz3XPPHEE26TwuOPGDEi3M1yHRBQdJ1wvHNpco8ePczjjz+eS1HKQAACdUAAAacOBokmQgACEIAABCAAgXIRmDZtmgu5qvoVelXrCgPr8+XpvdphYcvVd+qFAAQgAAEIQAACEKg9AhdeeKF59NFHXc5p5Z/G6ofAAQccYMaNG2e23XZbc+ihh9ZPw2kpBGqYAAJODQ8OTYMABCAAAQhAAALlIDB27Fhz7733muuvv968/vrrbZ5i7bXXNvvuu6/ZaaedTJ8+fdosTwEIQAACEIAABCAAAQgUQmD69Onue+oPP/xg5DXU7KbQd/E8PHrgavLkyRGanj17mk6dOkXrCyywQLRcyYX//ve/5o033nCnDNtXyTZwLgg0IgEEnEYcVfoEAQhAAAIQgAAEEggoya9ifus9H5PIo9Aceg0cONCccsop7j2fOigLAQhAIF8CqVTKvGl+MhPMLLOoaW/WNB2NJrLiNjk124ww0+KbzSams+ne0q7VdjY0N4Ep9np5MuF62cDMZ3q1tK8onDGpn8w79hoPrZNpMVu1MGkdMmG5MgTkiT1mzBjnjb3ggguaVVZZJaMXtnJ3KBePci8vtNBCUQPfe+89l59n6aWXNiuuuGK0XQvK2/Pxxx+bKVOmOGFGZfSKm0K+SbyR6RxffvllVKRr166mW7du0bpf+Omnn4zO/dVXX5mOHTuaZZddtuz5fr7//nszevRoJ6SoTSuttFLGXEQSM3wuokUWWcQoR43ss88+Mx999JHj8Ytf/MJ3J+1deaofeuihtG1aP/nkk6NtZ5xxhunfv3+0nmmhEE4Siz744APHVvX26tXLrLDCCkZjEbf77rsv2qTjwrHTNSWRSSHhNE7eFO4t7u3/3XffuetQZdT/MOe46tV+WXisri29dE0qr7ePJuAK2j+6vsVa59d111bubwmJ6reudY2X+q2xC039Ub/ils+9FB6rtst0bb3zzjuOgVhnym0+ceJEM3v2bHeMxM64cKdrLhTSdK/6c+jeUt9k4bE697vvvuvuQXFfddVV3T3lCib80fn/97//uftbdUpMXGyxxdy4hcW1DSucAAJO4ew4EgIQgAAEIAABCNQFAXncSLiRx02xJvFHL3nkSMjBI6dYohwPAQgkEfjJijd/TE0yo8yMaHc/08lcaRY2HWIizjgz0wxJfROV8wt3tixquhsEHM+D9zkEJpnZidfLdS0Lm15WKKykPWemm2GpOROR/rw97TWLgONp8F4JAvKauOCCC8xbb72Vdrr55pvP5V5RGKz4BPt+++3nwmRp4vfJJ580n3zyiTnppJPM+++/7+rYbbfdzLHHHuuWX331VXP++ec7sSPtBHZFE8Rbb721Ofzww93Eur6r3nDDDVExCRzbbbddtH7QQQcZvbzNmDHDXH311eaf//ynE4b8dr1LQDrqqKPMz3/+83Bz0csSJS666CKXW0gT1t70gMHGG29sjj76aLPkkkv6ze5dfB944AG3fO211zrx4LTTTnPs9LCCJunVh3JZIZx0zCWXXGLuvvvuSEzx7ZOoss4665g//OEPpl+/fmbChAnGh73zZSQyhcKTQuGprESUvfbayxdzvyd22GGHaF0LEqR87iaJDo888ki0X6H19LtGNmjQIPPb3/7WrY8aNSoqo4UNN9zQbRffv/71r+aZZ55J27/aaqu57csss0zadgk8auvtt99ufvzxx7R98ZU11lgj7fdVIfdSWGeXLl3c9XzdddcZ8fc2YMAAx0niSGi77rprJHZuv/32ZujQoeFuI0Ft2LBh0bY777wz+u2m63jHHXd0+9SPq666yl3X//rXv9y96A+ScHXMMceYrbbaym+K3jW+l19+eRSOO9qRsDBy5EijzxSsMAIIOIVx4ygIQAACEIAABCBQFwQktijx6bffflvS9uoH9j333ON+1MkrB4NAKQho0v6o1NelqMrVsXdLV9O/pXPJ6qOiyhF43npIhOKNzqz15+2E9wDrWYPlR+Ci2d8Z+9xx4kErmA7miHY9Evdl2nj27G/N59YzKsnWaOloDm6pTviepPawDQIQyEzg2WefdZOz8syImzwQbrvtNucJoAltebbETU/4P/300+bMM8+MvCJUxk80f/jhh+ZPf/qTSapf5eQBoElveQXoXNdcc40252SaaD/ssMNMfOLeHyzvCYlP55xzTsk8x+VFpBwv8nyIm4SCESNGmDfffNMMHz68lYjjy7/88svm4osvjkKNabvn5cuU8r1QThKYHn744cSmSLh65ZVXzO9//3u3/6yzznJ9Tyxcxo2PP/64e7BMnjdxe+6555yYpv6//fbb8d3uuj7yyCOdcOa9UlRIYo8X27QuzxGJKd98k/6giESsUPwp9l7SuSSWxYVUbdd19ec//9mJO957S9tLZfL2kUgjkSVuX3/9tRNnxWGttdaKdt9///2RkKaN3bt3dy/dI3GTx5N4YYUTQMApnB1HQgACEIAABCAAgZomoB+HCntWLpMotNlmm7mntQYPHlyu01BvExFQEIikUFiFItiKif5C0VX9uG+tl0SSZdqeVJZt8wi8bsUvvZLsBbvxD6nupmuO4eYmpGaZf5ofTSqpMm3TjtaR7jKVZjsEIFAkAXm9ZPLe+PzzzzPWrtBK8qb24sriiy/uxBZN1GryW54wmqiXwHLzzTebfa33dZINGTIk7Yl9lVFoK5lyLvr6NYF7yCGHuElvCTfPP/+8O4+8CGQKQSbPHQlCPvSWJoV/9atfuf36s/rqq0fL8lIIxZtddtnFeQkovJa8CSQeqf2nn366UXgyeTcUaxI1vHgjr6SDDz7YrLnmms6rRJ4IOre+H5999tnOeyXpfPIYkqgQmucVbivVciGc1I///Oc/URP69u1rfve737l1hY2TF4yEhA022MBtk+eRrp877rjDSMiSyatIHjfe4uHH/PZi3uWhJZOQojZIPNDDa958Ph6FOdtkk00cd4lS3nNKwo8ENd8PhRAMxZv/+7//c4KdwoRp7P0+eaXIU8WH8yvVvSTxRh5H8rjRfSOBSiHjZOqL2r7tttv67pXsXf3zHjLiKM84rXu+4nXTTTeZc889151TY3zZZZdF599oo43Meeed50Re3fO657zJ4ywUfvx23vMjgICTHy9KQwACEIAABCAAgbogIOFGAk4lTOfSU2lxt/1KnJtzQKDRCFyVmmweSk2NunVPu9xjhn9rJ9b3t2HHvPSxu/VA2r2lda6AqPIaXljDhkvTs5qhj4d+vK5lt2OlJaDn7kdaz6atTW55Vx4zUzOLN6VtGrVBAAI5EHjppZeMXvmanqD3uUR0rCZgV155ZVeNwmNp4vjWW2916/K6ziTgSIzQBLk8bRS2SpPbfoJcT+97U76QnXbaKfI2kXCj749+Elwii14K/esFHNXlQ7H5evSuc8pjx9umm25qjj/+eL/qRBV5oPt8KZrUL3biWzl25HXiTWLUnnvu6VbXXnttN/Gu8GkyiVPqQ1LeD7VdHh9777234yHhw4tc7uAS/imUk0Qon1tFzVH/FOpOpnd5NkmE83npFMZMdtddd0VjL9EnaexcwRL+WW655cyNN94YhfmTB42uV28Sx7Tf58RRaD2FwPMmAdQLOPKeCm333Xd3qxKrdL16AUfXtcQN5YmSlepeUlsllvqcPwqLJhHJ24MPPlj0dezrir9LYL3iiisisUXipELb+TByoWeQhDKfP0f1aPy9h57CsumzxOd8ElMEnDjt/NcJCJw/M46AAAQgAAEIQAACNU1A4c0qJd54EKXKsePr4x0CzUhgpn2i8Z+pH81YG+rKv/Lh8LCdWP9fcGw9e6ssb8NwndvSy6xtBZslrJSzjn0/364v28IziPlcE7mWfTIQDds65rE8yrZVF/shAIHqEQhFH01uK8zRlClTotd6660XNU6T1WEy9GiHXdAkvp7M33nnnc2iiy7qxAmf6yJMvq4JXQket9xyS5S3Q8KPn/gN62xrWV4gofgk4Shse9euXZ0HiK9HSdmLtZCX6lp//fXTzimRwwsa2p/tnModIxFEzCXmKJdQOaxQThKeJLh5U0g4iTHyxpKpn+XwqPHny+dd112Yo0meNqFts802kXij7fH9P/zwQ1Q8FK0k2vjrWAXCc2g9vB/Ca6OYe0lCpBdvdA7lbwq9zkIRRftLaf37908TWhZYYIE0D6rwfgs5qQ0hG10bIbeQUynb22x18e232Uac/kIAAhCAAAQg0NAEXn/9daN4ztUwnVc/XvXCIFAIAT1dpnwcSaaAHBIn4raITfi9QIZE9fWWwF75Xb6K/GfiPW17/f7UlLYL1VGJLVrmN3ph5SfwrM05JAGxg514yWaTrJdXplBs2Y5jHwQgUD4CP/vZz9ImecMzKTxUUk4Klfnkk0+iouPHj281sR3tnLugCVxN6sZt2WWXdQnt49u1/pvf/MYocbqf/FWy+wsuuMA96S9vnP322895riQdm21b2HaVUw4WvTJZKXJBxs+pcG/ZLNs5JTpUwuJtzpWTJuTlfaIwet6eeOIJo9dqq61m9t9/fzNw4EC/q6rvCtUWWjyfUFv7QzEiLKvt8riSUCcLva+03qdPH705CzkXcy+FgqevW23yOXzkDSPByXut+TKleFcIw7iFLH1oPJWRSCWR1Hvn6HNG3nMyhS4Mr315SGHFE0j+dVR8vdRQJwR0A3700UdOWQ+Tb6n5+gDy7q5SnnF5q5NBpZkQgAAEINDUBBQuIvzSXEkYOq/Or/jRGAQKIdDRTh7f1ZIcMmxKarbZMDWuVbUH2WTpu9pQYbVm+p4dPombS/vus943hdpHqZ/M26Z1EupC68t0XCH9ylRXubdLEMSSCei56jAjzvc2KNooKyD2byNv1OPWy8uH6FPNmlBoLatqT+3afCToqd3BoWUFEdAEc6ach/KayCTgyGMlH/Nh0eLHLLHEEvFN0bo8Of7xj3+YM844w7z22mvRdnnjKATaQw89ZM4///yMAlB0QGyhVG2PVZt1tVTnlHeC8pxUwopp82GHHeZyGSmHiZ+oV5uV8F6h4hRKTblOypGcPtO1lsQsLmbEv3vFvZvi+8M6lc9I4QP9tXrccceZ7bbbzkyfPt1dq77slltu6bzN/HoxnH0depc3Vtzi/VNYwPi2+DF+PR+OyjcVt0ys5DUngU/3tkzRH/Q5o+v6kUceiapReMBaEfqiRtXpQusro8Y6ogvTJwjLtWm6OUOXs1yPa8ZyRx11lBkxYoTr+qBBg4w+oL3pQ9rHdxRTX87v5x0CEIAABCAAgdoioHjOihteTdP51Y5MEwnVbBvnhkBIQJ4E95sp5vnUdDPGCh/f2GlpTfj3sH9XNh3Nhi2dzU6mS06J3adZseZRO7H9tA0t9b6ta6KtS1lC5rNuQ6pvOVvf6nPrXNeGAmtnhaq4PWC9Z562XhBxO272vPwBft+W1itlq8AzRUnlh6W+87uj90dte8akWk+vn9OuV1RGCzekvjdvWwHI23a27k2C+lXPXVZcetNO+St1ffdUi3m4xT59mSHp/ejUDPNve8xLVhAYZ7PYfGd5dLaT5r0sC+WwGWjZbmnzrSRx8G34wrb7YpsPKG5HtfQwi7UoO07bpnPKRtkxvtO2X54jE2175rfbl7XSgxjuZrqa+TP0I+kMpbpuhs7+xl0j/hyHWSFyqbnh4abb6+l284PLhfShvZ40gv0st2vaLeKLF/3+M3s9KsTeF0GWoadS00x/OzbZLB4+bTNLU9d+IfadFWUfsPfgi3Z8Pph7D86w11c3Oz66ZzZomc/saO/BJfIIm/eTZXevrfNhez99ZMlNtn1ccO49vX1LF/NL217Vn6u9Z6/l61Lzwuv444a29Mx43fzHnvtxyzK0RW0YwD+3m5PUPdzOMgSqSUBP0H/11VeuCfKiOeigg7I2J1PILD3wm8369Oljrr76ajNq1CiXCP3ZZ5+NEt0rvNKQIUPMfffdlzh5naletT00eYSE3hPhPi1rIrlYC8+piW2FD84mXoShr8Jzt8UrLFvscthm1ZUPJ/VR84R6OEteVLfffnta3pP//Oc/Zt111zW77LJLUc0MPWB8Rfk8jFZqngoHePLJJ7s8RhKu1O/QFIJN+0Mr1b0UCmW+fuWJCq1Lly7harRcaY7KkTNjxgyXX0gP94TCjRq1/PLLu9CKYXi1qLEs5E2g5gWcN954wyVCy6dnm2++ubtI8jmmGcvqBnvuueeirms5FHCiHSxAAAIQgAAEIFDzBPRDRz8ka8HUDiW6Dd3ua6FdtAECIqDvwNeY780/7KTsNDtZHDeJLxOt8PCsnVS+0pY7xkowmvjNZK/YcielvjHjg4lwX3a6XZhg65tg63vRvq6151zcTuT+xfR0ApHKyXPmrNS35pU0fwhfgzGPJEyOLyfxwU5EK+SVzSRg/m4FmCkJfdEEtl5xOye24TU7Sf1kIB61s1gk4EiY+kvqaztBnz4ZLXEqSbz53k7In2n7olw8cbJq3xTL6DO77yEr7vSxbM+0U+urtcgXpLV9b7kl9f0PprtZzDLMxbrZifths781N1vZKTR5m7xlBYO3LPu77L4LzUJmBZtzJ5uV+rqRJ4va4e0XZj6zlB1XCVeHpb5qNW4d8hAdfJ3Z3n+w597Uymq3BmyesuN8XJaDvrZC4aux63RjK7JI4MvHxHK4vW6vsdet2hG3yXbbG/Y8b9jrUvfqbqmuRgJXW0Kb2B1pr9fRdmxDm2SvpUn2/htp79V77FU4zOZS6m55hvzD8uHyBHvNJl2HJ9l7OJO9b9sRP6aPHds/288SDAK1RECijQ/9pO+RW2yxRV4iSr596devn8up8d5775nTTjvNKHm8TGHVPvjgA7PqqqvmXKXaHpqSvyvXSTktPKc+xzRB7ZPYl/O8xdQdtln1FMJJYfMk/Oy1117m5ptvduHv1H/ZyJEj8xZw4qKXj/zjKrR/fvrpJxeGy69X+l2Cib8vlAeqV69eLk/TkksuaTbaaKPEcIWlupd0H4QmzmHeG/22CgWckGWco+rJlocpPE8hy/Ki8+2VSKv7V+1VHix5MW2wwQZl/TwppM31fEx2mbyee1aFtj/++ONm2223da+4QhpvzgEHHODKXXrppfFdFVuXmq6EWN50c2EQgAAEIAABCNQnAXm95PO0WtjLJ5980tx9993uR124vdBltUOu9BgEao3ALPvD8ngrtlxmJ46TxJt4e+U5InHmWls+yd62E8z/l5qUKN4kldc2eaT0DgSIP9jjM4k3merw2/9lJ98vsF4qSeKNL1PIu0Jp6Uf4EVZIiIs3qk8eDXGTZ8p+qYnm3wniTbys1sdaYWl/2/eX7KR6OazFVjrcjltcvImf6xM7HhpDeTFlslJfN0nnkZeQBJJBlmGS6JbEPKmeXLdNsde2PKFC07Up76lMJpEvpLSkvY4lTORjs+11dYK9py6y122SeBOvS/LjLfY6130y2QqEmexby+6PtkxcvImXl5B6pL2uFwnuwXgZ1iHQLAQGDBgQdVU5anw4pGjj3IVJkyaZjz/+OL45p3UlvQ+TxOsgiR4HHnhg2vF6kt9bmABd59ZEcdxWXnllo/Bs3pSrJSl6j/6X+XBYvmyh7xtvvHFaaNRLLrnEeSDE61MkIZ+zJL6v0uuFcvr+++/Nm2++mdZcjUvcgyccNxUOx+7TTz9NO96vSEQK7bHHHkvjKG+tJE+U8JhyLitP0Oeff+5OIaHxzDPPdA/JyUMtk1dVqe4lPVivfKbeHn74YRNy7Nu3r9/l3kOWus6Vf8eb6nrxxRf9asnfb7zxRvPCCy+4ejXHrXB6f/3rX83hhx9uxCMpHFzJG9FEFeb3basKYHTzS70LTS6W+kD0Ft9frac9NfGhJwdk2eIM6h+YPItk6ks17eKLLzZ6+kGclfgOgwAEIAABCECgPgnce++9BTV87bXXjmITP/XUU85zxn9PKajCuQcNHz6cMGrFAOTYshC42j5zH38yXieSP4dCammy+FP7N+4TcImdbF7VhXRKn/C+yIYtS3/WX7XNMflzJO2Tp8XygbdH5ilpX1Pm92KOzVzrHK+hU6wnzQt2sjvJ4mKCJuVPtJPyHyZ4+yhc2VKWsLwqvkyb/jdORDvOekzcYRY1C+cYFi2pPUnbNIb/sBJBLiYvKYWgk2dGkpX6ukk6x8uWtRjKAyzJ4syTyuSzTaHw1rXXYtwTRSLNyibZKyruaaMweMlXSOaWXGlFNXlo5WvymDreXiuXWW8pPYgYt7/Ze1RiXC42KuZFlMsxlIFAIxJQbg99X/OT1Zo4f/XVV428DvRk/5dffulyJmsiX7l04t4cuTC54447jB52VqitNdZYw83vSZDR/Jk35dMIw5/pPD6Evyby99lnH7Paaqu59ih3s0KuKWyWRCDl1pEpFNxuu+1mfvWrX7lwaXqoWpPZ6o9EnHh4J3/ufN7lZSAvH02qyzQ5vscee7jv0ZpIl4CkyXadU2KPJv6rbYVy0sNY++23n5HXiR78lreRUito/lB5tL3FPZA0dt7rQ4ntFWZLoffG2hDLGp8dd9zRratef92NHj3acZTYpDya3qvDn6PS76FguPfee7u50k6d5vxflCihlB3KO7XppptG/49KdS/NnDnT/PGPf3T3is75yiuvpHV/5513TlvX7zjvLaQ8PWqv7l954+j3XFJYtbQKilgJOek+1D3tvYN03eme0D2ve9JvL+J0TX9ozQs4uhiV1Cw0qXrhJEWusTKlIOuDQaKJEj6ttNJKbYb2UBImPWmghFT6sFp66aXdK2yPlvWP4aWXXoo26ykBL+LopltwwQWjfWqvNwlR+qfoTeVUXseqDpkudJ9MSuq23Of0z2ittdZyH3z+WP+utuhDT3WrPn2gZoo5qHp8viB9QGcSv0LlVG6u4qI2KcGX/yDz54+/65+lPuDHjRvnPjx69+5tVlxxRfcPN15WbdaTHzLd7L7dapv+CegDSZ5Coaofr4N1CEAAAhCAQKMQ0BNY+vGk70MXXnhhxv/T+lEUPq2VT/91nLxlFPJM53nKijj6cfD000/nU02rsqpX7dKPXQwCtUDgExvW6OoET5rNbRipk2w+i15zBYTxttzQmHghMUD5WDYIPBZm2O+4SRPByqnyJxvuqYfNq6J8HMrt8Zyd5r7f5sX42Aocv2tJj9t/vM3porwfChd1l/Wlidtptm1xU44eWX87Ae/3y6Ph69jk/2a2b5sFbY7Xk239voS2+PI9neTl14zLY6J8N3H7v5buZj8rEXSaO+H+X9tHTcKHeVeUe+g6Oy7HJPQzXl8h68p3ojFZ04ZqkzSiHC7yEoqb8rh8aEOq/SwQ11Sm1NdN/Lx+3Yfu8+vx95555OmJH5u0Lg80TQZsbK+RkMeTNnfLH+31Gzflq3klNsbKIfRVjqKJ6vtY96AVUeOmdijXzXo2HJtCxWkc7rBeN7o2QtN99JAdp+1s2dAUOk2h0ZJsPStGqZ3Kh/SRLaf8OPKswyAAgTneEhdccIE59NBDI+8V5anRq5SmeSw9qe+f1o/Xre+6YVJ2Tfjecsst0eSzvk/qJQsf4FZuFs013XbbbW6f5vzi+Uq0Q4nVS2Unnniim9vyDztpvlAiWC1bMZwksnihJd5HcZWAFdr2228fCTjaHl5LoZgg8S0M/SyO3stLIr3quf/++8OqK7Y8ePBgc8wxxzjPMQkh4Vyvb4RyAm244Ybu95nETs1RluJektApATDpd51CHIaePmqLxE2Jk5orlWnuVB5N3hQlSrmKJAyV2iQWKYSe7k3N5ardcdMYyjtO4nB478bLsd42gZoXcNruQtslJJAorMgTTzwRiSo6Sh8KUsWPPvpopyqHNenCO//8853gE27XsgSPrbfe2rmFSdiQwCRPlvDDSBeyN8X5vPLKK513jiZfHn30Ub/LHRsKVCqn8mqzlGmZlF2FWlP7zznnnCjJnJZ1A3uTZ48+MML4iNqnDxJ9YOufshdE/DH6RylhRSYW4pRkEpF0U+pJB4lg3hQL87jjjssYa/SBBx4wf//739Pc+HSsPujlYicFPjSx8R/if/rTn9xk0lVXXeVueP+BpA8jBJyQGssQgAAEINCoBI444gj3BV5f4u+55x7n0aIfFfEHLrSvGNP3AQk21113natbIo4EnWJ/kPp6imkbx0KgVARus/ln4s/nL2GFiDOt10XnuQKDztXbJkwfZnqZHVNfpk0gv2eFmLesALHG3JwtSgCfNA2ssFQSb2Qdbb2r2QlkvQ60YoYEjNXmii+ugP3zy7n5ddrbCea7rMgTtx1jgk+4fzkrNijZu0zi1NfhTru8st2f7fhY8cTVnjZc2qCWbi5finK06AdkPPTVzan0HDOqSDl6Do4JAWtZdsp7s68NdRWaJt+PTPUwHYJxCPcXuqznZa9tWcSsFIgyW9jJ/BUsq0ut4BW3hyz/w62gFlqpr5uw7kzLK1jKYi5vLYX60nUmka+Uptok4mxqr9d/BzlsFIJMgsgS9j4I7UkrnITTP7p3dC/8Jzg2LJ+0fLO9B+P3jO6US1oWShNHt7ZjtIvNe7NXakIrjySJfdvNvWf8OSTqxOvVPgl3J7YLBNAWO9mV6ubC1IUioq+Hdwg0IwF5viivib4D/vvf/24VjlfJ2eVpoHmqQkzzWfKo+PDDD1sd3sc+5KO5s7hXgTwxTjnlFDc5rglpb3qoWp4goWk+Tx4i+s6qubBwXk7lVJefWwuPK3RZc2Oat/vnP/9pNIkfhrdSnZrMV3skQNSS5ctJD1RrvlGiWzycmebjBg4c6OYY/QPhvq+77rqre+BbQppy2XjTHKAe5va2ww47uLBpYhnmbpEHj+YuJY5oflDCQCVNbdF9EL+OktqgEGUSTySSyIq9l+RkoPlThTK86aabIu7i/Zvf/CYxZ/lyyy3n5ovPPvvsNM8o/VaUuKbfc/IMkzdUKU2CkH5/hl44meqXAKhx/stf/pKpCNtzINBivSNK+00wy0k1ER+3Qv4JxD1w9IESeoiE55CniISCpFiYvpwubH3Yy4VPpn8sUjHDDxtf1r/LDUxPq8orRGWzmRdwjjzyyMgNNFN5L+Co3f6fjP5BqM/6wA2Hy5dVXc8++6xTiLO1WR47Okbuqd70oZlJwBk6dKiRACPTh7IYh/EUfR1yjZMwpWReoV1++eXm2muvDTe1WlYSNHHxJnXWCzj6wFZYN6m13nQujbfes1mo8vtyileJQQACEIAABOqJgH4cxT1h9L1FD1wMGjQo6op++IbeydGOPBd0Prm/e4FI5wn/T+dZndlpp53cl/t8j6N8bRF4o/1SNdGgKdYDYMPUnAePwgYNsZ4bu2YROXzZbWaPbxXC6wgrMOxrhZUku2j2d+b6WAiusPxU254NEtqzjJ3YPsuKQqvbye187EErHgyxIbTi9nq7Ob9R4tvj6zvY/n0ak6j+aPuW5E0RP/bI2V8Zhc6K29K2L/+wAsiic72T4vu1/qmd7N/Bil2ivxqnAABAAElEQVRxu8ke58Wu+L69Z08wCokVWry8crH8zuaDidudLYu28pLJVHYn66lxart5kRB8XTPtT2AJdPFJ/DWsGHZTu0V9Mfde6uvGVz5g9hfWF6X1T3F5TZ1jrx/vteTLF/u+7+yJ5vVY6LCnWpSNqcVsZq/jUJw5zopYe1gBKbRDZ08yzwYeOPuYbubP7XoYiV4K/RbaANuHS9q1fuJ9q9njWgkyW9mywxLKqr7breBzpg1tF7f4NXCwbZty24SmkHMPtSxm5k/wXEpqs469rmVhs471AgrtGStQHW69xuI2omVx0z2hbpW7dPZkc03M00i5gu5pNy9fh69PopbC94Um0fSpdouHmyq23HfWZxU7VylPpAdGFCkkNE0ExyeXw/0styag+SbNRUk00bK+D2rSPdN8W+saMm9RnXpQWQ/mKoqL8teEkWqSjlRkGh8RR4KC2hLOZ8WPUa4dzVkpgo4eXtY5dFw5TZFz9NKEtubullhiiVYPTpfz/IXUnQ8n9Utzhj5SjjylllrKPs5h5wezmSb2NXa6jjTOGouk8JcSShQCTG3q1auX45et3nLu07W5++67R6Lcb3/7Wxf+y3uHSUySx9dll10WiU4SrPRQe9yKvZfktaaH6MVHYQN1bbVluvZ1LeY6Rm3Vl23/ySefHEXLUsi23//+95GHja4ZtUWisM8FJeE1yTsu2zlqYV8tzS1nv+NqgVaRbVDCKS/e6ANc8RcV9ks3nQQGfQjpH4nUSiUgk2kCxAshUs8POeQQd8PoRnj++eeNVFbdpDJ9EMmL5J133knzfJH44r1dFHZNJg+XxRdf3CgGqG5mmRTaUMRSbMi46Z+PPhD8MX6//0ekkHB6OsG3WeeQ94o+INVWCSD6xycPHT1ZIQU2X1PfZb/4xS/cEw9KjuU9cfSBct555zmF3H8g6yIPxRv1UTe0PuTvuusu502k+tQeqfoSl+KmeKLiHZrCtrUl3oTlWYYABCAAAQg0GgF9b9H/8qH2QQs9QCHxRttKYZoA2WyzzZyIo6ci5QGkd53P/3DL5zylalc+56QsBJIIfGkTnMfzr6ic8t58nyEx+hISLWLz6woBZee7nWlieKVUB/N+2tS3DbllRZS9rPCwUWo+s6edBN/QelH478hzjqyfv6e1LJhVvFFP/hsTBbTNkjOL27+Z2C5tuccFHIWXW8N6KpXS+scm433d8vTZNNXZ3GrDdIWmHD7K59PO7peV47oJzxdf7mEn7sW81OJN/Dx+XRKaQrOtZ6/VMN/RUzaMWijgaBzjAsmWc0Pztc4Y5WtPf//c3jtJ+X02t942mWwL68V1pg14FrdRVqz5mRXbvL0fEwO1fVMrDCWJN9o30O7T44BJXjvaj0GgWQnof5UebPYPN5eSg8Qg/4BQrvVqPi7ucZPtWE1cVzq3s0TCehMK8+GkObxMqSSyjYW8peL5cZLKa36vj/2tUQum+UfvUdW3b19zwgkntGqWHuZXHiDN68oyCYrF3ksSOeWRk49J4Ay9nPI5Np+yClXoI0np+tDvUY13aBp7CTnHH3+825yJU3gMy9kJNLSAo5sqTPgkIWbPPfd0RBTjXS588mqR6UbV0wASPUL3Pd00enrU/6ORcKO8MV6B1c2hZG5ycQtDl+lc8Q9xqbcyCRg+P44+FHR8W6YLX3ljDjvssCiZlb8B5LUSTqpITJGbqGydddZxLoe33nqrW5eLmyZhCjGFV5EwJFN71BbvhqcPOQlE6o9Mwow3iVIKMecFLbmTSszR+MgkmCUJOJ6RJpLkRaUPdb/N153Pe1s/nH37VC6Xl86dSzl/3lzKlqPOTOfXP8pwnz8373PGFQ5waMT7w38OZbq+S9nnWqur1trjxyBTu/z/JJXLZHoqSyFS5TWTKTZ1pmOzbVe4Nn1/ePLJJ11OHAlEEnZ0nvD7RrY6/L58y/vjeIdAqQlIHEiyIxOerE8q57cpbFpog6yHS5LXjMqMtJPMI1PTjbxY9rDeCr+x4ZzCUG1hPbW4vJRtd9wbIamdTtSK7VCoui1S42Nbs6/G2WYvndtehfnKZC7XTUygU0gx5UdZcO5x5bpuMrVJ3jeZvDr8MfIeucqGEWvL7rKeSu3t75ps5ruvsH8v2GvVmwQSiTa+LU9Z76zQX2oxy2etPMW2zzLcg6EQ48/v3xeyIuqCqXZpoQy1LxRSp1nBLZ4rR2VWDcLmaT20Lla06p1q38oDKyzTrMv/7foz09LRZiLq1NG+66XlTnPete62x7ZlKhOVn3tch7n1RdttPdFy/Fyxc6S1R2XnlW/Xte0n05t1POk3BCCQOwE9HO9NjgDyCvJzv3675jGV3sKb5pabzUJOmhuWB5Wfg/YsvvrqKxdm0K83Iyff91K9N7SAE080pdib8mbxpgtIEyfes0Xh0CTgyB3Qm9z+JPooLqe8anTztuXm6Y8t5bvEpiuuuCISksK6w35KUJI6HvZT7mxewPnss8+MbjblrsnXvACl46SyiokXcLRNApYEHHnkhG5mOr+2xdvkBRxxz2T9+/c3w4YNy7S7pNsrHVuzpI2nMghAAAIQaFoCEldKbfKckYgj13c9+KHvTBKMJOL4pK25nDMpAWcux1EGAqUmMDkmvBRa//SYS45ycYyxngXxcElh/Qprdq4NkXS9Dal0gulpNsvicRAeV+1lhXzKxcrFNpdzt1Wmq/OzSC4lb5ck+9GOsQ+6Vum+9YnlnUlqn9o0NoMYEpb34ky4Lb7sy8hb5ezA00Vy5wgr2mxrQ9DJHovludnSlvcPILgCOfz5Lnbv+EMyjUO4Py7QSGTz9mOw7LfpvVcW8U77FaYsHkJP20thqQx9LUXd5ahD8yF+PFM2RJB1wKo76zlfJ7P49gPNuC3Xr7u202AIQKA2CChykOY6JUoolKAelNOcpCIBaR5V6TYUzcmb5jr126jZTGECFdZNwo1s//33d5w0n655X7HTA/7+AXzNZ8shACuOQG7fyos7R9WO9heTb4BCnWUzH+ZDyaGUjMw/NTphwgRzwQUXOAFF3ji68HQBVtL0oeC9gOLnDfupOIObbLJJvEjauvqVr4CjD7G4K57Cv4UmDyaZwq2FSc6UAEyvTOa5J+0XbwwCEIAABCAAgeoQkDjkPXf1PUSiTj4CTlKrU1Pt5JB9sMM+3eFeblmziHbdb5/zbjcG2+YsZ942r6ydOovXPzv9uNzrT64rr/oVnsu1Z15d846fty2/9s/pz7xjdI55daXVbxPIpvVXYXzn8kmJy9z16Bi77rZ7hlq3L+ufHE1Jaske6UzbZdrin/V3pf2K2xv+0ZEZd4YFS7pc6gTwYeMObbeA6ZvqZC6wIs2YLBPrE+xE81HW4+d408P8LpZfJKyvVpbtFH1OTSkn25wakKWQ/VTJuDdZvjFWbpt3TKX7livzjJ0qcMfiVjhaOdXRjA78bJ60s/jbWoHyR/sZ9nwsP9KWBYiQmUKtZfaRmtOZpP3zRkjjlWxtTXRYn5LkA0uwdUYJ6qhkFW04alWyKQWfq2X6DNP7secRcAomyIEQgIBCB/7lL38xZ555psvVpOhLDz/8cCswCu2nucqjjjqqKVM8SPA/66yzXP99XqtnnnmmFSdtUBqOIUOGtIpQlViYjVkJtPW9JuvBtb4z9PjIpa1eHZRqqJBoZ5xxhlGuF2/yxrnttttcrL/zzz/fTWL4feV+l8KZyQrtZ6b6krZLwIlb3JXQe7CUsj3Z+h1vT1vr3tMqXk7t1j7/0n6/3NZ7OcqWo071I16vvKLC7X4/73PGHw5waMT7Q/d9W9d2Kftda3XVWnv8WPj/n25wauiP975Rk/SwhUKa5utRc9wSK5k3u69oZk+ZWkM9oyn5EvBPZs+b7vSyzbyawi3zys3bHy3pK0nWAlHJki7YLIqJ9f3ehjbLZyJ32QweEgNsCKqNbK6bx+xEt5KSv5GQF0YNUPeVsHw9W3aFLCGeEhtboxuT2PayvBUyLh9bO8+QXLnUPSUQY+Llv8/guRF67ST1TfWU6rqJt6ma65vZa3h0al6gtOcUNs3+hnjavoeCxCJ2bPsWMFZdMtz4P9gxyvZopDyi4rZAcD/Pn6HeqQnHhfVMyTD+YZlCl0vluVXo+fM/bt6H8pqT3zcpmzw79ZOV3PQAwAz7Slueux6VseWiZV/el9H73OWZwT5XZ0KZsB6d06+nlU9om37PWw+c8VtvmH/XOQICEIBAQGC77bZz3iSPPvqoy3WuUGCaK1aOF80VK1TYgAEDTFL+8qCahl8UB5/fXPPmciaYPn26mW+++UyvXr1cvvcNN9yw4jmpGhl861n5Bupt167zfjToh+epp55qpJRmstVXXz3a1adPH3P11Ve7UGA33XSTefbZZ6PJbrnOSUG87777nHtddFAZF5SvJJOpn/pQkS277LLmoIMOylTUbS/kg0Y3otwIQyFHanRoXbrMcbEPuWu/Jny23HLLsGjacrY4/9n6nVZJESvZzl9EtRwKAQhAAAIQKJqAPHCffvrprPVsuummTmAp1jPGn6RHjx5GOfN0bplEG3kf5yve6NgdJ001s2fOEQ61jjU5AfdAybyJwkrSWCiY8A3Pu5P1MCiVkKLE91vbpOtbW++Et1IzzDU2T4lyh8RN4anus3lMjmzpEd9Vl+sL2Xwi8blyTbnLM6naphBZ62RoxFgb+i5u+sUVigOVuG7ibWhrfRXT0QlIbZVTX/IxhVH7uw3z503CyUs2F048fNoW9hrXtZ6vLZUhJN8n1mtt2Qz7ptvPjAkJPjaL2Nw43rpaAaejXZknPc3Zo3qz2fiEerOVj+9TOMXu8Y1z1zPlTspQvKY2u3wydZhTRh7D495/v6ZY0hgIQKA+CSif+R577FGfja9gqzWXuu2227pXBU/btKdqaAFHYoY3PXW7/PLLm1VWWcVvyuldMRD1Ur6W0047zbw/90uBwqp98MEHZtVVV82pnnIWUj99GDU9IbvFFlukCS2lOLf4Kd5jyO/NN99Mq9p7yyi8nLxzlPBLJrV6m222SSvLCgQgAAEIQAACxRHQ///rr7/eCS0777xz0aHN1BrVKfHGJ5rUhIjiP2cLd5qtF8+utKT51dhJrTxwWuzTWXYG0LS0s1OM9uXfw23zts8rN2ebnTiMHddi64pvi+qyD+84DxJ3THJd886vtrSuK2lbVH/U/jnHtarLn1+T3K5sLvWn1zWnzvRtYV2tzqnJ1bntUsLpiI3bPm+fBZPeJrueVpfdrWPfXXEj94z7nOfg54RK8wHTVCTTdu3x5dx1ovNVyVa0U7x6Uj/+VP4LdoJ6BTf9W9qGrdHSyVzUspB53oahOsaGTZOXQWgftppuLt4xqVp0k5LZK2fJaCtirWw5VNNGpaYb5SlKspEJ4pqEhE7BdVrp6yapnfFta7fMZ/Qqta1qx6p3qr0JhY0HrdD4nL1HQiskfJqOV06lbvYejN8LL9kxkgdbkr1iz530CEB4zUlMWj4W/k11vWDr/WOGm+Ij62k0OXZPJp1f2zq6T7/Wez+3AtHCCXl2frAh595O81lqfSxbIAABCEAAAhCAQD4EGlrA2Xjjjc3FF18cec5ccskl5sILLzSdOqX/kFDoEiWi8h44SrYksScMESbh4sADDzTHHntsxHeGden1Jjex0D799NOMMf5U1ocZU7liTe57I0aMcNUov43Cvx188MGtqvW5aUJhq1WhLBvkkXT22Webjh07GjGTZ1Joffv2davymtloo43MI4884tbVtpdeesnFPgzLa1kimHLrKCkYBgEIQAACEIBA2wT0f3zo0KFm3333jQoPHDjQ3HvvvdF6IQv6Py7BxufckzhUbMLJRf98sFkzaGch7eKY2iAwT36YlwtHLcu+PcPsaRW61NFO8v48NZ95JjZpP9x6yWxvE7X3kMDWhk21E7PzB+Vm2gecbBCgtG3xKjawE9PbpbqYf5of03Yl5VaZL8NE8ZepWWaxwOMgraJgJel4HZuh2uDI4hZXt+G0FrAniU+IX5KabC6xwbF8CL5sZ4mzzVY2n30PW8nuj6kFzKIxfk+kppr3Ezw01oyFBivHdZNP+ytdVl444bX6kOUXmjyS1o0xCvdnW+5g78GNUp3NI7E677H3xqBUN7NwbIxm2/vrent/xk0iUHyc1rAyS5i/R8e8bkWUV6yIs16C2HWrDXOYq4UeWeExj1txtm9C3TfYuuPeQOFxLEMAAhCAAAQgAIF8CTS0gNOnTx/n+eGTTr344ovODU6THAoPMnHiRCMB5dVXXzUSe5SoSnbHHXeYxx9/3Ky77rpmjTXWMIsuuqhR/pu777474isRY4UVVojW46LIMcccY9Zff33nhaLz3HzzzWll3333Xbf+8ssvO7FFYc3Gjh1rdtttN7PjjjtGZXNZUIzG4cOHm88//9wVl9CiPq233nouZJySSkmgkseMBKh4W3M5h8oohIuewl1ppZXM6NGjjer1Jk8kxUD0pgmfJ5980kjkkvfOYYcdZrbaaiuz4oorOpbyYHrrrbfM//73P3PnnXci4HhwvEMAAhCAAAQCAl5M0SZ9dzniiCOceBMUcYvywDnyyCPjm3NeHzRokJFg4011XXTRRX614Hd958IgUCsE9m7pZp6xk66hTbDP9x+cmmT+ahY0P0vISTPZijbPWtHnAeuJ0Ns+bX9yy4LR4d/aY3+d+tJsawWaza1Qs67Na6MJ/9CUQ+TdhOncxRKe3M8UrmtY6ltzkulpetoJ7mm2vtF2Yvpre+7NYonkF7J1fhATJf5tJ8u3TM1vNrRtk6m/r1qvBrU1F1Eo7EumZfV5dzsBf1UQfktln7XnOTH1jTnG9DC9YpPz2v+5DWGmEHN3p340+7V0N9tZIa3Uphw4f7Dje7Rtw3r/3969wFs55X8cXylJxi2plJIkQu4VlXEp5FLUiKiMwWQQI+OSy7gbDZHILcYtg0ruoXIvlIRUGPdL5FYNIdR0/s93+a/H2s9+9jl77+c55+xz+iyvbe/9PGut53nee+9zTuu3f2sFgYcgx8w8FZhcFpjGlX0jpqqT9vsm7rilsm2P4H08Lng9cpW9ipw+zfV3eJ21zOQgeOaXpcFrNDh4jfQ+0dpQGqD4KHgfXx8Eb2bFZLJobaUGkc/Z3sHrNjH4jEbLaUH229nBZ2evIDClANLXQUBzbBBguc9k1422dc/bBGekc4pOyHZ3kEu0aVk9GwDWZ+CboG/Z3RL5HLh+uEcAAQQQQAABBIoVqNUBHKGcffbZZuHCheG0Ih9//LENdlQEpsDDjBkz7C2urgIUfoZOp06d7CJWCtaoaKoRFzhSAMgvBx54oHEBHG2fPXt2uNstMB1uyOOBMnquuuoqM2TIEBuUUhP16febRzflVlGwShk8WphKN7/o+MOGDfM32YWqzj//fLvukCw1jZo8nElGZZ4ggAACCCCAQKyAAjYqmtJMj/2Ajt+gdfClFWXQFLMOjr7Y4YI3+vtFf+NoGrWkReej86IgUCoCnYJvy+8ZZAA8E8nCeTsIsPQr+8q0C6ZhahkEQTTI/30Q6Pg0GLLVGipuCqc+MQEGDT4rY0EDtwqR/NpHvWBtjNWCYdyVZnYwAP1lzFobXWKmjNoiyCKIGyh+MjjfJ8u+MA3L6gTDzr/mPCkgEw3gbB2015RwfgmW9jYnli2y5xbk4oSD0HfW2dDEBZH8toU8HhQExxTkkpdfFEB6Khiw37qsvtkwsA2WJQ8ydVbaAfpgckW/aqU91nokJwUGFRUN1O9ipTJrVsb7JvMIpfNMAZS4ac7cGSpQkqRo6reeQUBRmVF++SB4jY4PXiOFP+sGt2iwxNVVkPOo4L0WLZ2C824bvH7vRVoqyHpGEMTR52qN4POjdX0KLcq62ynI3psZ+WzpHC8MAoGXmv+a+t5ns9D+qY8AAggggAACCFQkUPFcARX1UOL7GzZsaG666Sb7rdSWLVtmnW3dYF5yZcooqOKKnrdt29Y9zbjXQMS5555rBg8enLHdBVE09Zpf1H90nZx+/fqZAQMG2KnI/LpaO0bTiRVTFGBRlo8W2oob3FlrrbXswlJaz6eYcvzxx1vHbbfdNqO5jnvdddeF08/5O7XujQaE9tprLyOfaGnatKkZOHCgDXxF9/EcAQQQQAABBIxRBouCKZoyLe73u2/kT6nmb6/osb7c8tFHH9nbnnvumUrwRscs9nwqOl/2I5BE4OIgg2ZzO5yb2YuGdTUFk4IlU4PB5ZeCwdoFXvAms3b8M4VO5gZ9aNopBXV0Hxe8aRccf58gkyFaNFCsBeJzFRe8ybV//2CtFw2AxxWdW65B8bj6hW5bOzj3kcGaPxr8jxZNOv1aEMiaEng8Hfi+EjyuiuCN/vXRIOZ8ouen5woanF1nPVO3Tvb5a39lvm/Uf6kUZZJ0CdTiyvpB8GSnIqdP8/s7N3CO+wyqjj6Hud6n9YN9l9VpFJvNpXVwhgX95hrcUJ9+8KZ9EOwsJIB5dBA0in9n/Hq+0c+msr205hYFAQQQQAABBBBIQ6BOML1V4V9DKfLIY8aMyWpZbEAhq6M8NyiLRLcVK1YYBXeaN29uGjSI/yNV30LVNGE///yzXTdHAYf11/9t2oRch9RUZkuWLDEKmij7RvdxRdOyadBEL4H6Vf/5zBEd15e/Tf19/vnnNgtIjzXgo8BQvXr67lHyounPdNM5t2jRIq8Oly9fbqd4W7p0qQ1cqa1s0rjeuBOIyz6KBt3i2rENAQQQQACBmiqgv1tat25ttB5edRdN96agUEVBp+o+T46fn8CcuhvnV7GSa/0YTGfWpWxh1lHOCQZu+wVTM+Vbfgj6uSCY2mtqJBOnovZ9gwyc81b77d8CmjKpR5AZU0hRlscNdRrnnL5sYTCt2BFlX5slFWSnKAPn+tUaZx165MpvzR1B/lBFRRk42waL1rsydOWirMykHsFA/ojVNnBV8rr/OFgcXtNWRadyq6jxP4LAmgJQfvlP2S/msMAiWu6r0yRruru4ukcF4SRNCXZCkNkRHWD3+9Sg/wXBe6h3Be+htN437ti7rfw8yNLK/Kf4sDrrmv4xGSauTZL7o1Z+bdeF8fuYXKdZ1nvxsSCTSlPfRUv0/e/2Pxxkn50XmZJut+C9c205751vg8/g2cH75IVIVovrM3qvzJsrg+CNMnjKKxODc7kkOJdM1cwWGwXhujuC9/9DQUjnusgaO7cFn80dchxjTLCmk6Z1q6h0CIJDNwX9nBUYPuf9jGkdfPYfXK1pVvN/B1O6XVGW+XtboahnV9soq25VbNjufwuq4jCpH0Nr+L3zzjsZ/SrDuHHj7J+TGZV4UmkCGhf74Ycf7PrSaY1FVdrJlnjHn3zyiVm8eLE9S605Hf1idXWdvv7toRmPWrVqlXPcs7rOjeMikIZAKY0tpzOin4ZKFfWhX+D5/hLXoEMxAw8KauQT2FhzzTXNlltumfqVKyiS7zkUc3AFXqLTwlXUj9YM0qASBQEEEEAAAQQqR0B/syhTJ8laOGmdmdbPKeZvqLSOTz8IlCewVpAtckWQLfJasMC51sN4ORhE/j7HkK/+sbRN8G16TR3VOzKF2rrBIOtZwYD71GCKsDeCrBJlmuQqmh6tdxCgODRYv0NZDrnKRnXqmTuDycb+GQxCa3A7biB6s2AgeK8cU1kNXW1d07SsrvlXMNC8KCYIpBydXYPgj9bzqYyySbCO0L2miV2ofkIwmD43UMmVUaFz6RicywGBi9YoSbMoKHNoEJBpHniOC87nqmCAfFowmO6fi16F7YPX9m/Ba7iNF8zKdR5pvW9y9V8q2xV80fvet9K5JZ0+zb++dYPP4HVBkEPT690dfAaVoRU3od4mwZn0Ct4fRwSfm4ZBm4rKH4LXXEHSK4PXe15k7SllY/UM8mJODV7vdYK++pStZW4KQmjR68x1jMF11gkyh1Y3NwafLWXrRUuL4DOlQPLAIHCo9Xa6Bu/t5yJrbkXb8ByBQgR+/PFH++UYv40Gzv2p/f191fl47NixZtSoUfYUOnToYG677bbqPJ1Ex9YXuvUFZhWNtW288cYZ/elL01rbWUGWn376yb4em266aVa9jEYFPrn11lvNo48+altpHHHatGkF9pB+9ddff92ccMIJdt1rfXHrnnvuKXicMP2zKr7HBQsW2C/XqwetUZ7ri/76UrrWBF+0aJFRME3jy1rruxQ/h8Vr0LIUBVa5AE4pvgicEwIIIIAAAgggkIaA1slR8EQZvtVV9I1Xpk+rLv3afVwN4L5eJ7/s73wk9E173f4XDL68HwzjLgqmTNO6NVoDR9MfaYqllsFgcHTBdNe3AjGHBYO1hwUZE78EfWjNnC+CPpTtobVe1Ie+Sb9ZMOirKcbyLS2DoMPoYHBbWQpvBwPb3wbntEbQ1/rB+Sjw0qRO+cGXI4Lz6R8MeCsLZmFwU2BJ59EouLUKrqd+TABpZDnZEvmet6unacj2D4JdyqhZFlyDbJVR9ENwWz24jrWCW/PgPJoH16KB7lxliyCoku/rXV5deWp6t++Cc9HAu85l7eAc2gRn07QCy7hzS/q+cX1OW625e1gl97evtmFex9F79ZUCPmfKXKooeynXgbsHgUjdlgavzbvBa6Ogo94Rer9urPd78NoVWvT63BVkaX0eZLN9GLz39HlsHPTXLni9FYRzpXHw2hdynWqndad0+zLIvvsgOF/9vFgr6FtZPW2C4KVfDg0+h7pVVAYEdXSjIFCRwMSJE8OgiKurqe6POeYY97Rk7l944YXwXObOnWu+++47s84664TbatKD++67z4wcOdKe8hZbbGGXLnDnP3nyZHP99dfb2WbcNnev2X569Ohh+vfvX6MDG+56ovezZs2ywRttV/b//Pnza+x1vv3223Z5B12LssW0dnc0gKMMvxtvvNHova01vv2ipTO0Xmnfvn2NlpKgIFAZAoX/RVQZZ0GfCCCAAAIIIIAAAqkIaM2cPfbYo1qmUtM38HR8CgI1SUABBw3uGnsr7swVFFGgRre0irIUOheZmaI1QZT1o1t1Fq3rowymUijKulDGT1oljfdNWudS0/tR0GjHFF8beSj7SoHCyigK/BWyhk5lnAN9rnoCGlSOFgUQSjGA07lzZ/PKK6/Y0916661rbPBGFzBp0qSQ3V87+9577zUjRowI90UfaFmDO++80/Tq1Su6q1Y833HHHW2wQ8tTKDin17mmFv817tatW9YsAo899pi59NJL7fIacdeogI6m2lp77bUJ4MQBsS0Vgcr5iyaVU6MTBBBAAAEEEEAAgUIF9A0wZeH86U9/KrRp4vo6ro5PQQABBBBAAAEEEEhHQOsKatomFU1PX79+fbu+jKbu0nZlhpRS0d+g+jKR1sAptXMrxElZF25tJWVm9OzZ0zbXmtfXXnttRlc77LCD0ReZFLj58MMPjdaB3nnnnY2mU6uNReuZP/LIIzb7qE2bNjU2SKcAlB8cjQbcXnzxRXPeeedlvIRaUmKrrbYyK1cGmdJB9o6bYq9Pnz4Z9XiCQJoCBHDS1KQvBBBAAAEEEECgBAQ0hZnmpnbzj1fFKZ1//vlMnVYV0BwDAQQQQAABBFYpAX+AebvttrPrbTz77LPWQFk4uYIk33zzTTjdkwadtYaLBqznzZtntAB906ZN7brM2h4tmvZs2bJldrPWNVxjjV8zGBXQUJBC2QbbbLNNuN1vr7YNGza0Nx1Ha4q4ouNr/RBXFPSITlelKbm0noyKpqfy17HWdu1X8dtq+mDdFGhRQKFZs2a2jvvfF198Yd5/P5jUMzh+y5YtbR23L9e9W3dG+7t27WrWX399W/Xll4PV84K1cVw588wzTb9+/dxTG7jS6xM9h7BC8MCtpSIrrZ/Srl27rMwPv36+j3WdCiDJSeerdbejvupLWSN6f6hoXR03xZ3O66233jLff/+9dW/fvr0NGtqK3v/UvwIYG220kX2f6PWWvStff/213a/nfv9uv95bunZXNthgg7B9rnPT+0bvv19++cVoijqtPeMXnfObb75p/fWe07X75+TXdY81JZoCciry0uvsigKQyrzxy0knnWQGDRpk179x25VtNmXKFLPrrrvawN3ixYvdLvv5iFsXVGtaydoV915O6zOr69caPSpa30fvfb0OnTp1cocM7xVsVCBKvgoQazrs6FpPYeX/f6DP9XvvvWc/i2qj97o+d7m8C60fPR7Pg+n9QEAAAQQQQAABBBCofQLKhmndurUZOnRopV+cFqdV0IiCAAIIIIAAAgggkK6AgjSuaIBZg+1+AEeDynFBGGXCLFy40Da944477ADtJZdcYvwBZv2tqG0a7PbLVVddZVwA4+STTza///3vzTnnnBNmAqmuzuOMM84IM1Nce7+tBo2nTZvmdtmB5AEDBoTP9QWgaNaDBs2ffvppW0cD+/71T5061Vx44YV23x//+Efzhz/8wT7XFFZ+6dKli91eFqxRp+t7/vnn/d02g0LbW7VqlbHdPSkvM8MN+Lu6yr7xy1prrWUOOOAAf1P4+Msvv7SZ8ro+fy0VvX6avuu0004zLVoUvt7fG2+8YeSu4JxfFHhTZsiQIUMyAjk6j969e9uqCsSNGTPGntf9999vg1yuj0aNGpnTTz/d7L333m6TvfdfB23QdHHKSnFFAS0FVFQ09dwFF1xgH7v/Pfzww+aKK65wT43WGtJ7USV6blp7RtPVKePHN1P9iy66yAYwR48ebTStnYIRriiIce6552YEZdw+d+/e43quDCs/APHkk0/ac3F1DznkEKP3XLQo00o3FQWmVM8FPxVo0rVGy+WXXx5+vrRP5962bVs7g0Ian9lbb73VBlTk88wzzxh9DjbbbDMzbty48FQUCLv55pvtNgWU/KLg2Kmnnmo6duzobzYKEOrcp0+fHgboXAW97/XzST+PFNhTKbS+64v7bIFfw3HZ29mCAAIIIIAAAgggUMMFTjnlFPtHu77VVRlF/eofBQRvKkOXPhFAAAEEEEBgVRfQgPynn34aMuy22242mOK+Xa/B7ldffTXcn+vBDTfcYIMtfvBGdTU924knnmgHWnO1ffzxx20AwE3j5uopg+Lvf/97RoDG7auK+6eeesoOFkeDNzq2pr5SMERfZIoGb7RfmRrap0BNXFF7Z6UMCgVXXPEzgrRt/PjxWYPZrq5/r8wl/c2s4IcfiFAdDbAr0KUAwWeffeY3q/CxBtOPO+64rOCNGipTSMGBE044ISO44XcqCwVpdB1RDxkoCKIAUXUUnZuChFpjM2qm967+raMg4NixY7OuT1lAavvJJ5/EnrqyQmTnSjTopveXKwqw5fPvHQUx9tlnH9fMZqvNnz8/fK4HMvbfkwqeKngTLUk+s7NmzTJ//etfbSBU7y0VPxNI56BAi76EFw3eqO67775rP/MuUKxtyrr6y1/+Ys9d2VfRooyl5557zmbeFVM/2h/PMwUI4GR68AwBBBBAAAEEEKhVApqDXNOpxX1jLMmFqj/1q/4pCCCAAAIIIIAAAukL+NknmvpLWQea6qlDhw7hwfwp1sKNkQczZsywWzS4rOwIP8tDU5LddNNNkRa/PdVgrr5Jr+mXDj/88Ixja3BY2RFukPi3VpX/SFNDado0ZdEcccQRWX+Tzpkzx2jwXF4HHXSQzYrRlGyuqK0GuuNKeZkZu+yyi9FAvSvKWtG0Wn6mkdvn3ysbQkEFFU1rpgH2W265xZx11ll2OjhtV1Bh+PDhephXURBNAQyXeaLMB2UWKbNCGVjuehWA+fe//x3bpwbjNZWYsnW6d+9uDjvssIwptBQ4ueuuu2LbVvZGnZuCacr26tu3r80mctP56dgKMOn9r8yZHj162Pe2Xm9XFMCKy4DRfn22nJsCKNEsND/worWMypsSzx1P9zpPvyiTxy8zZ87MmD4umoHm6ib5zOr11/vfL/4X+hS48QOfyhrSzwBl17hgkl73iy++OAzw6Hz0mXNFGVyqr+wqfb40reK+++4bvpcLre/65T5eoF78ZrYigAACCCCAAAII1BYB/WP/9ttvt98c0x/Z+nZUsWX33Xe3f6gTuClWkHYIIIAAAggggEDFAhq8VraGK5rGzBX9HeYGaJUpoEwDrUVRXtH0ugo+qChoM3DgwHCKNQ0yK5BQv3792C4UDFCmjorOSxkb7u9JZYzoXLbffvvYtpW5UQPryr5w67woeKFsDVc0aK39bvBdU0PJwRWtqaK1S/wiGz8YoynA/KI1a7Tujb+4vbKTlNGjIIAyGzp37uw3sWuMaK0UV5QRo6CTitw0VZwyhlReeuklO3WX1iiqqGhaMbcmkOoqmObWRNLUbsqauOeee2w3csmVRaJAjzI+tt12W1tXGT0KLCirQiU6NZvdWEX/0/taU4Lp3zMqO+64o838sk/+/39XXnllOFWaAgsKqLmi1ziu+EG6aBBFGSr+Gj0VrQnj97/11lvb18BlrOmzpWCdK35mj65NQY9cpdjPrM5fQS19xhVcUWDPBau0T1lZrujfdsOGDXNPbYBW0+7pvaP3lrJw9t9//zAjzVVUwExTFaroM6KfQW7qOG1zGWx6rFJR/V9r8f9cAmTg5JJhOwIIIIAAAgggUMsE9I99/RGuxU1HjhxptBBuPkV/2Ku+2qk9wZt81KiDAAIIIIAAAggUL6DsELfQvHrxAzj628wVDTQrS6G8oowbF7xRPQU2NCjrigZeP/jgA/c0615rzbii6duUpeEXP1vB317Zjw8++OAweKNj+UZ6rsFxF7yJ2+/WadE+V/zMDK0bEs3MUD3Zaa0eZYb4RYvBK9CldXq0xogrL7/8snto7/VaaOoqd1MQx1/H6K233sqon+uJ36+uU1lark/du7VZ1F7ZE35Qwu9TAScXvNF2XddOO+0UVvGDROHGKnqgAJsL3uiQ0ddYr5HWXnGlffv2RuvfuBL3Gr///vvGGSt4pfVv/KLr9bPKXIDQr1PeYwVAXNGaNi4ApuCJC3xqv6ZE9Kc2c210n/Qz++c//9lOg6b3hII5Wo9KRYEl//VUEMZ/zyi7TKauOKdoEEtBXP370E35p8wo/1oKre+Ox328ABk48S5sRQABBBBAAAEEaq2A/hGkOaN107erNC2Giu71XP9Icf/Y1X2h/2iptXBcGAIIIIAAAgggUEUC/vRpDRs2NMrI0DoqKhqQ1QLp7rmmkfKDOtFTjA6mav8mm2ySUU3r6cQFK3Qs93ehaxDX1u2rynt/oFnH9QeQ9byi/comipZJkyaFm6KZGeGO4IGCQwrE3HHHHWbChAkZ2QfKjNEUVJo2TSW6Dsuhhx5qt+f6n6ZSy6f4/erv+GhwI9qHBu6jQSfVadeuXbRqhqUfzMiqWMkboq+hAgzKXHEZJdH9Oh29D9x0dRW9xgpgKAPKLy7Y4bbp30eFFAWERo0aFb4nlIWzzTbb2Cn7/OBJNLvLP0aSz6z6UXAzrvjvGe2/7LLL7C2urra596ICegryufWQND2dpuVThpd+9hx77LFh9pfaFVpfbSi5BcjAyW2T2h4tuqU54nWL+0aDopVK6VMkloIAAggggAACCFSlgIIzCujopn+EKrtG924bwZuqfDU4FgIIIIAAAgggYGz2xtNPPx1S6BvyGpDV9FDu5oI3qqRF0d10V2Ej74GCMNHir+OifRqQjStJ2sb1V9G26GL15dXXdGZ+8bNYtD06EB/d77fVY2Wbu2yiuMyMaH1lMp188slGAZv+/fsbZSe58vjjj5v33nvPPtXrV0jJ1yCtfrV+SbRUZBWtX8jzfK9PfUZfY23zzy36Gkf367lfdOzHHnss3BQXRFHA1F9rx/+shQ3LeaBz1npTrrh1cPzp0xQ0clOQuXr+fZLPnc49GpRyfRf7ntHn4ZprrrE/f/z3uQJkzzzzjDnyyCPD6fp0rELru/PjPl4g+yd4fD22RgSUCqmgiyLcCrwouquor5+m55pobkylzKl069YtY75NzcWpqKyKFqHTQlIUBBBAAAEEEEAAAQQQQAABBBBAAIFVU2D69OkmbuqnXBoKvmia2wMOOCC2Slxwx32z3jXwFzl323SvvjXu5Q8o59vW7yfucVx2RLTvuHZumz+Q7LYluffXRdHUXY0bN86rO40Jag0bjQtqajUVZa1obSAtCu8HyxR80BRrGuDOVbSOSj5F/S5atMhWVVbU4MGDy20WN2apBmk7+idRaq/xzJkzw6kJ9Z7PlbWkbDS3zpQCe3LOFRTxr9c91jRqDz30kH2qsWNNr+evrbTffvtlfKZcO3ef5DNb3uvpvxd1rKOPPjorU82dg+61fo4rCkxp7SetiXXXXXcZfV5c4FeBMU2p1rFjR/ueV5tC67vjcJ8tQAAn26TcLUuWLDFjxoyx0dq4D5N+WGsuTM0Hms83Vl944YXweHPnzrXzUcalM4aVeIAAAggggAACCCCAAAIIIIAAAgggUGsFNCWaKxqMjcuQ0H4FeVw2g9rkCuBoNhjV84MGbpF1dxxN0RZXFIhQJok/vVq+baP9+cfXvuhC55oWy2WtRNtW9nMFGpQ140pcZob2uemGXT3/Xmua+MUFo/wp5+TZpk2bDE+/TSGP1a+bEkvH6t69e7lBgUL6TlLXf52jr7H6deuqJDlGsW39IJ2yZDQdW1xRAM8FcPTZ0VR5p556alzV2G2aMm2LLbawa86ogrJ+XLBNz3O9v7RPJcln9tce4v/vvxdVQ0EsTQdYSNG6OmeddZbROjtXXnmlmTp1qm2uz9CMGTPCAI7rs9D6rh33vwn8ltv32zYe5RBQtHTQoEF2bsu44I2aaSEszQHofzMhR3d2sxYKc0UR9lIK3hxzzDE2GDV69Gh3itwjgAACCCCAAAIIIIAAAggggAACCFSSgIIy/pd99Y12Tb0Ud9PUt65oQfu4wXLt1+L1+sa8K59++qnxg0QK3mj63Fzl5ptvDtccUQBDs8n4xR/b8rdHH0ezfDS1lGa4cUXHyTXe5upU1r0yM7766ivbvcbmcmVmaM2QoUOHGp27Px2VAjMPPPBAxum5dUw0G48/7de1116bcd2ukWzdFG5uW3n3fsBIa6v861//iq3+zTffmI8//jh2X2Vs9F/n1157LVxvU8d68cUXjayro+iz9dxzz4WHLi+IctBBB5n69euHde+++25z4403huvauB0KON55552xQSll4bjif97at2+fFeRw9dx90s+s6yd6r6CSH6zVubv1gvy6ej/rtXPlo48+CtfcctuUoTZs2DD31N67z3Oh9TM64UmWABk4WSTxG/TD7oQTTrC/9FwNzYm4/fbb20wb/SBU8EZFPwDyDeAo7Uy/cPULSh+iUilalMpFmvVDg4IAAggggAACCCCAAAIIIIAAAgggULkCWk/CTUukI+UKJLh9bl0NZQnom/CaESauKGigQWQNumrMxw+U5Frw3PWjQW8NRmvWmXfffTcMdGj/zjvvbFygwtXPda8pvFq0aGG0FrSKMnkOP/xwOx6maarUd3WVaGaGP3jvn5OyDDQVlm7KNNG1a6qoL7/8MpyaS/XXX399u4yCHis4piwHN4ivAIauW+OBCnZoAF1BtVdffdW2+cc//qFmFRZlXCkzxHkqAKY+9Jro3HROGqvUjD9nnHGGiWZfVHiAIitorNRlBum9PHDgQHtOCjBqrDFuWrUiD1VQsylTpoSfLWVBlTdVnd6rGge++uqrw2PccsstNlij11zZYgr4uc/qiBEjjAIzfunZs6ddNmPZsmUZwdXyAkd++ySfWb8f/7Ey+o499thwqj9lBR166KFGU7ppujTNPKUp3/Q+UhBn8uTJtrnWddf0gLpGvb7KqlHxA2J67jL1Cq2vtpTcAgRwcttk7NEPTz+Q0aNHD3PuuedmLKal6OLEiRPtwnIZjct5oj4VCNJN6Y655qPUh0Y/dLWWjn7QNWvWzGy++eax81Tql7YCTipazMtl9SxdutRGhBVx1i9sfehypQo+/PDD4VnrGwD6oe+Kfgnl+kXm6nCPAAIIIIAAAggggAACCCCAAAIIIFCYgBvkd638LAu3zd137drVDtRrHEhFU4DFBXAUQNCAugIk0SCJgjIaYM9VtO6H1sDRoK5uftF6Gn/729/8TRU+1uCx1oBxRV+IdtkhylLR4PYjjzzidlfJvcbJtIaQK/kOsMvdnbtrq3stIn/xxRdnrH1z9tln2zE992VptVPwJUnRca666iozZMiQMIti9uzZRrfqLJq9SAP/Lrih8U5lLLmipScUTNH7qirLpEmTwsPlmm4wrBA80OdCAQ3/dVKGiaY3y6cosKdp2txaOGqjcVgFdioqST6zFfWtYKzGmO+9915bVePF48ePz2oWXfNHY9NvvvmmvWVVDjYoW1BTz7lSaH3XjvtsAQI42SZZWxYsWGCef/75cLsCJ5dccklWlo0+XIX+4tIPWhflV7DFX9DKHVD7laYX/UWpD5KmOVOk1C8KtvTu3dtu0pyLWrNHEeP7778/44djo0aNzOmnn2723nvvsLmix1p0ys1fqB2ap1E3V2666Saz0047uafcI4AAAggggAACCCCAAAIIIIAAAggkFFCGwiuvvBL20rZtW9O8efPwefTBeuutZzp06GD0bXeVefPmGY1hRTNitt12W3PiiSfawX59MVhFwRJ9OVmZGRqPylW0vrPWudAXm5W544qyFzR9ksbICim9evWy04dpbMmf8k3ZIQpEdOnSxY5J6cvEVVUUXHDBBo3taSwtV1GATIEbrfXhf9Fb9WWljKnBgwcb9eMXfXFb1zxu3Dhz33332Ywbf78yZjQAnm/wyLVVAE5LOdx22202gOfW3XH7FWTbfffdq3Qcb9NNNzVajmH48OHhbEU6H71flXl01FFH2YDTrFmz3GlW+r0ynFzwTFkoCiLlU0466SSjQOntt99uA2PufeLaajoy7W/Xrp3blHGvYIkfwFFA1p9iLqOy9yTJZ9brJufD0047zb7fFJzSz41oVpRmiXJjy+pE16fMLk2r5gLGrnONL+tzrTVx3FSBhdZ3fXEfL1AniIaVxe9Kf6sCCdFSEwIBejMrbc0VRdGVWpZv0ZvY/YLUvJd++t0FF1xQbgDn+uuvN7feemu5hxowYICdf9NV+vzzz8MPmX4oKfrpz5/q6ulevyCUYqkfDCqaxzMuiGR3/v//akIAJ+7bBvoFSkEAAQQQQAABBBAoTGBO3Y0La0BtBBBAAIEaKbDd/xbUyPNW5sQ777yTce4KBmjmkVW5+GNRCiroC8QaAlTmh4Ijmsps7bXXjiXyx6oUAHDTJOlLv5ruS7PHNGnSJLZtvhs1YKysIGW/aAC4vEBVvn1WZT1Z6gvUCkLpWmSpwJnG2fIpmjlHN2WhKLij61cAKEnROWlMUEEcPVbARDP45LvMQ5Jj52qrL6PrOpWNIp/qPJdc55jvdgVvdD3KWNH16H3rZj3K1YfGJ4877rhwt740nyurLslnNjxAEQ/0GdR1aU0nvQcVlMoVZNJ0cHqPqa7GnGWg95gL3EQPX2j9aPvqfF5KY8tk4OTxToguILbLLrvk0Sp5Fb1R/OCNgl1HHnmk/WGnqdqefvppexBF2rt37x4GYfwj65eIgjdKq1TwSH/A6Lm+kaGiqKkWsrv88svtc9XRnIcTJkywP+y1UdF8P9CWa5o32wH/QwABBBBAAAEEEEAAAQQQQAABBBAoGQH37XoNskYzQyo6SddW9RS0SRq4ccfT4G+h5+LalsK9LDVwrVsxReNzaQcZdU4KzOlWKiWJUalcgzsPja0Wso6Qgmj+uK5mUvKnGHP9xt27z10xn9m4/srbpmCUsv3yKcrW0zhxvqXQ+vn2u6rVI4CTxyuuBZ1c0TcPtAZMVRQFZlxR0GTUqFFhNF5plQrmvP3227aK0vFcFo1r4+4V/b/hhhvC/Yr8KqrrFqxTqpwrf/jDH+xDBYhcStx2221nU2pdHe4RQAABBBBAAAEEEEAAAQQQQAABBBBAAAEEfhNQtpEydJStM3bsWDNz5sxwp5bAqMkZSOGF8KDKBQjg5EH+7bffhrWSpjOGHVXwQJFWP1VL8wxqm1LUXNE2F8B566233Oas+86dO4fBG+1Uep8yaty6Pv71ZTVmAwIIIJCSgL59oj9ePvvsM/uNIP1s0rdJokWLBPqLC7r9CjznSuN1dbhHAAEEEEAAAQQQQAABBBBAAAEEqkPgqaeeMldccUXWoZW5oyUwKAgUI0AAJw81fzG3qlpETRFblyGjU3z88cftLdfpRhcp8+vFLaSleTBd0aAqBQEEEKhMgeXLl9sFMl3gWMfSPMz64yb6DRTNyTxo0KCs05k7dy4BnCwVNiCAAAIIIIAAAggggAACCCCAQKkKaMoxrX1TVUkBperAeRUvQAAnDzt/yjQFVZSxUtnfAvczbfI4xXC6s7i6cYvSxX3rPa4t2xBIIqBB+z59+iTpIqPt0KFD7XpPGRt5UiMEJk+eHGb9uRNWMEfbDzjgALeJ+yIEnnnmGaPPRlzp3bu3ueiii+J2xW6bM2eOOeecc2L3aaN+d+iPTv0O1AKUO+64ow3E+V8KyNVY663de++9Gbs11250W0YFniCAAAIIIIAAAggggEBRAltttVW4Xk2bNm0K6qNVq1ZG0+mrMOhcEB2VV3EBrSWjdco1dtyoUSPTpUsX07Nnz6wvrsYxJfnMxvXHttojQAAnj9dyyy23NC+++GJY85VXXqn0QWStteOXPffc03573d/mPy7vF6oWhqMgUB0CWkcpbiqsYs/lkEMOKbYp7apZQFmFccVfYyxuP9sqFtCiiAq8xJUFCxaYv//972b11VeP25217euvvy74M6ssVc3l+49//MM0b948q0+3QVN+Rn8eVPaXIdyxuUcAAQQQQAABBBBAYFUT+Oc//1n0JR999NFGNwoCCBQmoCUrdCumJPnMFnM82tQcAQI4ebxWu+66q9EAmSt33HGH2X333fOKnro2hd5vsMEGRt9M/v77721TDYTvu+++hXZDfQQQqGaBiy++2Pz73/8Oz8KtWxVuKOeBghuaZkyff5UhQ4bYWzlNSnaX1rupW7dueC06UQUV9POVUrzAsmXLzEMPPZSzA72HlOV04IEH5qyTdIfOQb8XH3zwQfPAAw8YfeGAggACCCCAAAIIIIAAAggggAACCCCQXIDUjDwMd9hhB6MUOFfefPNNc+aZZ5ovv/zSbbL3eq6BtClTpmRsL+aJsma6du0aNp02bZp5+eWXw+f+g3fffdcsXbrU35T48RprrBH28emnn4aPeYAAAvkLrFixwlx33XXmP//5T3jLv7Ux99xzj9HPG9c+VxZLIX1WV9327dub8ePH259rrVu3Nt26dTMTJ040m2++eXWdUq047sMPP1zhz38/gFiZF60UcU3ZpvcrBQEEEEAAAQQQQAABBBBAAAEEEEAguQAZOHkannvuueaYY44Jvz3+3HPP2fUctAaAvkWu4I3Wx1E5/PDDzT777JNnz7mr/elPfzJa2+CXX34xZWVl5qSTTjJ77723HfDUN56/+uorM2/ePPPBBx+Y++67z8StdZO79/L3bLLJJuatt96ylWbNmmWOO+44s+GGG5qPPvrITpWjQToKAhUJKBC59dZbx1ZbuXJl+B7zK2gKJn/dKX9fru1+nVJ6rMyHaKC3kPNTVkNtKn379jW6UdITuPvuuzM60xo1mjd3/vz54XYFefT7KTo1Z1ghjwfbb7992F5fGNAXB/R7KFqUNXrGGWeUmxUUbcNzBBBAAAEEEEAAAQQQQAABBBBAAIF4AQI48S5ZW7fZZhszfPhwo0DOzz//bPcrqFKZ2SnK+jn//PPNhRdeaIM4mkbpiSeesLesE0x5g6bbcQEcdT179uzwCBp4gdf4dAAAJXtJREFUpyCQj0D9+vVtkDGurgZ644KOWq/jL3/5S1yTat2mz7sGxwspt99+eyHVM+pqAF7rbVV2Kea6KvuccvWvKdgovwksWbIk6/eBFhrt16+fOeecc8KKP/74o53ebMCAAeG2Qh/cdtttRkEcV/R7UFOLnnLKKfb3k9uu+0cffdRo6jZNBUpBAAEEEEAAAQQQQAABBBBAAAEEEChegABOAXaa13/cuHF20EoZOJouxi/6drPWedhjjz38zYkea92bTTfd1Nxyyy3mhRdeCINHrtOmTZvarBxlx6RZNAD4+eef2ymPli9fHnatAblmzZqFz3mAQKkIfPHFF3YdDk1hqHVmtBi7MoD0ntXAsz5LymqLCxpFr0GZBRMmTDDKXNDi8AsXLrQZDA0aNLD9bbnllqZjx46mZ8+eZrfddrPHifYxduxY88gjj0Q3m/79+2dtO+SQQ4xurnz22Wdm6NCh7ml4r0y7uDV07r333rCOHlx55ZVGmXOuDBw4MGMNFPVz0003mZkzZ9rpt7SQvILRuWxef/11O53bU089ZT755BM7ON+wYUPTpEkTu4aNMvJ0/vLOVT7++GM79WR0/4gRI4wyGfMpOqbK888/b89/+vTp9rXRz9527drZwMUJJ5xgXL18+qyMa1tzzTWNAh6u6GeprlNTbMpBgcCzzz7bBuddnWLu9ToqQ9Mv+++/v+nVq1dGAEf7NY1akgCOfww91jSbxx9/vPnuu+/MsGHDMnYryK9pPw8++OCM7TxBAAEEEEAAAQQQQAABBBBAAAEEEChMoE7w7euywpoUX3vMmDFZjXfaaaesbTVhgwaoNGD83//+1yjLQFM76VbeAGbS61IgRQO7mr5G07bpeBpALTQroJDz0EC2Bhz1NtHxFDCqzOMVcm7l1fUzhly9wYMHu4fcl4BArgycG264oaAMHL03L730UnPZZZcZZRqUVxo1amSuvvpqM2jQoJzVnn32WXPkkUfmnV3XqlUro59tChCpaM0aBREU5M23KNPuggsuMFozZ9SoUfaxfPIt0R/jGjj3F7bXtI6aakufZ12bBv79op8n0UCA9itIrWvRWjzRY/jt9XiLLbawQYJcP9MVKNF6YtEyd+5cowxHv+Squ3jxYnPRRRfZ19Cv7z9W5uKDDz6Yc+o+V7eyr03rwCioNHXqVDvtpH5X+OWSSy7JCrL4+/N5rC8V6P3qFwX6u3TpYtq0aWM+/PDDcFe9evVssKtx48bhtrgHTz75pP1SQHTfa6+9lpGB4/ZrWk19ySBatPaT3jt+UQarPqt+UfAwauPv5zECCJSGwJy6+QXaS+NsOQsEEEAAgWIFtvvfgmKbVms7/U38zjvvZJyDpoWv6G/fjAY8QQABBBBAwBMopbFlMnC8F6aQhwrUaK0O3aqqaJC1devWVXU4exx9k1zZBhQESlFA0woqq0CZcfkUBQAUwFAgNJo1oPaaskyBmLhgRq7+lZGiII4rGlTX+lTFlJtvvtmcdtppxTQtt40yVhSAOeigg2xAIVo57h82ClBrzS2ts5VPUcBC2UiaPmuvvfbKp0lBdRQ4vuKKK8oN3qjD9957z76Gyi5q0aJF7DGq4tpkrswbZcQoMBctSbMm1beO4Re9jrvssovdpKwoBQNd0TmMHz8+K6ji9hd7r6B+XHFrwsXtYxsCCCCAAAIIIIAAAggggAACCCCAQH4Cuee7ya89tRBAAIFqE7j44otjgzdaK6V9+/Zm8803j80Y0/RVyoyIFi2+nit4o0y7uKJghY7lioJKxZYkbcs7pgJWmj4u7prVLhpMUIahAmNxwRtNV9ahQ4fYac+U4aMp4hQgSbsoAKUsq3xKrino1Laqrk3T2mnqurjgjc4jaq5thRRlRela/KJgkcsCVbAuWjSNWtpFgaS4wvo3cSpsQ6B2CZQZ/kMAAQQQqMkCteu3EleDAAIIIIBA7RUgA6f2vrZcGQK1WkCZFpqGKlr69OljbrzxRju9oPZpbZejjz7aaGooVxQMOPPMMzOmitKi7HHTnmkaKAWKNP2agjua8mvy5Ml2vR2l6Z944omuW3s/evRo89NPP5mXXnrJTq2WsTN44q+N4va5xeF79OgR7tf5RTN5NChf7Loid9xxhztc1n00A+fOO+80Tz/9dFa9Cy+80Lpp/ROVGTNmGE3Ppmm0XNHaQ//85z/NyJEj3aZU79dZZx2bRaJMEwW8Jk6caKeHix5EaxgpABWdnq2qrk3rBcUVZRLp/Rc1j6tb3jZNiRctWvvGFWVDadrLJUuWuE32PanXKs1MzltvvTXs33+w2Wab+U95jAACtVCgjqlTC6+KS0IAAQQQQAABBBBAAAEESkuAAE5pvR6cDQII5Clw7bXX2gF8v7rmOVaWgab+c6Vly5ZGg/laj0TBBVe0psfLL79sOnXqZDctWrQoK6NBOzQVlYI3KsrC0RovuimLRwGMnXfe2e5z/1MGiorWHIlb9+uoo46y++P+p+kK3ZSFCk5FAzgK9JTXPq7P6DZlRpx++un2urROiqZm1HowftE6QdHSr18/c95552VsVhDlrrvuMt26dcvY/q9//ctOdyaDNIsCR9OmTTPbbrtt2G3fvn3NVlttZbS+SrTovRDN2qmOa1NmjAJ9nTt3tu8lTS+WK6Mreg1xzxU4fPXVVzN2qT+3DpN2yP7AAw80Y8eODespcKTMnbPOOivcVuwDBSmvueYaM3z48Kwufve739l1eLJ2sAEBBBBAAAEEEEAAAQQQQAABBBBAoCABplAriIvKCCBQKgL3339/1qkoW8YP3rgK6623np1CzD1391rs0hXViStDhgyxa+PE7VMAI+0gRdxx0tqmrIg5c+bYLBpN+6aAiKbcUqaGK++//76t4567+1xr83Tt2jUMgrm6S5cuzQowuH1J7o844oiM4I3rS9lKCt5FSzSLqDquTQGkSZMm2bVwFDxTBo4CHEkCOHFToWntpbXXXjuDIM1p1C666CJz7LHH2jWktDaS1r6Re3QaN53AcccdZwODGSfDEwQQqNECdRvF/46s0RfFySOAAAIIZAjwsz6DgycIIIAAAgiUjAABnJJ5KTgRBBDIV2DBggVGt2jZYostzH//+9/YW9y0UcpkcKVhw4axwQFN1daxY0ez3377mSeeeMJOf+Xa1LT722+/3bRo0aLc09bUb9GiNYUUIMll27Zt22gT49tm7SxyQ/fu3WNbKoimTKlo0RRqfoChqq9N5zts2LDoaSV+riyaaIm7fmXkuOnuXP358+ebN954wz3N+/6BBx4wyqxSRo+mI/zuu+9i2+pzFpcNFVuZjQggUGME1j24Z405V04UAQQQQKA4AX7WF+dGKwQQQAABBCpbIN35bSr7bOkfAQQQCARyBQcKXR9G06b5RVOLDRo0yN8UPlbwRjdlsZx88snmz3/+c2y2T9igxB5ourToVGdxpxhnq7VmmjVrFlc957aobc6KBezYdNNNc9bu0KFD1r4ff/zRLF68OFxvpqqv7Y9//GPWOSXdMGvWLPPuu+9mdRMXwFGmj4JIjz32WEZ9rZ/jT0OXsTPBEwX5pk6danJlsyXomqYIIFDNAi1vHmHW73+w+fHl18zKYD04CgIIIIBA7RFYLZiKt2GnHczvumdOi1x7rpArQQABBBBAoGYLEMCp2a8fZ4/AKingL8yeBGDZsmUZzQcOHGjefvttc+mll2Zs959oGq6//vWv5vLLLzfXXXediZumyq9fKo+VnZRPqSzbfI5dUZ3oFGF+fbdOkb9Nj5Up0rhxY7u5qq8tX/PoOZf3XMGXaFGWjab6iyt6v0aLMng0tZumc0ujrLXWWuboo4+2n5vyXqM0jkUfCCBQfQIa2GNwr/r8OTICCCCAAAIIIIAAAgismgIEcFbN152rRqBGC2gB9coql1xyiV2A/W9/+5sN5uQ6zmeffWb69OljRo8ebbT2TqkXTRGXT6lM23yOX14dZQLlKlrLJ66sWLEi3FzV15aveXiCFTzQdHDjxo3LqvXzzz+bhx56KGt7rg2ffPKJmT59utltt91yVcna3rJlS7tuj5wVpNG6SVtttZXp3Lmz6dWrl1lnnXWy2rABAQQQQAABBBBAAAEEEEAAAQQQQCCZAAGcZH60RgCBahDQ4HFcUdClQYMGcbtit7Vr1y52+/7772969uxpJk6caK6++mrz4osvxtYrKyszp5xyitljjz3sYHZspRq2Mc62SZMmdsq4Qi6la9euhVTPq+7333+fs57W54krfmChlK8t7tyj25555hmzcOHC6OainiuTp5AAzsMPP2y23377oo5FIwQQQAABBBBAAAEEEEAAAQQQQACB4gQI4BTnRisEEKhGgaZNm8YeXdM4KSsgjaJMg379+tmb1h1RZo4GsaNl+fLl5rbbbjNXXHFFdFeNfB5nq0CVrr+6y0cffZRzHZ///Oc/Waen19AP2pTytWWdfMyGuOnTYqrltWnChAnmmmuuMauvvnpe9amEAAIIIIAAAggggAACCCCAAAIIIFD1AvFzzlT9eXBEBBBAIG8BLcCudTeiZcqUKdFNqTzv2LGjnaJq8uTJsVNFzZs3L+s4SdcXSdo+64Ty3LDrrrtm1fz666/N66+/nrW9qjc8//zzOQ/5+OOPZ+1ThpXWh3GllK/NnWOue02Tdv/992ftVoBqk002Kfe28cYbZ7VbtGiR0fuZggACCCCAAAIIIIAAAggggAACCCBQugIEcEr3teHMEEAgh4CyBvbcc8+svSNGjDCLFy/O2h634ccff8zYrLVSotsyKgRP9tlnHzNo0KDoZqPB9WhZc801o5vs8wULFsRuj26Ma59v22hfhTxXsMrPWnFtzznnHKNMnHxKRY759BFX55577jFaeyhaHnjgAfPGG29EN9v1WfyNpXxt/nnGPX7sscdM3DRxY8eONcpMKu/24YcfmvXWWy+r2zQzerI6ZwMCCCCAAAIIIIAAAggggAACCCCAQGIBAjiJCekAAQSqQ2Do0KFZh9Xgfo8ePUxcRowqL1myxGjQWuvbaO0av3zzzTemRYsWZsiQIeapp54ymhotWn755Rcze/bs6GYTl+EQN12XGuq4yn5QWbZsmXnppZfMgw8+aJ/7/4trr3N/4oknbCBFwRQFdBTUSDOwo+CYDKJFAYSBAwcaZePEFQUJRo0aZTp06BCbKRLXptBtWgNnr732MjoXBYnkd9ddd5mjjjoqtqv+/ftnbC/la8s40ZgnccEWZaF17949pnbmpnr16pn99tsvc2Pw7KGHHjI//PBD1nY2IIAAAggggAACCCCAAAIIIIAAAgiUhgBr4JTG68BZIIBAgQIayD/ooIPsILTf9LXXXjOaYk23tm3bGq2D8u2335r33nvPZimsXLnSVj/mmGP8ZvaxMhyuu+46e2vQoIHZbrvtbB/KXtC+5557LjZYooBQtGjBdwUMooGgiRMnGt1+97vfGQUkVPbdd19z8MEHZ3ShbJEnn3wyY5sCFhqI17n973//C/tWECguiJTRuIAnp556qrnzzjvNxx9/nNFKQQSdu86tefPm9vjKeNL6M1988UVG3cp68s4775gDDjigwu61FtLee++dVa+Ury3rZP9/w9KlS82jjz6atVvXp/dCPqV379422OfXVRBMwcMBAwb4m3mMAAIIIIAAAggggAACCCCAAAIIIFAiAgRwSuSF4DQQQKBwAQUZunXrZubOnZvRWNkpc+bMsbeMHQU8+emnn8zMmTPtrbxmChQdeuihWVWUHdG3b18zbty4rH3a4II3sTuDjcp2GT58eOy0ZTq3yiwKWCk74/e//7357rvvMg6l6eKmT5+esa0qnihQoXWBFMSqqNStW9dcf/31RvfRUorXFj3H6HOtfRP3mvfq1StaNedzBf7iAooKyhHAycnGDgQQQAABBBBAAAEEEEAAAQQQQKBaBZhCrVr5OTgCCCQRWGeddcwLL7xgDjnkkIK7UTAgaWnfvr2ZNGmS0RRVceXyyy83jRs3jttV4TZlkJx22mkV1qusCso+mjVrlp0SrdBjpGEbPebJJ59spk6dajOXovv858q4uuWWW8zuu+/ub854XGrXlnFyMU/ipk/TdR544IExteM3rbvuuma33XbL2jllyhSj6QMpCCCAAAIIIIAAAggggAACCCCAAAKlJ0AAp/ReE84IAQQKEFh77bXNhAkTzLRp00yfPn2Mgjq5igItXbt2NVdffbUZMWJERrUNNtjAjB492g78r7HGGhn7ok8UABg5cqR5/fXXy526rFWrVmbGjBlm//33t9kj0X70fOutt7bnHbdPASCtKxO3Ho7qaxo2Zfm0bNkyrnnibe3atTOakk7rzCjTSRkcuYrORRkh48ePN4cddliuakVtV7Di+OOPt6+dzDV1XjRopqCRzlHTyeVaE8c/eKlcm39OcY+/+uoruyZTdF/nzp1NkyZNopvLfa5p1KJlxYoV9jWLbuc5AggggAACCCCAAAIIIIAAAggggED1C9QJphoqq6rTGDNmTNahdtppp6xtbEAgqUDcQvODBw9O2i3ta4CA1oaZP3++XZNF69Zo8F/TmWmNGK2Js+aaa1Z4FZomTGvmfPrpp3aqM61joz6UTaPMGE3DVWjRWjEKhixatMiew4YbbmgU4NFaMhUVrdujaeK0Jo3OTcEmDd5vvvnmpqJgU0V9F7Jfa6bMmzfPZmxoarX69evbgFnr1q2NbtGgSiF9F1p3yZIlNoCm7BFll+h1SbIOUCldW6EW1EcAAQQQQAABBBBAYFUWePbZZ43WyvTLJptsUvRsCH4/PEYAAQQQWDUFSmlsOX7en1XzdeGqEUCgFgho3ROtS6NbsUVBEWXG6JZWadSokenevXtR3SkIpawf3aqzNGzY0HTq1Kk6TyE89vrrr2/23HPP8HnSB6V0bUmvhfYIIIAAAggggAACCCCAAAIIIIAAArVDgCnUasfryFUggAACCCCAAAIIIIAAAggggAACCCCAAAIIIIBALRIggFOLXkwuBQEEEEAAAQQQQAABBBBAAAEEEEAAAQQQQAABBGqHAFOo1Y7XkatAAAEEEEAAAQQQQAABBBBAAAEEVjmBOnXqZF2z1kP95ZdfsrazAQEEEEAAgZomQACnpr1inC8CCCCAAAIIIIAAAggggAACCCCAgBUoKyvLkvj222+NbhQEEEAAAQRqugBTqNX0V5DzRwABBBBAAAEEEEAAAQQQQAABBBBAAAEEEEAAgVonQACn1r2kXBACCCCAAAIIIIAAAggggAACCCCwagg0aNBg1bhQrhIBBBBAoNoE1lhjjWo7NgGcaqPnwAgggAACCCCAAAIIIIAAAggggAACSQQ222yzJM1piwACCCCAQIUCrVu3rrBOZVVgDZzKkqVfBBBAAAEEEEAAAQQQQAABBBBAAIFKFdhwww3NYYcdZhYsWGB++umnSj0WnSOAAAIIrFoCq622mmnSpIlp0aJFtV04AZxqo+fACCCAAAIIIIAAAggggAACCCCAAAJJBdZdd12jGwUBBBBAAIHaJsAUarXtFeV6EEAAAQQQQAABBBBAAAEEEEAAAQQQQAABBBBAoMYLVHsGzuzZs2s8IheAAAIIIIAAAggggAACCCCAAAIIIIAAAggggAACCKQpQAZOmpr0hQACCCCAAAIIIIAAAggggAACCCCAAAIIIIAAAgikIFClAZy6deumcMp0gUDhArz3CjejBQIIIIAAAggggAACCCCAAAIIIIAAAggggED1CVRpAKdZs2bVd6UceZUW2GijjVbp6+fiEUAAAQQQQAABBBBAAAEEEEAAAQQQQAABBGqWQJUGcDp37mw23njjmiXE2dZoAWXe6D2n9x4FAQQQQAABBBBAAAEEEEAAAQQQQAABBBBAAIGaIlCnLCg15WQ5TwQQQAABBBBAAAEEEEAAAQQQQAABBBBAAAEEEEBgVRCo0gycVQGUa0QAAQQQQAABBBBAAAEEEEAAAQQQQAABBBBAAAEEkgoQwEkqSHsEEEAAAQQQQAABBBBAAAEEEEAAAQQQQAABBBBAIGUBAjgpg9IdAggggAACCCCAAAIIIIAAAggggAACCCCAAAIIIJBUgABOUkHaI4AAAggggAACCCCAAAIIIIAAAggggAACCCCAAAIpCxDASRmU7hBAAAEEEEAAAQQQQAABBBBAAAEEEEAAAQQQQACBpAIEcJIK0h4BBBBAAAEEEEAAAQQQQAABBBBAAAEEEEAAAQQQSFmAAE7KoHSHAAIIIIAAAggggAACCCCAAAIIIIAAAggggAACCCQVIICTVJD2CCCAAAIIIIAAAggggAACCCCAAAIIIIAAAggggEDKAgRwUgalOwQQQAABBBBAAAEEEEAAAQQQQAABBBBAAAEEEEAgqQABnKSCtEcAAQQQQAABBBBAAAEEEEAAAQQQQAABBBBAAAEEUhYggJMyKN0hgAACCCCAAAIIIIAAAggggAACCCCAAAIIIIAAAkkFCOAkFaQ9AggggAACCCCAAAIIIIAAAggggAACCCCAAAIIIJCyAAGclEHpDgEEEEAAAQQQQAABBBBAAAEEEEAAAQQQQAABBBBIKkAAJ6kg7RFAAAEEEEAAAQQQQAABBBBAAAEEEEAAAQQQQACBlAUI4KQMSncIIIAAAggggAACCCCAAAIIIIAAAggggAACCCCAQFIBAjhJBWmPAAIIIIAAAggggAACCCCAAAIIIIAAAggggAACCKQsQAAnZVC6QwABBBBAAAEEEEAAAQQQQAABBBBAAAEEEEAAAQSSChDASSpIewQQQAABBBBAAAEEEEAAAQQQQAABBBBAAAEEEEAgZQECOCmD0h0CCCCAAAIIIIAAAggggAACCCCAAAIIIIAAAgggkFSAAE5SQdojgAACCCCAAAIIIIAAAggggAACCCCAAAIIIIAAAikLEMBJGZTuEEAAAQQQQAABBBBAAAEEEEAAAQQQQAABBBBAAIGkAgRwkgrSHgEEEEAAAQQQQAABBBBAAAEEEEAAAQQQQAABBBBIWYAATsqgdIcAAggggAACCCCAAAIIIIAAAggggAACCCCAAAIIJBUggJNUkPYIIIAAAggggAACCCCAAAIIIIAAAggggAACCCCAQMoCBHBSBqU7BBBAAAEEEEAAAQQQQAABBBBAAAEEEEAAAQQQQCCpAAGcpIK0RwABBBBAAAEEEEAAAQQQQAABBBBAAAEEEEAAAQRSFiCAkzIo3SGAAAIIIIAAAggggAACCCCAAAIIIIAAAggggAACSQUI4CQVpD0CCCCAAAIIIIAAAggggAACCCCAAAIIIIAAAgggkLIAAZyUQekOAQQQQAABBBBAAAEEEEAAAQQQQAABBBBAAAEEEEgqQAAnqSDtEUAAAQQQQAABBBBAAAEEEEAAAQQQQAABBBBAAIGUBQjgpAxKdwgggAACCCCAAAIIIIAAAggggAACCCCAAAIIIIBAUgECOEkFaY8AAggggAACCCCAAAIIIIAAAggggAACCCCAAAIIpCxAACdlULpDAAEEEEAAAQQQQAABBBBAAAEEEEAAAQQQQAABBJIKEMBJKkh7BBBAAAEEEEAAAQQQQAABBBBAAAEEEEAAAQQQQCBlAQI4KYPSHQIIIIAAAggggAACCCCAAAIIIIAAAggggAACCCCQVIAATlJB2iOAAAIIIIAAAggggAACCCCAAAIIIIAAAggggAACKQsQwEkZlO4QQAABBBBAAAEEEEAAAQQQQAABBBBAAAEEEEAAgaQCBHCSCtIeAQQQQAABBBBAAAEEEEAAAQQQQAABBBBAAAEEEEhZgABOyqB0hwACCCCAAAIIIIAAAggggAACCCCAAAIIIIAAAggkFSCAk1SQ9ggggAACCCCAAAIIIIAAAggggAACCCCAAAIIIIBAygIEcFIGpTsEEEAAAQQQQAABBBBAAAEEEEAAAQQQQAABBBBAIKkAAZykgrRHAAEEEEAAAQQQQAABBBBAAAEEEEAAAQQQQAABBFIWIICTMijdIYAAAggggAACCCCAAAIIIIAAAggggAACCCCAAAJJBQjgJBWkPQIIIIAAAggggAACCCCAAAIIIIAAAggggAACCCCQsgABnJRB6Q4BBBBAAAEEEEAAAQQQQAABBBBAAAEEEEAAAQQQSCpAACepIO0RQAABBBBAAAEEEEAAAQQQQAABBBBAAAEEEEAAgZQFCOCkDEp3CCCAAAIIIIAAAggggAACCCCAAAIIIIAAAggggEBSAQI4SQVpjwACCCCAAAIIIIAAAggggAACCCCAAAIIIIAAAgikLEAAJ2VQukMAAQQQQAABBBBAAAEEEEAAAQQQQAABBBBAAAEEkgoQwEkqSHsEEEAAAQQQQAABBBBAAAEEEEAAAQQQQAABBBBAIGUBAjgpg9IdAggggAACCCCAAAIIIIAAAggggAACCCCAAAIIIJBUgABOUkHaI4AAAggggAACCCCAAAIIIIAAAggggAACCCCAAAIpCxDASRmU7hBAAAEEEEAAAQQQQAABBBBAAAEEEEAAAQQQQACBpAIEcJIK0h4BBBBAAAEEEEAAAQQQQAABBBBAAAEEEEAAAQQQSFmAAE7KoHSHAAIIIIAAAggggAACCCCAAAIIIIAAAggggAACCCQVIICTVJD2CCCAAAIIIIAAAggggAACCCCAAAIIIIAAAggggEDKAgRwUgalOwQQQAABBBBAAAEEEEAAAQQQQAABBBBAAAEEEEAgqQABnKSCtEcAAQQQQAABBBBAAAEEEEAAAQQQQAABBBBAAAEEUhYggJMyKN0hgAACCCCAAAIIIIAAAggggAACCCCAAAIIIIAAAkkFCOAkFaQ9AggggAACCCCAAAIIIIAAAggggAACCCCAAAIIIJCyAAGclEHpDgEEEEAAAQQQQAABBBBAAAEEEEAAAQQQQAABBBBIKkAAJ6kg7RFAAAEEEEAAAQQQQAABBBBAAAEEEEAAAQQQQACBlAUI4KQMSncIIIAAAggggAACCCCAAAIIIIAAAggggAACCCCAQFIBAjhJBWmPAAIIIIAAAggggAACCCCAAAIIIIAAAggggAACCKQsQAAnZVC6QwABBBBAAAEEEEAAAQQQQAABBBBAAAEEEEAAAQSSChDASSpIewQQQAABBBBAAAEEEEAAAQQQQAABBBBAAAEEEEAgZQECOCmD0h0CCCCAAAIIIIAAAggggAACCCCAAAIIIIAAAgggkFSAAE5SQdojgAACCCCAAAIIIIAAAggggAACCCCAAAIIIIAAAikLEMBJGZTuEEAAAQQQQAABBBBAAAEEEEAAAQQQQAABBBBAAIGkAgRwkgrSHgEEEEAAAQQQQAABBBBAAAEEEEAAAQQQQAABBBBIWYAATsqgdIcAAggggAACCCCAAAIIIIAAAggggAACCCCAAAIIJBUggJNUkPYIIIAAAggggAACCCCAAAIIIIAAAggggAACCCCAQMoCBHBSBqU7BBBAAAEEEEAAAQQQQAABBBBAAAEEEEAAAQQQQCCpAAGcpIK0RwABBBBAAAEEEEAAAQQQQAABBBBAAAEEEEAAAQRSFiCAkzIo3SGAAAIIIIAAAggggAACCCCAAAIIIIAAAggggAACSQUI4CQVpD0CCCCAAAIIIIAAAggggAACCCCAAAIIIIAAAgggkLIAAZyUQekOAQQQQAABBBBAAAEEEEAAAQQQQAABBBBAAAEEEEgqQAAnqSDtEUAAAQQQQAABBBBAAAEEEEAAAQQQQAABBBBAAIGUBQjgpAxKdwgggAACCCCAAAIIIIAAAggggAACCCCAAAIIIIBAUgECOEkFaY8AAggggAACCCCAAAIIIIAAAggggAACCCCAAAIIpCxAACdlULpDAAEEEEAAAQQQQAABBBBAAAEEEEAAAQQQQAABBJIKEMBJKkh7BBBAAAEEEEAAAQQQQAABBBBAAAEEEEAAAQQQQCBlAQI4KYPSHQIIIIAAAggggAACCCCAAAIIIIAAAggggAACCCCQVIAATlJB2iOAAAIIIIAAAggggAACCCCAAAIIIIAAAggggAACKQsQwEkZlO4QQAABBBBAAAEEEEAAAQQQQAABBBBAAAEEEEAAgaQCBHCSCtIeAQQQQAABBBBAAAEEEEAAAQQQQAABBBBAAAEEEEhZgABOyqB0hwACCCCAAAIIIIAAAggggAACCCCAAAIIIIAAAggkFSCAk1SQ9ggggAACCCCAAAIIIIAAAggggAACCCCAAAIIIIBAygIEcFIGpTsEEEAAAQQQQAABBBBAAAEEEEAAAQQQQAABBBBAIKkAAZykgrRHAAEEEEAAAQQQQAABBBBAAAEEEEAAAQQQQAABBFIWIICTMijdIYAAAggggAACCCCAAAIIIIAAAggggAACCCCAAAJJBQjgJBWkPQIIIIAAAggggAACCCCAAAIIIIAAAggggAACCCCQsgABnJRB6Q4BBBBAAAEEEEAAAQQQQAABBBBAAAEEEEAAAQQQSCpAACepIO0RQAABBBBAAAEEEEAAAQQQQAABBBBAAAEEEEAAgZQFCOCkDEp3CCCAAAIIIIAAAggggAACCCCAAAIIIIAAAggggEBSgdXKysqS9kF7BBBAAAEEEEAAAQQQQAABBBBAAAEEEEAAAQQQQACBlAQUu1lt+fLlKXVHNwgggAACCCCAAAIIIIAAAggggAACCCCAAAIIIIAAAkkFFLupt2zZMmMf1KtnyMZJSkp7BBBAAAEEEEAAAQQQQAABBBBAAAEEEEAAAQQQQKA4gTp16pgVK1bY2/8BAFsCDN/LXCMAAAAASUVORK5CYII=;" vertex="1" parent="1">
                    <mxGeometry x="270" y="470" width="1648" height="1117" as="geometry"/>
                </mxCell>
            </root>
        </mxGraphModel>
    </diagram>
</mxfile>